<svg xmlns="http://www.w3.org/2000/svg" width="458.818" height="16.168" viewBox="0 0 458.818 16.168">
  <g id="그룹_337" data-name="그룹 337" transform="translate(-263.443 -37.992)">
    <g id="그룹_329" data-name="그룹 329" transform="translate(263.444 37.992)">
      <g id="그룹_323" data-name="그룹 323" transform="translate(0 0.343)">
        <path id="패스_2335" data-name="패스 2335" d="M493.45,44.286a37.957,37.957,0,0,0-13.236-4.7,57.153,57.153,0,0,0-14.053-.119C456.8,40.5,447.683,43.019,438.692,45.9l-13.5,4.4c-4.5,1.394-9.107,2.953-13.981,3.453-9.657,1.055-19.943-1.6-27.237-8.642l.907.405-30.067-.088c-10.027-.059-20.051-.026-30.074-.165l-30.071-.35c-10.027-.209-21.2-.333-31.228-.621,10.023-.289,21.2-.412,31.228-.621l30.071-.35c10.023-.137,20.046-.106,30.074-.165l30.067-.088a1.208,1.208,0,0,1,.857.348l.055.057a28.376,28.376,0,0,0,11.6,6.75,34.126,34.126,0,0,0,13.587,1.313c4.59-.434,9.034-1.89,13.573-3.262,4.506-1.412,9.041-2.812,13.591-4.151,9.1-2.672,18.381-5.046,27.909-5.823a58.049,58.049,0,0,1,14.265.663A36.319,36.319,0,0,1,493.45,44.286Z" transform="translate(-263.444 -38.148)" fill="#eab978"/>
      </g>
      <g id="그룹_324" data-name="그룹 324" transform="translate(258.882 0.318)">
        <path id="패스_2336" data-name="패스 2336" d="M380.99,44.073a34.742,34.742,0,0,1,13.159-5.138,57.731,57.731,0,0,1,14.212-.63c9.5.689,18.762,3.03,27.865,5.57l13.6,3.978c4.53,1.352,9,2.707,13.576,3.033a37.383,37.383,0,0,0,26.158-6.81,26.709,26.709,0,0,1-11.974,7.779,35.466,35.466,0,0,1-14.423,1.438c-4.856-.54-9.442-2.094-13.941-3.425l-13.5-4.251c-8.995-2.744-18.115-5.211-27.448-6.175C399.023,38.443,389.2,39.192,380.99,44.073Z" transform="translate(-380.99 -38.137)" fill="#eab978"/>
      </g>
      <g id="그룹_325" data-name="그룹 325" transform="translate(230.006 0.348)">
        <path id="패스_2337" data-name="패스 2337" d="M367.879,44.283a36.434,36.434,0,0,1,13.133-5.323,57.82,57.82,0,0,1,14.263-.661c9.528.773,18.806,3.154,27.9,5.823l13.593,4.147c4.543,1.372,8.986,2.83,13.571,3.262a34.1,34.1,0,0,0,13.593-1.31,28.358,28.358,0,0,0,11.607-6.753l.051-.053a1.214,1.214,0,0,1,.857-.35l30.767.079,30.774.161,27.928.355c10.254.209,20.513.335,30.772.625-10.259.291-20.517.418-30.772.625l-27.928.355-30.774.161-30.767.079.9-.4c-7.292,7.034-17.577,9.695-27.233,8.64-4.874-.5-9.486-2.059-13.981-3.453l-13.5-4.4c-8.986-2.879-18.115-5.4-27.47-6.429a57.137,57.137,0,0,0-14.051.123A38,38,0,0,0,367.879,44.283Z" transform="translate(-367.879 -38.15)" fill="#eab978"/>
      </g>
      <g id="그룹_326" data-name="그룹 326" transform="translate(236.777 7.91)">
        <path id="패스_2338" data-name="패스 2338" d="M370.953,41.584" transform="translate(-370.953 -41.584)" fill="#eab978"/>
      </g>
      <g id="그룹_327" data-name="그룹 327" transform="translate(96.628)">
        <path id="패스_2339" data-name="패스 2339" d="M307.318,44.248a30.523,30.523,0,0,0,12.428,6.22,36.018,36.018,0,0,0,13.752.85,81.742,81.742,0,0,0,13.534-3.365l13.523-4.215c9.1-2.577,18.368-4.953,27.917-5.632a60.218,60.218,0,0,1,14.294.725,36.721,36.721,0,0,1,13.115,5.416,39.331,39.331,0,0,0-13.309-4.218A59.473,59.473,0,0,0,388.635,40a133.115,133.115,0,0,0-13.8,2.405c-4.557,1.1-9.085,2.319-13.58,3.7l-13.576,4c-4.513,1.266-9.133,2.786-13.99,3.094a37.1,37.1,0,0,1-14.276-1.577,31.108,31.108,0,0,1-6.521-2.971A24.043,24.043,0,0,1,307.318,44.248Z" transform="translate(-307.318 -37.992)" fill="#eab978"/>
      </g>
      <g id="그룹_328" data-name="그룹 328" transform="translate(236.777 7.91)">
        <path id="패스_2340" data-name="패스 2340" d="M370.953,41.584" transform="translate(-370.953 -41.584)" fill="#eab978"/>
      </g>
    </g>
    <g id="그룹_336" data-name="그룹 336" transform="translate(266.77 41.046)">
      <g id="그룹_332" data-name="그룹 332">
        <g id="그룹_330" data-name="그룹 330" transform="translate(2.242)">
          <path id="패스_2341" data-name="패스 2341" d="M275.826,40.247c-3.143,2.324-9.854,2.561-9.854,2.561s6.711.238,9.854,2.559,5.112-.526,3.669-2.559C280.937,40.775,278.975,37.925,275.826,40.247Z" transform="translate(-265.972 -39.379)" fill="#eab978"/>
        </g>
        <g id="그룹_331" data-name="그룹 331" transform="translate(0 1.861)">
          <path id="패스_2342" data-name="패스 2342" d="M268.095,41.792a1.57,1.57,0,1,1-1.57-1.568A1.571,1.571,0,0,1,268.095,41.792Z" transform="translate(-264.954 -40.224)" fill="#eab978"/>
        </g>
      </g>
      <g id="그룹_335" data-name="그룹 335" transform="translate(435.92)">
        <g id="그룹_333" data-name="그룹 333">
          <path id="패스_2343" data-name="패스 2343" d="M467.035,45.367c3.147-2.321,9.858-2.559,9.858-2.559s-6.711-.238-9.858-2.561-5.112.529-3.667,2.561C461.923,44.841,463.885,47.691,467.035,45.367Z" transform="translate(-462.885 -39.379)" fill="#eab978"/>
        </g>
        <g id="그룹_334" data-name="그룹 334" transform="translate(13.109 1.861)">
          <path id="패스_2344" data-name="패스 2344" d="M468.837,41.792A1.568,1.568,0,1,1,470.4,43.36,1.567,1.567,0,0,1,468.837,41.792Z" transform="translate(-468.837 -40.224)" fill="#eab978"/>
        </g>
      </g>
    </g>
  </g>
</svg>
