<svg xmlns="http://www.w3.org/2000/svg" width="64.75" height="75.824" viewBox="0 0 64.75 75.824">
  <g id="그룹_431" data-name="그룹 431" transform="translate(-1220.468 -1173.998)">
    <path id="패스_2531" data-name="패스 2531" d="M186.964,56.741a.727.727,0,1,1,1.4-.374l6.588,24.578,6.584-24.578a.729.729,0,0,1,1.408.374l-6.223,23.221L213.4,56.137a.726.726,0,0,1,1.191.832L198.9,79.384l27.038-23.379a.727.727,0,1,1,.953,1.1c-9.97,8.619-22.176,18.18-31.435,27.181a.728.728,0,0,1-.249.157l-.013.006a.857.857,0,0,1-.2.039c-.028,0-.057,0-.085,0a.837.837,0,0,1-.2-.039l-.015-.006a.74.74,0,0,1-.249-.157c-9.257-9-21.465-18.561-31.434-27.181a.726.726,0,1,1,.951-1.1l27.042,23.379L175.322,56.969a.726.726,0,0,1,1.191-.832l16.671,23.824Z" transform="translate(1057.887 1140.495)" fill="#d8d8d8" fill-rule="evenodd"/>
    <path id="패스_2532" data-name="패스 2532" d="M175.106,75.274l41.419.33-4.686,29.64H180.281Z" transform="translate(1060.477 1144.577)" fill="#c4c4c4" fill-rule="evenodd"/>
    <path id="패스_2533" data-name="패스 2533" d="M173.77,75.274h43.841l-.586,5.8h-42.3Z" transform="translate(1060.196 1144.577)" fill="#c4c4c4" fill-rule="evenodd"/>
    <path id="패스_2534" data-name="패스 2534" d="M170.978,75.274l41.42.33-37.452,5.281,36.22,2.338-3.457,22.022H176.155Z" transform="translate(1059.61 1144.577)" fill="#c4c4c4" fill-rule="evenodd"/>
    <path id="패스_2535" data-name="패스 2535" d="M169.885,75.274h43.843l-.588,5.8h-42.3Z" transform="translate(1059.381 1144.577)" fill="#c4c4c4" fill-rule="evenodd"/>
    <path id="패스_2536" data-name="패스 2536" d="M185.727,74.788h5.508v9.034l-.212-.211-.611.61-.615-.61-.611.61-.612-.61-.612.61-.611-.61-.611.61-.613-.61-.4.4V74.788Zm1.013,9.51.035.037H186.7l.039-.037Zm1.222,0,.039.037h-.076l.038-.037Zm1.224,0,.038.037h-.074l.036-.037Zm1.226,0,.035.037h-.074Z" transform="translate(1062.707 1144.476)" fill="#c4c4c4" fill-rule="evenodd"/>
    <path id="패스_2537" data-name="패스 2537" d="M189.976,83.709c4.584-.2,8.466,3.059,8.668,7.274s-3.349,7.8-7.933,7.994-8.466-3.056-8.669-7.273S185.393,83.911,189.976,83.709Z" transform="translate(1061.932 1146.346)" fill="#fff" fill-rule="evenodd"/>
    <path id="패스_2538" data-name="패스 2538" d="M173.895,81.911a.154.154,0,1,1,0-.307h9.118a.154.154,0,1,1,0,.307Z" transform="translate(1060.19 1145.906)" fill="#c4c4c4" fill-rule="evenodd"/>
    <path id="패스_2539" data-name="패스 2539" d="M173.895,83.479a.152.152,0,1,1,0-.3h9.118a.152.152,0,1,1,0,.3Z" transform="translate(1060.19 1146.235)" fill="#c4c4c4" fill-rule="evenodd"/>
    <path id="패스_2540" data-name="패스 2540" d="M173.895,85.047a.155.155,0,0,1-.155-.154.153.153,0,0,1,.155-.152h9.118a.153.153,0,0,1,.154.152.155.155,0,0,1-.154.154Z" transform="translate(1060.19 1146.564)" fill="#c4c4c4" fill-rule="evenodd"/>
    <path id="패스_2541" data-name="패스 2541" d="M195.745,83.883a.152.152,0,1,1,0-.3h9.118a.152.152,0,1,1,0,.3Z" transform="translate(1064.777 1146.32)" fill="#c4c4c4" fill-rule="evenodd"/>
    <path id="패스_2542" data-name="패스 2542" d="M195.745,85.451a.153.153,0,0,1-.154-.151.156.156,0,0,1,.154-.155h9.118a.154.154,0,0,1,.154.155.151.151,0,0,1-.154.151Z" transform="translate(1064.777 1146.649)" fill="#c4c4c4" fill-rule="evenodd"/>
    <path id="패스_2543" data-name="패스 2543" d="M195.023,37.376a33.85,33.85,0,0,0-32.41,24.1,8.941,8.941,0,0,1,5.734-1.661c2.9,0,5.356.912,6.167,2.169h.565c.811-1.257,3.266-2.169,6.168-2.169,2.63,0,4.893.749,5.9,1.825,1.344-1.076,4.365-1.825,7.88-1.825,3.315,0,6.194.667,7.637,1.644.945-1.141,3.274-1.947,6-1.947,3.13,0,5.74,1.061,6.325,2.472h.247c.589-1.411,3.2-2.472,6.329-2.472,2.548,0,4.753.7,5.8,1.729A33.845,33.845,0,0,0,195.023,37.376Z" transform="translate(1057.854 1136.622)" fill="#c4c4c4" fill-rule="evenodd"/>
    <path id="패스_2544" data-name="패스 2544" d="M192.882,37.376c-9.546,0-17.6,10.4-20.072,24.6h.128c.811-1.257,3.266-2.169,6.168-2.169,2.63,0,4.893.749,5.9,1.825,1.344-1.076,4.365-1.825,7.88-1.825,3.315,0,6.194.667,7.637,1.644.945-1.141,3.274-1.947,6-1.947,3.13,0,5.74,1.061,6.325,2.472h.111C210.482,47.78,202.43,37.376,192.882,37.376Z" transform="translate(1059.995 1136.622)" fill="#c4c4c4" fill-rule="evenodd"/>
    <path id="패스_2545" data-name="패스 2545" d="M190.709,37.376c-3.557,0-6.566,10.12-7.546,24.02,1.471-.946,4.3-1.585,7.546-1.585s6.077.639,7.549,1.585C197.278,47.5,194.27,37.376,190.709,37.376Z" transform="translate(1062.168 1136.622)" fill="#c4c4c4" fill-rule="evenodd"/>
    <path id="패스_2546" data-name="패스 2546" d="M209.612,61.981c.589-1.411,3.2-2.472,6.329-2.472,2.548,0,4.753.7,5.8,1.729A33.845,33.845,0,0,0,189.4,37.376c9.547,0,17.6,10.4,20.076,24.6Z" transform="translate(1063.478 1136.622)" fill="#c4c4c4" fill-rule="evenodd"/>
    <path id="패스_2751" data-name="패스 2751" d="M188.375,93.463l-1.446.4a.091.091,0,0,0-.04.15c.438.443.876.3,1.573-.4A.09.09,0,0,0,188.375,93.463Z" transform="translate(1062.945 1148.395)" fill="#c4c4c4"/>
    <path id="패스_2752" data-name="패스 2752" d="M188.379,92.247c.034-.038-.234-.371-.278-.455l-.006-.01c-.941-1.23-1.885-2.461-2.874-3.752a.079.079,0,0,0-.139.031,1.382,1.382,0,0,0,.246,1.4C186.193,90.3,187.486,91.437,188.379,92.247Z" transform="translate(1062.556 1147.249)" fill="#c4c4c4"/>
    <path id="패스_2753" data-name="패스 2753" d="M187.993,92.927l-2.192.045a.07.07,0,0,0-.052.114c.488.6,1.3.57,2.282-.031A.069.069,0,0,0,187.993,92.927Z" transform="translate(1062.708 1148.283)" fill="#c4c4c4"/>
    <path id="패스_2754" data-name="패스 2754" d="M188.328,92.561c0-.034-.195-.106-.322-.15l-.008,0-3.116-.673a.08.08,0,0,0-.09.111,1.069,1.069,0,0,0,.928.728C186.475,92.609,187.571,92.57,188.328,92.561Z" transform="translate(1062.509 1148.033)" fill="#c4c4c4"/>
    <path id="패스_2755" data-name="패스 2755" d="M185.26,91.23c.808.315,2.2.747,3.022,1.018a3.735,3.735,0,0,0-.5-.316l-3.037-1.92a.08.08,0,0,0-.122.075C184.679,90.68,184.864,91.075,185.26,91.23Z" transform="translate(1062.475 1147.668)" fill="#c4c4c4"/>
    <path id="패스_2756" data-name="패스 2756" d="M189.552,94.142a.06.06,0,0,0-.1-.042l-.53.575a.06.06,0,0,0,.039.1C189.4,94.813,189.535,94.664,189.552,94.142Z" transform="translate(1063.374 1148.525)" fill="#c4c4c4"/>
    <path id="패스_2757" data-name="패스 2757" d="M190.058,94.212a.054.054,0,0,0-.1-.018c-.121.2-.235.4-.359.61a.054.054,0,0,0,.053.081C190.051,94.835,190.143,94.678,190.058,94.212Z" transform="translate(1063.519 1148.543)" fill="#c4c4c4"/>
    <path id="패스_2758" data-name="패스 2758" d="M191.867,94.615a7.015,7.015,0,0,1-1.457-1.413,14.269,14.269,0,0,1-3.626-6.517.055.055,0,0,0-.1-.008,3.131,3.131,0,0,0-.029,2.413,12.492,12.492,0,0,0,1.027,1.9,13.843,13.843,0,0,0,4.254,3.907l.058-.185Z" transform="translate(1062.854 1146.964)" fill="#c4c4c4"/>
    <path id="패스_2759" data-name="패스 2759" d="M188.835,93.91l-.935.491a.076.076,0,0,0,0,.137c.456.209.65.116,1.031-.52A.076.076,0,0,0,188.835,93.91Z" transform="translate(1063.154 1148.487)" fill="#c4c4c4"/>
    <path id="패스_2760" data-name="패스 2760" d="M194.1,86.444c-.01-.01-.046.008-.092.04s-.121.091-.18.14l-.071.059c-.964.855-.975,2.183-1.468,3.29l.359-3.59a.088.088,0,0,0-.151-.069c-1.039,1.107-.841,2.587-1.182,3.92q-.078-1.815-.154-3.629a.088.088,0,0,0-.157-.051c-1.068,1.339-.468,2.9-.6,4.388-.2-.9-.393-1.793-.6-2.727a.1.1,0,0,0-.179-.029,2.349,2.349,0,0,0-.235,1.7c.132.633.41,1.609.566,2.237a2.425,2.425,0,0,1-.185-.323c-.25-.532-.566-1.217-.83-1.78a.069.069,0,0,0-.129.017,3.5,3.5,0,0,0,.057,1.359,6.616,6.616,0,0,0,1.041,1.883,7.015,7.015,0,0,0,1.457,1.413l.123.094v0l2.607-8.322Z" transform="translate(1063.347 1146.89)" fill="#c4c4c4"/>
  </g>
</svg>
