<svg xmlns="http://www.w3.org/2000/svg" width="64.746" height="75.824" viewBox="0 0 64.746 75.824">
  <g id="그룹_432" data-name="그룹 432" transform="translate(-1516.592 -1283.923)">
    <path id="패스_2547" data-name="패스 2547" d="M431.712,147.6a.727.727,0,1,1,1.4-.375L439.7,171.8l6.586-24.581a.728.728,0,1,1,1.407.375l-6.221,23.221,16.671-23.824a.726.726,0,1,1,1.189.832l-15.685,22.414,27.038-23.379a.727.727,0,1,1,.953,1.1c-9.97,8.619-22.178,18.179-31.434,27.181a.737.737,0,0,1-.249.156l-.015,0a.63.63,0,0,1-.2.041.477.477,0,0,1-.083,0,.682.682,0,0,1-.2-.041l-.013,0a.714.714,0,0,1-.249-.156c-9.256-9-21.465-18.561-31.432-27.181a.726.726,0,1,1,.95-1.1l27.043,23.379-15.69-22.414a.727.727,0,0,1,1.192-.832l16.674,23.824Z" transform="translate(1109.263 1159.566)" fill="#d8d8d8" fill-rule="evenodd"/>
    <path id="패스_2548" data-name="패스 2548" d="M419.852,166.127l41.418.332-4.685,29.64H425.029Z" transform="translate(1111.853 1163.648)" fill="#c4c4c4" fill-rule="evenodd"/>
    <path id="패스_2549" data-name="패스 2549" d="M418.516,166.126H462.36l-.587,5.8h-42.3Z" transform="translate(1111.572 1163.648)" fill="#c4c4c4" fill-rule="evenodd"/>
    <path id="패스_2550" data-name="패스 2550" d="M415.725,166.127l41.423.332-37.453,5.281,36.22,2.339-3.458,22.02H420.9Z" transform="translate(1110.986 1163.648)" fill="#c4c4c4" fill-rule="evenodd"/>
    <path id="패스_2551" data-name="패스 2551" d="M414.632,166.126h43.845l-.591,5.8h-42.3Z" transform="translate(1110.757 1163.648)" fill="#c4c4c4" fill-rule="evenodd"/>
    <path id="패스_2552" data-name="패스 2552" d="M430.475,165.642h5.505v9.034l-.21-.211-.61.612-.615-.612-.612.612-.612-.612-.612.612-.61-.612-.613.612-.61-.612-.4.4v-9.222Zm1.01,9.51.038.038h-.076l.039-.038Zm1.223,0,.037.038h-.075l.038-.038Zm1.224,0,.038.038H433.9l.035-.038Zm1.227,0,.038.038h-.076Z" transform="translate(1114.082 1163.547)" fill="#c4c4c4" fill-rule="evenodd"/>
    <path id="패스_2553" data-name="패스 2553" d="M434.724,174.562c4.586-.2,8.466,3.056,8.669,7.275s-3.353,7.794-7.938,7.994-8.465-3.056-8.668-7.273S430.14,174.762,434.724,174.562Z" transform="translate(1113.307 1165.417)" fill="#fff" fill-rule="evenodd"/>
    <path id="패스_2557" data-name="패스 2557" d="M440.493,174.737a.152.152,0,1,1,0-.3h9.116a.152.152,0,1,1,0,.3Z" transform="translate(1116.152 1165.392)" fill="#c4c4c4" fill-rule="evenodd"/>
    <path id="패스_2558" data-name="패스 2558" d="M440.493,176.306a.153.153,0,1,1,0-.306h9.116a.153.153,0,0,1,0,.306Z" transform="translate(1116.152 1165.721)" fill="#c4c4c4" fill-rule="evenodd"/>
    <path id="패스_2559" data-name="패스 2559" d="M439.767,128.23a33.84,33.84,0,0,0-32.405,24.1,8.917,8.917,0,0,1,5.734-1.664c2.9,0,5.353.913,6.166,2.172h.563c.813-1.258,3.267-2.172,6.173-2.172,2.627,0,4.888.751,5.892,1.826,1.343-1.074,4.365-1.826,7.878-1.826,3.321,0,6.2.668,7.637,1.646.945-1.14,3.278-1.947,6-1.947,3.134,0,5.741,1.064,6.329,2.473h.249c.586-1.41,3.2-2.473,6.327-2.473,2.548,0,4.752.7,5.8,1.728A33.845,33.845,0,0,0,439.767,128.23Z" transform="translate(1109.23 1155.693)" fill="#c4c4c4" fill-rule="evenodd"/>
    <path id="패스_2560" data-name="패스 2560" d="M437.627,128.23c-9.543,0-17.595,10.4-20.069,24.606h.126c.813-1.258,3.267-2.172,6.173-2.172,2.627,0,4.888.751,5.892,1.826,1.343-1.074,4.365-1.826,7.878-1.826,3.321,0,6.2.668,7.637,1.646.945-1.14,3.278-1.947,6-1.947,3.134,0,5.741,1.064,6.329,2.473h.111C455.23,138.634,447.179,128.23,437.627,128.23Z" transform="translate(1111.371 1155.693)" fill="#c4c4c4" fill-rule="evenodd"/>
    <path id="패스_2561" data-name="패스 2561" d="M435.454,128.23c-3.552,0-6.561,10.121-7.545,24.022,1.474-.946,4.3-1.587,7.545-1.587s6.08.641,7.549,1.587C442.024,138.351,439.016,128.23,435.454,128.23Z" transform="translate(1113.544 1155.693)" fill="#c4c4c4" fill-rule="evenodd"/>
    <path id="패스_2562" data-name="패스 2562" d="M454.361,152.836c.586-1.41,3.2-2.473,6.327-2.473,2.548,0,4.752.7,5.8,1.728a33.845,33.845,0,0,0-32.341-23.861c9.552,0,17.6,10.4,20.078,24.606Z" transform="translate(1114.853 1155.693)" fill="#c4c4c4" fill-rule="evenodd"/>
    <path id="패스_2563" data-name="패스 2563" d="M433.51,177.173c-1.038.1-2.489.353-3.066,1.259s-.989,1.708-.989,1.708l1.56,1.48.989-.111.054,5.022,6.128-.248-.263-5.244.691.589,1.908-1.956a18.644,18.644,0,0,0-2.379-2.4,4.87,4.87,0,0,0-1.745-.16C434.55,179.128,435.225,178.549,433.51,177.173Z" transform="translate(1113.868 1165.955)" fill="#c4c4c4" fill-rule="evenodd"/>
  </g>
</svg>
