<svg xmlns="http://www.w3.org/2000/svg" width="522.398" height="436.844" viewBox="0 0 522.398 436.844">
  <g id="그룹_434" data-name="그룹 434" transform="translate(-1065 -1253.168)">
    <path id="패스_2408" data-name="패스 2408" d="M295.316,428.517c144.258,0,261.2,9.575,261.2,21.383s-116.942,21.384-261.2,21.384-261.2-9.573-261.2-21.384S151.06,428.517,295.316,428.517Z" transform="translate(1030.882 1218.728)" fill="#ebebeb" fill-rule="evenodd"/>
    <path id="패스_2409" data-name="패스 2409" d="M205.771,271.117h68.051V196.065h69.315v80.226h49.148v85.394H429.3V486.6H175.524V372.05h33.192Z" transform="translate(1060.564 1169.933)" fill="#c1c2c2" fill-rule="evenodd"/>
    <path id="패스_2410" data-name="패스 2410" d="M396.777,349.437c-39.116-.189-20.19-.087-64.173-.34,1.825,36.8,1.051,18.4,2.35,56.153h0c-.367-4.267-4.7-52.918-4.474-56.988a.877.877,0,0,1,.629-.849c.558-.2,48.418-.369,65.668-.428Z" transform="translate(1093.09 1201.613)" fill="#c4c4c4" fill-rule="evenodd"/>
    <path id="패스_2411" data-name="패스 2411" d="M205.879,339.384c17.216.117,41.481.288,41.569.324l1.165,1.053c-.41,38.676-.059,19.34-1.053,58.008h0c-.985-38.306-.648-19.7-1.042-56.945q-28.483.256-56.965.43a1.469,1.469,0,0,1-.875-.288h17.275Z" transform="translate(1063.326 1200.017)" fill="#cccbd7" fill-rule="evenodd"/>
    <path id="패스_2412" data-name="패스 2412" d="M366.181,304.067c-39.114-.221-20.189-.1-64.17-.405,1.823,43.823,1.047,21.924,2.346,66.882h0c-.364-5.083-4.7-63.03-4.471-67.88a1.03,1.03,0,0,1,.628-1.008c.558-.236,48.418-.444,65.667-.511Z" transform="translate(1086.668 1191.99)" fill="#cccbd7" fill-rule="evenodd"/>
    <path id="패스_2413" data-name="패스 2413" d="M200.8,267.574c13.459-.594,32.06-.4,39.1-.358,11.746.071,23.87.1,35.568.639a24.34,24.34,0,0,1,3.521.3,24.068,24.068,0,0,1-3.521.288c-10.3.434-52.554.635-74.583,1.913Z" transform="translate(1065.87 1184.855)" fill="#d8d8d8" fill-rule="evenodd"/>
    <path id="패스_2414" data-name="패스 2414" d="M361.895,274.078c-12.369-.189-25.135-.307-37.375-.979a26.79,26.79,0,0,1-4.22-.455,26.942,26.942,0,0,1,4.22-.459c12.241-.671,25.006-.79,37.375-.978Z" transform="translate(1090.955 1185.706)" fill="#cccbd7" fill-rule="evenodd"/>
    <path id="패스_2415" data-name="패스 2415" d="M182.466,347.992a.318.318,0,1,1,0-.635H195.06a.318.318,0,0,1,0,.635Z" transform="translate(1061.955 1201.691)" fill="#dbdae6" fill-rule="evenodd"/>
    <path id="패스_2416" data-name="패스 2416" d="M182.466,350.936a.318.318,0,1,1,0-.635H195.06a.318.318,0,0,1,0,.635Z" transform="translate(1061.955 1202.309)" fill="#dbdae6" fill-rule="evenodd"/>
    <path id="패스_2417" data-name="패스 2417" d="M182.466,353.879a.318.318,0,1,1,0-.636H195.06a.318.318,0,0,1,0,.636Z" transform="translate(1061.955 1202.926)" fill="#dbdae6" fill-rule="evenodd"/>
    <path id="패스_2418" data-name="패스 2418" d="M182.466,356.825a.318.318,0,1,1,0-.636H195.06a.318.318,0,0,1,0,.636Z" transform="translate(1061.955 1203.545)" fill="#dbdae6" fill-rule="evenodd"/>
    <path id="패스_2419" data-name="패스 2419" d="M337.651,353.461a.319.319,0,1,1,0-.639h12.59a.319.319,0,0,1,0,.639Z" transform="translate(1094.53 1202.838)" fill="#dbdae6" fill-rule="evenodd"/>
    <path id="패스_2420" data-name="패스 2420" d="M337.651,356.4a.318.318,0,1,1,0-.635h12.59a.318.318,0,0,1,0,.635Z" transform="translate(1094.53 1203.457)" fill="#dbdae6" fill-rule="evenodd"/>
    <path id="패스_2421" data-name="패스 2421" d="M337.651,359.345a.317.317,0,1,1,0-.634h12.59a.317.317,0,1,1,0,.634Z" transform="translate(1094.53 1204.074)" fill="#dbdae6" fill-rule="evenodd"/>
    <path id="패스_2422" data-name="패스 2422" d="M337.651,362.293a.32.32,0,0,1,0-.64h12.59a.32.32,0,0,1,0,.64Z" transform="translate(1094.53 1204.692)" fill="#dbdae6" fill-rule="evenodd"/>
    <path id="패스_2423" data-name="패스 2423" d="M208.3,273.952a.318.318,0,1,1,0-.636H220.89a.318.318,0,1,1,0,.636Z" transform="translate(1067.378 1186.149)" fill="#dbdae6" fill-rule="evenodd"/>
    <path id="패스_2424" data-name="패스 2424" d="M208.3,276.894a.317.317,0,0,1-.318-.317.32.32,0,0,1,.318-.318H220.89a.321.321,0,0,1,.319.318.318.318,0,0,1-.319.317Z" transform="translate(1067.378 1186.767)" fill="#dbdae6" fill-rule="evenodd"/>
    <path id="패스_2425" data-name="패스 2425" d="M208.3,279.841a.319.319,0,0,1,0-.638H220.89a.319.319,0,1,1,0,.638Z" transform="translate(1067.378 1187.385)" fill="#dbdae6" fill-rule="evenodd"/>
    <path id="패스_2426" data-name="패스 2426" d="M208.3,282.783a.318.318,0,1,1,0-.635H220.89a.318.318,0,1,1,0,.635Z" transform="translate(1067.378 1188.003)" fill="#dbdae6" fill-rule="evenodd"/>
    <path id="패스_2427" data-name="패스 2427" d="M265.157,203.058a.318.318,0,1,1,0-.635H277.75a.318.318,0,1,1,0,.635Z" transform="translate(1079.313 1171.268)" fill="#dbdae6" fill-rule="evenodd"/>
    <path id="패스_2428" data-name="패스 2428" d="M265.157,206a.318.318,0,1,1,0-.635H277.75a.318.318,0,1,1,0,.635Z" transform="translate(1079.313 1171.886)" fill="#dbdae6" fill-rule="evenodd"/>
    <path id="패스_2429" data-name="패스 2429" d="M265.157,208.948a.319.319,0,1,1,0-.638H277.75a.319.319,0,0,1,0,.638Z" transform="translate(1079.313 1172.503)" fill="#dbdae6" fill-rule="evenodd"/>
    <path id="패스_2430" data-name="패스 2430" d="M265.157,211.89a.318.318,0,1,1,0-.636H277.75a.318.318,0,0,1,0,.636Z" transform="translate(1079.313 1173.121)" fill="#dbdae6" fill-rule="evenodd"/>
    <path id="패스_2431" data-name="패스 2431" d="M443.273,359.259v93.112H312.758l-2.289-67.165H347.1l-2.29-25.188C377.612,358.708,410.451,359.259,443.273,359.259Z" transform="translate(1088.892 1204.165)" fill="#d8d8d8" fill-rule="evenodd"/>
    <path id="패스_2432" data-name="패스 2432" d="M434.4,369.167c-51.369-.057-25.763.146-81.667-.721h0c55.891-1.862,30.272-1.2,81.667-2.168Z" transform="translate(1097.764 1205.663)" fill="#ebebeb" fill-rule="evenodd"/>
    <path id="패스_2433" data-name="패스 2433" d="M404.358,421.588a.318.318,0,0,1,0-.636h12.6a.318.318,0,0,1,0,.636Z" transform="translate(1108.533 1217.14)" fill="#fff" fill-rule="evenodd"/>
    <path id="패스_2434" data-name="패스 2434" d="M404.358,424.535a.319.319,0,0,1,0-.639h12.6a.319.319,0,0,1,0,.639Z" transform="translate(1108.533 1217.757)" fill="#fff" fill-rule="evenodd"/>
    <path id="패스_2435" data-name="패스 2435" d="M404.358,427.476a.318.318,0,0,1,0-.635h12.6a.318.318,0,0,1,0,.635Z" transform="translate(1108.533 1218.375)" fill="#fff" fill-rule="evenodd"/>
    <path id="패스_2436" data-name="패스 2436" d="M404.358,430.42a.318.318,0,0,1,0-.636h12.6a.318.318,0,0,1,0,.636Z" transform="translate(1108.533 1218.993)" fill="#fff" fill-rule="evenodd"/>
    <path id="패스_2437" data-name="패스 2437" d="M89.961,300.554h68.053V225.5h69.313v80.23h49.15v85.394h37.017v89.3H59.714V401.491H92.907Z" transform="translate(1036.255 1176.112)" fill="#d8d8d8" fill-rule="evenodd"/>
    <path id="패스_2438" data-name="패스 2438" d="M280.969,378.877c-39.115-.188-20.191-.087-64.173-.342,1.825,36.795,1.049,18.408,2.35,56.152h0c-.368-4.266-4.7-52.917-4.475-56.988a.869.869,0,0,1,.629-.846c.559-.2,48.418-.373,65.669-.427Z" transform="translate(1068.78 1207.793)" fill="#ebebeb" fill-rule="evenodd"/>
    <path id="패스_2439" data-name="패스 2439" d="M90.072,368.821c17.215.119,41.478.293,41.567.325l1.168,1.056c-.413,38.671-.062,19.336-1.055,58h0c-.981-38.3-.649-19.7-1.042-56.943q-28.483.254-56.963.428a1.5,1.5,0,0,1-.877-.284H90.145Z" transform="translate(1039.017 1206.196)" fill="#ebebeb" fill-rule="evenodd"/>
    <path id="패스_2440" data-name="패스 2440" d="M250.374,333.5c-39.116-.221-20.193-.1-64.174-.407,1.825,43.828,1.051,21.924,2.351,66.882h0c-.364-5.083-4.7-63.026-4.472-67.875a1.027,1.027,0,0,1,.629-1.008c.558-.241,48.417-.444,65.668-.512Z" transform="translate(1062.358 1198.17)" fill="#ebebeb" fill-rule="evenodd"/>
    <path id="패스_2441" data-name="패스 2441" d="M84.988,297.012c13.458-.6,32.059-.4,39.1-.355,11.746.07,23.868.1,35.567.635a24.341,24.341,0,0,1,3.522.3,24.3,24.3,0,0,1-3.523.283c-10.294.439-52.554.64-74.58,1.913Z" transform="translate(1041.561 1191.034)" fill="#ebebeb" fill-rule="evenodd"/>
    <path id="패스_2442" data-name="패스 2442" d="M246.087,303.52c-12.373-.19-25.137-.311-37.375-.984a26.091,26.091,0,0,1-4.221-.455,26.934,26.934,0,0,1,4.221-.459c12.238-.668,25-.789,37.375-.976Z" transform="translate(1066.646 1191.886)" fill="#ebebeb" fill-rule="evenodd"/>
    <path id="패스_2443" data-name="패스 2443" d="M66.657,377.429a.317.317,0,1,1,0-.634H79.25a.317.317,0,1,1,0,.634Z" transform="translate(1037.646 1207.87)" fill="#fff" fill-rule="evenodd"/>
    <path id="패스_2444" data-name="패스 2444" d="M66.657,380.373a.318.318,0,1,1,0-.635H79.25a.318.318,0,0,1,0,.635Z" transform="translate(1037.646 1208.488)" fill="#fff" fill-rule="evenodd"/>
    <path id="패스_2445" data-name="패스 2445" d="M66.657,383.319a.318.318,0,1,1,0-.635H79.25a.318.318,0,0,1,0,.635Z" transform="translate(1037.646 1209.106)" fill="#fff" fill-rule="evenodd"/>
    <path id="패스_2446" data-name="패스 2446" d="M66.657,386.262a.318.318,0,1,1,0-.635H79.25a.318.318,0,0,1,0,.635Z" transform="translate(1037.646 1209.724)" fill="#fff" fill-rule="evenodd"/>
    <path id="패스_2447" data-name="패스 2447" d="M221.842,382.9a.317.317,0,1,1,0-.634h12.592a.317.317,0,1,1,0,.634Z" transform="translate(1070.221 1209.018)" fill="#fff" fill-rule="evenodd"/>
    <path id="패스_2448" data-name="패스 2448" d="M221.842,385.839a.316.316,0,0,1-.321-.316.32.32,0,0,1,.321-.318h12.592a.319.319,0,0,1,.318.318.316.316,0,0,1-.318.316Z" transform="translate(1070.221 1209.636)" fill="#fff" fill-rule="evenodd"/>
    <path id="패스_2449" data-name="패스 2449" d="M221.842,388.786a.318.318,0,1,1,0-.635h12.592a.318.318,0,1,1,0,.635Z" transform="translate(1070.221 1210.254)" fill="#fff" fill-rule="evenodd"/>
    <path id="패스_2450" data-name="패스 2450" d="M221.842,391.729a.318.318,0,1,1,0-.635h12.592a.318.318,0,1,1,0,.635Z" transform="translate(1070.221 1210.872)" fill="#fff" fill-rule="evenodd"/>
    <path id="패스_2451" data-name="패스 2451" d="M137.341,287.714c-2.036,18.043,0,42.455,0,42.455s17.947,8.45,30.132-5.319c4.263-4.817,6.4-4.968,8.794-3.812,20.861,10.085,32.311-5.2,32.311-5.2s2.036-26-1.527-36.086S137.341,287.714,137.341,287.714Z" transform="translate(1052.359 1186.857)" fill="#586589" fill-rule="evenodd"/>
    <path id="패스_2452" data-name="패스 2452" d="M184.325,409.463c1.4,23.7.466,43.421,2.154,50.187,1.366,5.481,8.484,4.477,15.932,5.267,10.292,1.089,21.619,2.3,22.9-.886.2-.5,1.015-1.811.628-2.324-5.777-7.7-21.026-5.152-22.9-14.973-1.365-7.152-.351-18.409.359-31.458.1-1.909.206-3.854.3-5.814Z" transform="translate(1062.412 1214.728)" fill="#edcbaf" fill-rule="evenodd"/>
    <path id="패스_2453" data-name="패스 2453" d="M185.122,435.212c.154,8.88.336,15.608,1.189,19.033,1.287,5.155,7.883,6.431,14.807,7.12,12.175,1.211,26.578-1.781,23.585-5.769-5.776-7.7-19.954-4.446-21.828-14.267a38.479,38.479,0,0,1-.571-5.047Q194.173,435.778,185.122,435.212Z" transform="translate(1062.58 1220.133)" fill="#edcbaf" fill-rule="evenodd"/>
    <path id="패스_2454" data-name="패스 2454" d="M129.378,409.463c-4.7,20.736-9.932,37.185-10.088,43.616-.361,14.656,41.473,20.527,38.609,13.249-3.523-8.957-20.013-11.331-19.21-21.3.583-7.253,4.554-17.835,8.707-30.227.587-1.75,1.181-3.534,1.777-5.336Z" transform="translate(1048.76 1214.728)" fill="#edcbaf" fill-rule="evenodd"/>
    <path id="패스_2455" data-name="패스 2455" d="M118,446.828c.188-4.1,2.571-1.521,4.01-.195,3.266,3.014,10.878,7.17,14.261,7.737,2.782.471,6.089-6.969,9.849-6.586,2.822.286,11.893,6.656,13.073,10.576.849,2.825-1.774,5.724-4.309,6.046C147.055,465.4,117.657,454.448,118,446.828Z" transform="translate(1048.489 1222.104)" fill="#586589" fill-rule="evenodd"/>
    <path id="패스_2456" data-name="패스 2456" d="M186.476,451.968c.748.191.817.826,1.489,1.116,4.086,1.758,12.645,3.136,16.026,2.548,2.776-.488,3.419-8.6,7.093-9.493,2.755-.672,13.429,2.313,15.849,5.619,1.743,2.378.235,5.992-2.048,7.135-6.091,3.061-29.482,2.08-39.008-1.839C181.288,455.162,183.683,451.244,186.476,451.968Z" transform="translate(1062.197 1222.406)" fill="#586589" fill-rule="evenodd"/>
    <path id="패스_2457" data-name="패스 2457" d="M203.7,454.771a.371.371,0,0,1-.328-.4.367.367,0,0,1,.4-.329c2.5.259,6.054.41,9.382.41a51.835,51.835,0,0,0,7.51-.41.369.369,0,0,1,.423.3.363.363,0,0,1-.3.421,52.4,52.4,0,0,1-7.635.421C209.805,455.183,206.223,455.031,203.7,454.771Z" transform="translate(1066.41 1224.083)" fill="#505b7d" fill-rule="evenodd"/>
    <path id="패스_2458" data-name="패스 2458" d="M135.891,455.03a.366.366,0,1,1,.293-.671c2.058.894,5.043,1.978,7.873,2.872a45.99,45.99,0,0,0,6.5,1.666.369.369,0,0,1-.1.732,47.016,47.016,0,0,1-6.621-1.7C140.979,457.029,137.967,455.93,135.891,455.03Z" transform="translate(1052.198 1224.145)" fill="#505b7d" fill-rule="evenodd"/>
    <path id="패스_2459" data-name="패스 2459" d="M201.461,296.651c-.58-7.827-5.607-2.534-13.111-1.931s-21.423,6.02-20.844,13.846c13.051,55.067,17.754,97.583,19.435,161.074,5.079,1.024,14.141,1.164,19.709-1.126-.027-.117-.052-.231-.074-.353-1.365-7.458-.351-19.2.359-32.81C209.079,394.286,208.989,338.776,201.461,296.651Z" transform="translate(1058.878 1190.157)" fill="#586589" fill-rule="evenodd"/>
    <path id="패스_2460" data-name="패스 2460" d="M175.69,310.587c1.435-7.707-3.389-15.167-10.778-16.663s-22.185-.136-23.622,7.568c-3.26,52.142-5.7,99.245-20.078,160.144,5.02,2.438,11.558,4.6,17.211,3.184.912-7.5,7.351-21.049,11.263-33.219C162.21,392.623,168.081,350.97,175.69,310.587Z" transform="translate(1049.164 1190.362)" fill="#586589" fill-rule="evenodd"/>
    <path id="패스_2461" data-name="패스 2461" d="M194.541,256.622c16.984,12.023,56.29,17.936,58.961-6.678S194.541,256.622,194.541,256.622Z" transform="translate(1064.557 1179.261)" fill="#e3aa7f" fill-rule="evenodd"/>
    <path id="패스_2462" data-name="패스 2462" d="M137.568,278.923c-2.247,5.2-1.773,11.59-1.182,12.921,4.955,11.172,67.7,8.273,72.33-3.329,1.064-2.667-2.008-12.788-2.008-12.788Z" transform="translate(1052.246 1186.655)" fill="#023991" fill-rule="evenodd"/>
    <path id="패스_2463" data-name="패스 2463" d="M149.464,157.4c-10.63,18.112-12.177,16.029-18.376,18.593-.191.08,4.253,14.414,13.172,21.356,7.873,6.129,33.029,14.98,53.827,7.843,5.515-1.891-6.911-2.392,1.531-17.337,8.512-15.068,4.411-26.9-2.847-34.825,1.678-.294,3.341-.772,4.031-1.544,1.622-1.814-6.679-1.718-6.679-1.718s.287-.859-1.336-4.58c-1.451-3.33-1.754-.927-1.188,3.169a39.059,39.059,0,0,0-10.508-5.681C168.223,138.269,156.041,146.186,149.464,157.4Z" transform="translate(1051.236 1158.465)" fill="#5c474c" fill-rule="evenodd"/>
    <path id="패스_2464" data-name="패스 2464" d="M171.614,198.515c9.1,1.3,22.625,11.962,29.908,23.927l7.282,11.964L190.34,246.369S171.614,231.543,171.614,198.515Z" transform="translate(1059.744 1170.447)" fill="#0968b5" fill-rule="evenodd"/>
    <path id="패스_2465" data-name="패스 2465" d="M204.194,269.026c2.55,17.567,1.486,14.036,4.2,25.521,2.117,8.945-79.229,25.233-72.368-13.587,3.228-18.268-13.908-63.7,8.858-76.759,6.148-3.527,14.367-7.166,23.349-7.6C196.5,195.219,201.462,250.234,204.194,269.026Z" transform="translate(1051.607 1170.039)" fill="#4eb4ea" fill-rule="evenodd"/>
    <path id="패스_2466" data-name="패스 2466" d="M203.349,263.915c.468,3.4,1.365,8.085,2.56,13.51-17.292,7.266-46.793,14.831-66.771,5.556.57-2.592,1.065-5.112,1.469-7.516a41.235,41.235,0,0,0,.462-4.329c-4.241-5.146-1.988-17.227-1.988-17.227.236-4.9.7-9.725,1.276-14.213-.062-10.152.692-20.363,4.067-28.575a16.65,16.65,0,0,1,5.4-1.32c-.9,2.284-2.717,6.6-4.513,11.933-.277,8.484.835,23.1,16.652,24.112a93.684,93.684,0,0,0,36.67-5.2,56.435,56.435,0,0,1,1.6,6.426,9.4,9.4,0,0,1,.717-.783C202.042,253.337,202.754,259.609,203.349,263.915Z" transform="translate(1052.789 1172.816)" fill="#4eb4ea" fill-rule="evenodd"/>
    <path id="패스_2467" data-name="패스 2467" d="M154.2,176.986s-.512,8.38-.927,16.858c-1.279,26.1,24.149,23.454,22.409,10.335-.806-6.076-2.065-15.448-2.14-15.6C170.575,182.848,155.8,178.794,154.2,176.986Z" transform="translate(1055.884 1165.928)" fill="#edcbaf" fill-rule="evenodd"/>
    <path id="패스_2468" data-name="패스 2468" d="M154.158,176.986s-.373,6.116-.74,13.182c3.372,6.767,8.831,11.856,16.863,12.236a12.426,12.426,0,0,0,5.025-.747c-.779-5.846-1.739-12.947-1.805-13.076C170.535,182.848,155.763,178.794,154.158,176.986Z" transform="translate(1055.925 1165.928)" fill="#d89282" fill-rule="evenodd"/>
    <path id="패스_2469" data-name="패스 2469" d="M153.023,166.168s-7-5.211-6.615,3.81S157.869,178.379,153.023,166.168Z" transform="translate(1054.45 1163.343)" fill="#edcbaf" fill-rule="evenodd"/>
    <path id="패스_2470" data-name="패스 2470" d="M190.466,163.617s1.958,39.811-17.849,38.872-23.982-30.513-19.745-43.283S186.376,158.139,190.466,163.617Z" transform="translate(1055.495 1160.988)" fill="#edcbaf" fill-rule="evenodd"/>
    <path id="패스_2471" data-name="패스 2471" d="M190.458,163.594s.121,2.491,0,6.213a8.251,8.251,0,0,1-5.712-4.831s-2.728,1.216-12.221,3.443c-8.687,2.04-15.956,2.635-21.114-.3.053-1.3.161-2.553.319-3.746A27.4,27.4,0,0,1,166,153.563C175.887,154.493,187.941,160.222,190.458,163.594Z" transform="translate(1055.502 1161.011)" fill="#d89282" fill-rule="evenodd"/>
    <path id="패스_2472" data-name="패스 2472" d="M182.147,168.288c-.036-3.989-4.835-3.908-6.405-2.16C174.077,167.982,179.8,167.531,182.147,168.288Z" transform="translate(1060.548 1163.409)" fill="#5c474c" fill-rule="evenodd"/>
    <path id="패스_2473" data-name="패스 2473" d="M168.425,178.981c.449.438,6.842.8,5.908,1.546C169.4,184.478,168.37,178.957,168.425,178.981Z" transform="translate(1059.074 1166.347)" fill="#d89282" fill-rule="evenodd"/>
    <path id="패스_2474" data-name="패스 2474" d="M171.447,186.959c-6.081,0-7.541-6-7.556-6.069a.624.624,0,0,1,1.216-.282,6.6,6.6,0,0,0,7.661,5,.624.624,0,1,1,.18,1.235A10.366,10.366,0,0,1,171.447,186.959Z" transform="translate(1058.119 1166.587)" fill="#5c474c"/>
    <path id="패스_2475" data-name="패스 2475" d="M160.008,173.207a3.367,3.367,0,1,1-2.634,3.97A3.37,3.37,0,0,1,160.008,173.207Z" transform="translate(1056.741 1165.121)" fill="#da8d73" fill-rule="evenodd"/>
    <path id="패스_2476" data-name="패스 2476" d="M177.84,176.132A3.367,3.367,0,1,1,175.2,180.1,3.367,3.367,0,0,1,177.84,176.132Z" transform="translate(1060.483 1165.734)" fill="#da8d73" fill-rule="evenodd"/>
    <path id="패스_2477" data-name="패스 2477" d="M161.748,164.931c1.118-1.675,8.167-2.745,8.553,1.066C170.357,166.541,162.034,165.881,161.748,164.931Z" transform="translate(1057.673 1163.078)" fill="#5c474c" fill-rule="evenodd"/>
    <path id="패스_2478" data-name="패스 2478" d="M166.729,168.421a2.391,2.391,0,1,0,1.7,2.5A2.158,2.158,0,0,0,166.729,168.421Z" transform="translate(1058.276 1164.129)" fill="#5c474c" fill-rule="evenodd"/>
    <path id="패스_2479" data-name="패스 2479" d="M178.821,170.256a2.391,2.391,0,1,0,1.7,2.494A2.159,2.159,0,0,0,178.821,170.256Z" transform="translate(1060.814 1164.514)" fill="#5c474c" fill-rule="evenodd"/>
    <path id="패스_2480" data-name="패스 2480" d="M186.461,161.526c3.964-4.323.8-11.412-5.143-14.233-9.286-4.41-35.826,5.7-32.02,19.939C151.527,175.581,182.229,166.141,186.461,161.526Z" transform="translate(1054.981 1159.476)" fill="#5c474c" fill-rule="evenodd"/>
    <path id="패스_2481" data-name="패스 2481" d="M187.274,168.874c-4.39-.328-10.114-10.87-7.095-13.486C185.193,151.04,195.042,169.456,187.274,168.874Z" transform="translate(1061.365 1161.255)" fill="#5c474c" fill-rule="evenodd"/>
    <path id="패스_2482" data-name="패스 2482" d="M186.046,154.944a.367.367,0,1,1,.391.622,68.761,68.761,0,0,1-36.6,9.29.367.367,0,1,1,.027-.733A67.984,67.984,0,0,0,186.046,154.944Z" transform="translate(1055.098 1161.289)" fill="#816560" fill-rule="evenodd"/>
    <path id="패스_2483" data-name="패스 2483" d="M185.679,152.476a.368.368,0,1,1-.169.716c-3.333-.795-10.691-.955-18.915,1.289a46.794,46.794,0,0,0-17.055,8.527.368.368,0,1,1-.46-.575,47.616,47.616,0,0,1,17.32-8.663C174.76,151.493,182.268,151.661,185.679,152.476Z" transform="translate(1054.984 1160.667)" fill="#816560" fill-rule="evenodd"/>
    <path id="패스_2484" data-name="패스 2484" d="M181.193,155.4a.368.368,0,1,1,.7-.226c.007.021,2.284,7.08,5.558,10.313a.368.368,0,0,1,0,.519.364.364,0,0,1-.519,0C183.532,162.647,181.2,155.42,181.193,155.4Z" transform="translate(1061.751 1161.295)" fill="#816560" fill-rule="evenodd"/>
    <path id="패스_2485" data-name="패스 2485" d="M182.365,152.581a.367.367,0,1,1,.425-.6c.019.011,5.933,4.146,7,13.48a.368.368,0,0,1-.732.081C188.031,156.541,182.379,152.593,182.365,152.581Z" transform="translate(1061.969 1160.665)" fill="#816560" fill-rule="evenodd"/>
    <path id="패스_2486" data-name="패스 2486" d="M187.124,150.447a.368.368,0,0,1-.369.638c-.069-.041-23.533-14.045-38.227,10.84a.368.368,0,0,1-.634-.375C162.963,136.03,187.054,150.407,187.124,150.447Z" transform="translate(1054.754 1159.502)" fill="#816560" fill-rule="evenodd"/>
    <path id="패스_2487" data-name="패스 2487" d="M149.291,166.664c-1.016.59-1.781,2.047-1.22,4.221a6.258,6.258,0,0,0,1.56,3.043s-.091-2.371.8-2.5a3.149,3.149,0,0,1,1.635.229S151.85,167.019,149.291,166.664Z" transform="translate(1054.762 1163.761)" fill="#e0a380" fill-rule="evenodd"/>
    <path id="패스_2488" data-name="패스 2488" d="M149.649,173.349a.313.313,0,0,1-.3-.246,2.279,2.279,0,0,1,.434-1.771,1.557,1.557,0,0,1,1.7-.34,11.19,11.19,0,0,0-.887-3.032c-.454-.759-1-.959-1.687-.612a.312.312,0,1,1-.283-.555,1.779,1.779,0,0,1,2.5.847,13.951,13.951,0,0,1,1.059,3.788.313.313,0,0,1-.449.324c-.011,0-1.087-.52-1.47-.035a1.645,1.645,0,0,0-.315,1.253.312.312,0,0,1-.238.371A.426.426,0,0,1,149.649,173.349Z" transform="translate(1054.883 1163.739)" fill="#5c474c"/>
    <path id="패스_2489" data-name="패스 2489" d="M172.79,176.387c-.394.044-.97,1.988-.917,2.472a.813.813,0,0,0,.809.8C173.874,179.532,173.067,176.357,172.79,176.387Z" transform="translate(1059.798 1165.802)" fill="#fff" fill-rule="evenodd"/>
    <path id="패스_2490" data-name="패스 2490" d="M151.679,199.988a.368.368,0,1,1,.736-.015,30.133,30.133,0,0,0,1.368,8.947,11.1,11.1,0,0,0,2.789,4.679,5.332,5.332,0,0,0,3.794,1.485,6.5,6.5,0,0,0,1.965-.368c5.515-1.88,5.867-4.132,5.867-4.137a.37.37,0,0,1,.427-.3.366.366,0,0,1,.211.119h0c.015.016,5,5.746,9.28,3.053s-1.29-13.8-1.3-13.831a.368.368,0,0,1,.659-.325c.017.034,5.872,11.739,1.036,14.778-4.042,2.541-8.486-1.411-9.822-2.761-.483.907-1.919,2.667-6.119,4.1a7.327,7.327,0,0,1-2.189.407,6.033,6.033,0,0,1-4.3-1.678,11.823,11.823,0,0,1-2.99-4.984A30.978,30.978,0,0,1,151.679,199.988Z" transform="translate(1055.56 1170.568)" fill="#000075" fill-rule="evenodd"/>
    <path id="패스_2491" data-name="패스 2491" d="M162.344,233.7l-1.093-12.654,9.1,4.9.912,11.993Z" transform="translate(1057.568 1175.176)" fill="#b27923" fill-rule="evenodd"/>
    <path id="패스_2492" data-name="패스 2492" d="M223.448,209.956,156.071,220l25.43,13.714L253.338,220.6Z" transform="translate(1056.482 1172.849)" fill="#e6b15b" fill-rule="evenodd"/>
    <path id="패스_2493" data-name="패스 2493" d="M240.126,215.868l-11.209-3.991-67.662,11.092,9.088,4.9Z" transform="translate(1057.57 1173.252)" fill="#cd984b" fill-rule="evenodd"/>
    <path id="패스_2494" data-name="패스 2494" d="M193.867,212.919l-11.4,1.7,21.354,13.348,11.4-2.061Z" transform="translate(1062.022 1173.471)" fill="#c78d33" fill-rule="evenodd"/>
    <path id="패스_2495" data-name="패스 2495" d="M248.936,218.752,177.06,231.828l4.055,45.249,72.34-15.088Z" transform="translate(1060.888 1174.695)" fill="#e9b864" fill-rule="evenodd"/>
    <path id="패스_2496" data-name="패스 2496" d="M212.779,237.362l-1.268-13.71-11.4,2.053,1.47,14.084Z" transform="translate(1065.727 1175.724)" fill="#c78d33" fill-rule="evenodd"/>
    <path id="패스_2497" data-name="패스 2497" d="M227.163,222.75a7.87,7.87,0,0,1,8.357,8.089,9.183,9.183,0,0,1-8.64,8.894,7.868,7.868,0,0,1-8.357-8.09A9.183,9.183,0,0,1,227.163,222.75Z" transform="translate(1069.591 1175.532)" fill="#fff" fill-rule="evenodd"/>
    <path id="패스_2498" data-name="패스 2498" d="M213.754,248.787a.256.256,0,0,1-.319-.258.4.4,0,0,1,.319-.378l18.953-3.578a.253.253,0,0,1,.317.258.4.4,0,0,1-.317.377Z" transform="translate(1068.523 1180.114)" fill="#c78d33" fill-rule="evenodd"/>
    <path id="패스_2499" data-name="패스 2499" d="M213.754,252.046a.258.258,0,0,1-.319-.255.4.4,0,0,1,.319-.381l18.953-3.576a.256.256,0,0,1,.317.259.4.4,0,0,1-.317.376Z" transform="translate(1068.523 1180.798)" fill="#c78d33" fill-rule="evenodd"/>
    <path id="패스_2500" data-name="패스 2500" d="M213.754,255.305a.258.258,0,0,1-.319-.259.4.4,0,0,1,.319-.376l18.953-3.579a.257.257,0,0,1,.317.259.4.4,0,0,1-.317.38Z" transform="translate(1068.523 1181.482)" fill="#c78d33" fill-rule="evenodd"/>
    <path id="패스_2501" data-name="패스 2501" d="M134.461,222.9c-10.829,16.616-15.959,42.324,5.7,55.557,28.087,17.165,80.7-6.037,84.262-11.57,3.779-5.878,5.4-18.86-.744-20.264-2.743-.628-10.284,2.771-12.779,4.266-4.55,2.733.26-7.151-3.251-8.059s-8.713,13.522-8.713,13.522S160.967,267.8,148.222,258.7c-4.008-2.866-3.339-11.687-2.945-18.024a78.37,78.37,0,0,1,3.14-16.647C149.173,221.418,145.2,206.434,134.461,222.9Z" transform="translate(1049.986 1173.968)" fill="#edcbaf" fill-rule="evenodd"/>
    <path id="패스_2502" data-name="패스 2502" d="M202.283,248.858a.369.369,0,0,1-.293-.676c7.3-3.2,8.146-4.842,8.148-4.847a.368.368,0,1,1,.642.358S209.811,245.555,202.283,248.858Z" transform="translate(1066.074 1179.816)" fill="#df9e73" fill-rule="evenodd"/>
    <path id="패스_2503" data-name="패스 2503" d="M203.2,252.618a.367.367,0,1,1-.293-.673c7.3-3.2,8.146-4.846,8.149-4.848a.367.367,0,1,1,.641.357S210.725,249.316,203.2,252.618Z" transform="translate(1066.266 1180.605)" fill="#df9e73" fill-rule="evenodd"/>
    <path id="패스_2504" data-name="패스 2504" d="M203.036,257.24a.367.367,0,1,1-.294-.673c7.3-3.2,8.146-4.846,8.148-4.849a.368.368,0,1,1,.644.358S210.563,253.938,203.036,257.24Z" transform="translate(1066.232 1181.575)" fill="#df9e73" fill-rule="evenodd"/>
    <path id="패스_2505" data-name="패스 2505" d="M131,245.8c2.577,16.405,11.463,24.809,27.838,27.022,14.9,2.016,31.091-1.751,45.351-5.91a15.152,15.152,0,0,1,3.2-.817,10.571,10.571,0,0,1-2.955,1.492c-13.74,5.88-34.63,10.121-49.412,7.514-16.405-2.893-24.931-12.581-27.812-28.757Z" transform="translate(1050.423 1180.374)" fill="#e7b895" fill-rule="evenodd"/>
    <path id="패스_2506" data-name="패스 2506" d="M127.231,234.988a.368.368,0,1,1-.736,0c0-3.994,1.777-9.612,4.745-14.844,2.618-4.616,6.168-8.945,10.246-11.6a.367.367,0,1,1,.4.616c-3.971,2.589-7.44,6.824-10.007,11.35C128.974,225.632,127.231,231.109,127.231,234.988Z" transform="translate(1050.273 1172.54)" fill="#de9c53" fill-rule="evenodd"/>
    <path id="패스_2507" data-name="패스 2507" d="M123.044,251.125l24.186,1.562c.644-11.771,1.468-19.3,3.337-25.538,1.4-4.661-3.88-24.085-8.06-21.385C133.343,211.68,124.178,224.329,123.044,251.125Z" transform="translate(1049.549 1171.915)" fill="#0968b5" fill-rule="evenodd"/>
    <path id="패스_2508" data-name="패스 2508" d="M239.42,237.593c-4.163-1.526-7.282,2.134-5.463,12.5a13.7,13.7,0,0,0,2.27,5.942c.79,1.048,3.482.373,4.315.732,1.1.473.048,4.154.767,4.073,4.269-.491,5.812-14.154,4.217-21.274a29.156,29.156,0,0,1-2.425-5.429c-.53-2.121.057-4.215-.333-4.448-.941-.565-3.52.716-3.348,2.316C239.549,233.227,239.42,237.593,239.42,237.593Z" transform="translate(1072.72 1176.963)" fill="#edcbaf" fill-rule="evenodd"/>
    <path id="패스_2509" data-name="패스 2509" d="M233.706,240.989a.368.368,0,1,1-.129-.724,31.041,31.041,0,0,1,6.356.258.367.367,0,0,1-.1.728A30.565,30.565,0,0,0,233.706,240.989Z" transform="translate(1072.687 1179.189)" fill="#df9e73" fill-rule="evenodd"/>
    <path id="패스_2510" data-name="패스 2510" d="M234.081,245.179a.367.367,0,0,1-.128-.724,31.106,31.106,0,0,1,6.354.258.367.367,0,0,1-.094.728A30.956,30.956,0,0,0,234.081,245.179Z" transform="translate(1072.766 1180.069)" fill="#df9e73" fill-rule="evenodd"/>
    <path id="패스_2511" data-name="패스 2511" d="M234.351,249.639a.368.368,0,1,1-.129-.724,30.911,30.911,0,0,1,6.354.259.367.367,0,1,1-.1.727A30.907,30.907,0,0,0,234.351,249.639Z" transform="translate(1072.822 1181.005)" fill="#df9e73" fill-rule="evenodd"/>
    <path id="패스_2528" data-name="패스 2528" d="M138.064,310.672a.38.38,0,1,1-.411-.64c1.44-.923,2.612-1.654,3.584-2.26,4.431-2.766,4.5-2.809,4.894-5.362.508-3.295.887-8.1.888-8.115a.381.381,0,1,1,.76.058c0,.016-.382,4.85-.893,8.171-.446,2.9-.521,2.949-5.246,5.895C140.663,309.028,139.481,309.767,138.064,310.672Z" transform="translate(1052.578 1190.479)" fill="#434d6a" fill-rule="evenodd"/>
    <path id="패스_2529" data-name="패스 2529" d="M165.5,317.883a.382.382,0,1,1-.4-.65c.543-.333,1.1-.642,1.627-.938,2.448-1.37,4.361-2.438,5.584-6.726a55.5,55.5,0,0,0,1.512-12.617.381.381,0,0,1,.762,0,56.334,56.334,0,0,1-1.54,12.824c-1.312,4.59-3.343,5.725-5.949,7.185C166.6,317.237,166.074,317.531,165.5,317.883Z" transform="translate(1058.338 1191.03)" fill="#434d6a" fill-rule="evenodd"/>
    <path id="패스_2530" data-name="패스 2530" d="M167.59,295.482a.381.381,0,1,1,.762,0c0,3.879-.254,15.62-.254,15.654a.383.383,0,0,1-.388.373.379.379,0,0,1-.373-.387C167.337,311.088,167.59,299.49,167.59,295.482Z" transform="translate(1058.847 1190.721)" fill="#434d6a" fill-rule="evenodd"/>
    <path id="패스_2554" data-name="패스 2554" d="M418.639,172.766a.154.154,0,0,1-.151-.155.152.152,0,0,1,.151-.152h9.119a.153.153,0,0,1,.154.152.155.155,0,0,1-.154.155Z" transform="translate(1111.566 1164.978)" fill="#c4c4c4" fill-rule="evenodd"/>
    <path id="패스_2555" data-name="패스 2555" d="M418.639,174.333a.153.153,0,0,1,0-.306h9.119a.153.153,0,1,1,0,.306Z" transform="translate(1111.566 1165.307)" fill="#c4c4c4" fill-rule="evenodd"/>
    <path id="패스_2556" data-name="패스 2556" d="M418.639,175.9a.152.152,0,0,1,0-.3h9.119a.152.152,0,1,1,0,.3Z" transform="translate(1111.566 1165.636)" fill="#c4c4c4" fill-rule="evenodd"/>
    <path id="패스_2581" data-name="패스 2581" d="M340.17,424.476c.886,9.628,1.485,16.927.96,20.679-2.191,15.61-46.123,10.5-41.742,3.463,5.4-8.662,21.233-5.77,22.114-16.512a40.517,40.517,0,0,0,.027-5.5Q330.346,425.611,340.17,424.476Z" transform="translate(1086.501 1217.879)" fill="#e4b095" fill-rule="evenodd"/>
    <path id="패스_2582" data-name="패스 2582" d="M344.544,445.148c.836-4.325-2.368-2.374-4.24-1.437-4.256,2.132-13.441,4.113-17.2,3.665-3.089-.368-4.755-9.119-8.873-9.876-3.086-.572-14.4,3.266-16.646,6.978-1.62,2.678.454,6.5,3.084,7.612C308.792,455.528,342.994,453.178,344.544,445.148Z" transform="translate(1086.066 1220.601)" fill="#bf4b18" fill-rule="evenodd"/>
    <path id="패스_2583" data-name="패스 2583" d="M361.25,425.4c.094,9.666.234,16.991,1.139,20.669,3.756,15.307,49.562,7.089,44.488.529-6.246-8.074-24.319-4.9-26.283-15.494a40.274,40.274,0,0,1-.581-5.466Q371.133,425.532,361.25,425.4Z" transform="translate(1099.551 1218.073)" fill="#e4b095" fill-rule="evenodd"/>
    <path id="패스_2584" data-name="패스 2584" d="M360.013,446.848c-1.267-4.22,2.117-2.6,4.074-1.858,4.448,1.691,13.788,2.733,17.484,1.906,3.037-.68,3.81-9.552,7.829-10.726,3.015-.88,14.656,1.794,17.264,5.263,1.884,2.5.208,6.512-2.3,7.886C396.633,453.558,362.369,454.676,360.013,446.848Z" transform="translate(1099.233 1220.298)" fill="#bf4b18" fill-rule="evenodd"/>
    <path id="패스_2585" data-name="패스 2585" d="M361.5,263.3c-1.654,16.174.684,33.323-3.809,47.439-19.095,60.009-15.2,144.091-16.3,160.691-.2,2.973-8.484,4.07-13.337,4.247-5.794.212-11.945-.535-11.948-3.741-.022-22.357.248-156.512,10.109-211.073C336.985,201.25,361.5,263.3,361.5,263.3Z" transform="translate(1090.073 1178.103)" fill="#776554" fill-rule="evenodd"/>
    <path id="패스_2586" data-name="패스 2586" d="M384.44,261.153c.1,12.224-1.009,24.135.3,35.479,10.663,92.645,2.541,152.705,1.716,172.167-.2,4.808-6.108,4.772-12.132,5.256-5.976.479-11.809,1.522-12.3-2.938-2.219-20.029,6.91-94.665-12.806-154.77-6.572-20.029-1.116-40.174-.149-54.223C353.232,201.792,384.44,261.153,384.44,261.153Z" transform="translate(1096.355 1178.117)" fill="#776554" fill-rule="evenodd"/>
    <path id="패스_2587" data-name="패스 2587" d="M320.729,275.526c-3.774,6.242-1.953,9.752,3.641,12.744s28.219,6.634,43.17,4.941,22.76-6.63,24.577-11.05.782-6.376.782-6.376S336.59,287.363,320.729,275.526Z" transform="translate(1090.629 1186.613)" fill="#729fa3" fill-rule="evenodd"/>
    <path id="패스_2588" data-name="패스 2588" d="M357.782,180.039c-43.926-5.914-72.734,47.239-66.977,54.821.248.325,5.031-1.466,9.159-.838,4.679.713,8.8,3.8,9.618,3.439,1.758-.79,6.679-6.818,10.679-13.557,4.894-8.236,13.3-14.946,16.76-18.115C345.355,198.172,346.2,188.233,357.782,180.039Z" transform="translate(1084.61 1166.473)" fill="#82bbbf" fill-rule="evenodd"/>
    <path id="패스_2589" data-name="패스 2589" d="M359.074,179.036c27.568-1.561,49.413,14.043,59.3,44.214s-9.883,20.022-9.883,20.022c-12.969-1.85-10.632,1.929-13.52-8.063-1.765-6.094-7.059-18.093-17.182-28.9C370.07,198.073,369.99,188.1,359.074,179.036Z" transform="translate(1099.094 1166.336)" fill="#82bbbf" fill-rule="evenodd"/>
    <path id="패스_2590" data-name="패스 2590" d="M316.941,282.887c.761-14.272,4.368-29.094,5.89-42.434,1.226-10.726-1.8-24.733-.511-33.695.506-3.5,12.664-17.868,15.854-20.775,5.028-4.593,11.608-7.187,20.256-7.123,33.176.232,34.551,40.423,35.332,79.507.167,8.486.652,14.929,3.61,22.84,9.531,25.486-38.34,30.038-60.758,23.085C319.061,298.847,316.75,286.522,316.941,282.887Z" transform="translate(1090.248 1166.321)" fill="#82bbbf" fill-rule="evenodd"/>
    <path id="패스_2591" data-name="패스 2591" d="M345.423,166.787c-.348,2.855-1.556,9.724-2.213,14.674-2.065,15.487,20.843,18.468,24.045,1.966,1.331-6.858,1.712-12.352,3.089-17.852C372.069,158.693,346.077,164.093,345.423,166.787Z" transform="translate(1095.736 1162.828)" fill="#e4b095" fill-rule="evenodd"/>
    <path id="패스_2592" data-name="패스 2592" d="M344.7,169.894c-.185,1.516-.61,4.162-1.066,7.05,6.569,9.6,15.962,6.918,24.25,1.339.5-3.366.957-6.48,1.736-9.6C371.349,161.8,345.357,167.2,344.7,169.894Z" transform="translate(1095.854 1163.48)" fill="#d89282" fill-rule="evenodd"/>
    <path id="패스_2593" data-name="패스 2593" d="M343.795,137.009c-5.074.312-6.535,10.508.928,11.454C356.427,149.945,346.029,136.675,343.795,137.009Z" transform="translate(1094.997 1157.535)" fill="#5c474c" fill-rule="evenodd"/>
    <path id="패스_2594" data-name="패스 2594" d="M345.826,141.547s-14.475,36.856,6.506,42.791,32.451-30.618,31.567-37.7S361.52,128.659,345.826,141.547Z" transform="translate(1095.292 1157.232)" fill="#e4b095" fill-rule="evenodd"/>
    <path id="패스_2595" data-name="패스 2595" d="M346.016,139.544a19.192,19.192,0,0,0-1.422,3.348c8.2,6.5,23.4,4.788,31.121-.73l4.292,10.532a57.216,57.216,0,0,0,2.425-7.73C378.485,138.089,360.323,127.8,346.016,139.544Z" transform="translate(1096.055 1156.946)" fill="#d89282" fill-rule="evenodd"/>
    <path id="패스_2596" data-name="패스 2596" d="M341.422,145.325c-2.878-.232-5.119,2.288-5.005,5.632s2.541,6.243,5.423,6.475,5.119-2.288,5-5.631S344.3,145.558,341.422,145.325Z" transform="translate(1094.338 1159.279)" fill="#e4b095" fill-rule="evenodd"/>
    <path id="패스_2597" data-name="패스 2597" d="M348.524,145.773c4-.365,5.47.721,6.652,1.426,1.914,1.142.4-3.578-2.713-4C349.052,142.741,345.78,146.023,348.524,145.773Z" transform="translate(1096.665 1158.827)" fill="#5c474c" fill-rule="evenodd"/>
    <path id="패스_2598" data-name="패스 2598" d="M369.389,149.785c-3.555-1.891-5.327-1.457-6.691-1.264-2.2.312,1.024-3.451,4.053-2.632C370.074,146.785,371.817,151.08,369.389,149.785Z" transform="translate(1099.702 1159.376)" fill="#5c474c" fill-rule="evenodd"/>
    <path id="패스_2599" data-name="패스 2599" d="M349.276,163.291a.49.49,0,0,1,.891-.411c.012.022,3.379,7.544,11.222,2.086a.491.491,0,1,1,.56.807C353.137,171.9,349.287,163.315,349.276,163.291Z" transform="translate(1097.027 1162.907)" fill="#5c474c" fill-rule="evenodd"/>
    <path id="패스_2600" data-name="패스 2600" d="M366.271,156.995a3.59,3.59,0,1,1-3.841,3.316A3.585,3.585,0,0,1,366.271,156.995Z" transform="translate(1099.797 1161.729)" fill="#da8d73" fill-rule="evenodd"/>
    <path id="패스_2601" data-name="패스 2601" d="M347.814,153.46a3.589,3.589,0,1,0,3.319,3.843A3.584,3.584,0,0,0,347.814,153.46Z" transform="translate(1095.923 1160.987)" fill="#da8d73" fill-rule="evenodd"/>
    <path id="패스_2602" data-name="패스 2602" d="M377.43,153.025c-2.8-.212-5.875,2.064-6.87,5.082s.477,5.635,3.28,5.845,5.877-2.064,6.867-5.082S380.234,153.235,377.43,153.025Z" transform="translate(1101.44 1160.896)" fill="#e4b095" fill-rule="evenodd"/>
    <path id="패스_2603" data-name="패스 2603" d="M377.4,142.526c-1.255.692-13.916,9.229-28.9,2.047-13.259-6.352-8.93-17.034,1.16-21.14,14.584-5.933,41.43,4.474,35.158,12.1-.281.346,1.47.227,2.923,2.541,3.255,5.183-4.951,22.664-5.7,22.212-.8-.485-2.859-6.742-4.253-17.5C377.758,142.643,377.617,142.407,377.4,142.526Z" transform="translate(1095.132 1154.318)" fill="#5c474c" fill-rule="evenodd"/>
    <path id="패스_2604" data-name="패스 2604" d="M352.846,159.834c.451.438,6.843.8,5.909,1.546C353.822,165.331,352.792,159.812,352.846,159.834Z" transform="translate(1097.787 1162.328)" fill="#d89282" fill-rule="evenodd"/>
    <path id="패스_2605" data-name="패스 2605" d="M339.733,147.2c-1.021.592-1.783,2.048-1.223,4.223a6.269,6.269,0,0,0,1.563,3.043s-.094-2.37.8-2.5a3.174,3.174,0,0,1,1.635.227S342.288,147.55,339.733,147.2Z" transform="translate(1094.738 1159.674)" fill="#d89282" fill-rule="evenodd"/>
    <path id="패스_2606" data-name="패스 2606" d="M339.315,147.822a.258.258,0,0,1-.236-.46,1.708,1.708,0,0,1,1.364-.145,2.092,2.092,0,0,1,1.072.97,14.1,14.1,0,0,1,1.049,3.771.257.257,0,0,1-.219.294.277.277,0,0,1-.168-.034c-.125-.061-1.123-.514-1.517-.012a1.68,1.68,0,0,0-.325,1.3.258.258,0,1,1-.506.105,2.226,2.226,0,0,1,.42-1.723,1.572,1.572,0,0,1,1.733-.3,11.3,11.3,0,0,0-.912-3.135,1.563,1.563,0,0,0-.8-.75A1.215,1.215,0,0,0,339.315,147.822Z" transform="translate(1094.867 1159.662)" fill="#935b47" fill-rule="evenodd"/>
    <path id="패스_2607" data-name="패스 2607" d="M377.771,155.249c.675.964.756,2.607-.664,4.344a6.249,6.249,0,0,1-2.7,2.106s1.078-2.112.322-2.6a3.151,3.151,0,0,0-1.581-.479S375.3,154.5,377.771,155.249Z" transform="translate(1102.049 1161.346)" fill="#d89282" fill-rule="evenodd"/>
    <path id="패스_2608" data-name="패스 2608" d="M378.2,155.654a.267.267,0,0,1-.046.364.262.262,0,0,1-.365-.046,1.22,1.22,0,0,0-.815-.508,1.606,1.606,0,0,0-1.042.346,7.081,7.081,0,0,0-2.142,2.465c.513.069,1.281.29,1.446,1a2.228,2.228,0,0,1-.34,1.741.259.259,0,1,1-.416-.307,1.687,1.687,0,0,0,.25-1.318c-.151-.636-1.307-.626-1.4-.623a.254.254,0,0,1-.151-.044.258.258,0,0,1-.077-.358,14.1,14.1,0,0,1,2.532-2.98,2.1,2.1,0,0,1,1.383-.433A1.732,1.732,0,0,1,378.2,155.654Z" transform="translate(1102.031 1161.3)" fill="#935b47" fill-rule="evenodd"/>
    <path id="패스_2609" data-name="패스 2609" d="M350.634,148.509a2.392,2.392,0,1,0,1.7,2.495A2.159,2.159,0,0,0,350.634,148.509Z" transform="translate(1096.88 1159.949)" fill="#5c474c" fill-rule="evenodd"/>
    <path id="패스_2610" data-name="패스 2610" d="M364.652,151.1a2.392,2.392,0,1,0,1.03,2.841A2.164,2.164,0,0,0,364.652,151.1Z" transform="translate(1099.691 1160.475)" fill="#5c474c" fill-rule="evenodd"/>
    <path id="패스_2611" data-name="패스 2611" d="M350.914,167.681c.446.438,6.841.795,5.906,1.545C351.891,173.178,350.86,167.658,350.914,167.681Z" transform="translate(1097.381 1163.975)" fill="#d89282" fill-rule="evenodd"/>
    <path id="패스_2612" data-name="패스 2612" d="M355.87,155.761c-.485-.106-1.949,1.992-2.077,2.592a1.028,1.028,0,0,0,.65,1.28C355.919,159.951,356.215,155.833,355.87,155.761Z" transform="translate(1097.979 1161.472)" fill="#fff" fill-rule="evenodd"/>
    <path id="패스_2613" data-name="패스 2613" d="M325.143,237.48c-2.888,20.807-10.112,32.77-9.627,40.576,1.267,20.576,76.475,28.732,81.385-3.123,1.449-9.363-14.445-32.768-14.445-32.768Z" transform="translate(1089.946 1178.626)" fill="#82bbbf" fill-rule="evenodd"/>
    <path id="패스_2614" data-name="패스 2614" d="M340.588,179.95a.369.369,0,0,1,.726.135,5.739,5.739,0,0,0-.09,1.038,12.21,12.21,0,0,0,3.01,7.291,14.712,14.712,0,0,0,8.633,5.141,15.56,15.56,0,0,0,2.909.266,13.208,13.208,0,0,0,8.73-2.936,14.79,14.79,0,0,0,4.823-8.328c.04-.252.263-2.1.27-2.122.5-1.711.625,1.292.454,2.246a15.545,15.545,0,0,1-5.076,8.769,13.934,13.934,0,0,1-9.2,3.111,16.208,16.208,0,0,1-3.042-.283,15.427,15.427,0,0,1-9.067-5.4,12.965,12.965,0,0,1-3.183-7.758A6.567,6.567,0,0,1,340.588,179.95Z" transform="translate(1095.192 1166.487)" fill="#729fa3" fill-rule="evenodd"/>
    <path id="패스_2615" data-name="패스 2615" d="M299.716,446.365a.361.361,0,0,1-.236-.461.356.356,0,0,1,.455-.236,42.282,42.282,0,0,0,8.68,1.3,59.09,59.09,0,0,0,9.637-.144.372.372,0,0,1,.407.329.367.367,0,0,1-.328.4,60.1,60.1,0,0,1-9.763.144A42.489,42.489,0,0,1,299.716,446.365Z" transform="translate(1086.581 1222.324)" fill="#cc7c2e" fill-rule="evenodd"/>
    <path id="패스_2616" data-name="패스 2616" d="M381.362,445.7a.374.374,0,0,1-.315-.414.369.369,0,0,1,.414-.318,41.819,41.819,0,0,0,8.769-.22,59.472,59.472,0,0,0,9.471-1.808.368.368,0,0,1,.2.709,60.3,60.3,0,0,1-9.59,1.829A42.68,42.68,0,0,1,381.362,445.7Z" transform="translate(1103.706 1221.752)" fill="#cc7c2e" fill-rule="evenodd"/>
    <path id="패스_2617" data-name="패스 2617" d="M370.531,182.932a.369.369,0,0,1,0-.738c4.795,0,12.129,2.549,18.841,7.076,5.462,3.69,10.525,8.7,13.477,14.717a.366.366,0,1,1-.657.323c-2.888-5.891-7.86-10.8-13.234-14.429C382.367,185.434,375.195,182.932,370.531,182.932Z" transform="translate(1101.422 1167.021)" fill="#b2d5d6" fill-rule="evenodd"/>
    <path id="패스_2618" data-name="패스 2618" d="M316.785,198.121l86.09.688-9.737,80.522h-65.6Z" transform="translate(1090.217 1170.364)" fill="#c78d33" fill-rule="evenodd"/>
    <path id="패스_2619" data-name="패스 2619" d="M314.006,198.121h91.136l-1.224,12.059H315.993Z" transform="translate(1089.634 1170.364)" fill="#c78d33" fill-rule="evenodd"/>
    <path id="패스_2620" data-name="패스 2620" d="M308.2,198.121l86.1.688-77.846,10.975,75.289,4.863-7.184,64.684h-65.6Z" transform="translate(1088.416 1170.364)" fill="#e6b15b" fill-rule="evenodd"/>
    <path id="패스_2621" data-name="패스 2621" d="M380.238,248.635l-2.325,20.95H339.867c.632-1.566,1.5-8.178,2.665-10.2h7c.511-5.124,9.758-4.924,15.9-7,0,0-1.143-7.567.761-7.822s6.617,5.024,6.617,5.024A31.786,31.786,0,0,0,380.238,248.635Z" transform="translate(1095.063 1180.111)" fill="#d89b50" fill-rule="evenodd"/>
    <path id="패스_2622" data-name="패스 2622" d="M349.907,270.248H317.76l-3.825-28.856c7.189,3.892,9.793,5.1,11.908,4.661,2.417-.509,7.378-4.325,7.378-4.325s2.8-.384,3.178,3.816-.8,5.706,3.055,5.981C350.025,252.265,351.88,258.132,349.907,270.248Z" transform="translate(1089.619 1179.447)" fill="#d89b50" fill-rule="evenodd"/>
    <path id="패스_2623" data-name="패스 2623" d="M305.932,198.121h91.136l-1.224,12.059H307.919Z" transform="translate(1087.939 1170.364)" fill="#e9b864" fill-rule="evenodd"/>
    <path id="패스_2624" data-name="패스 2624" d="M338.861,197.112H350.31v18.781l-.442-.442-1.272,1.27-1.274-1.27-1.27,1.27-1.274-1.27-1.269,1.27-1.272-1.27-1.273,1.27-1.272-1.27-.832.829V197.112Zm2.1,19.765.075.077h-.154l.079-.077Zm2.544,0,.079.077h-.156l.077-.077Zm2.543,0,.077.077h-.154l.076-.077Zm2.544,0,.079.077h-.158Z" transform="translate(1094.852 1170.152)" fill="#f1d3a4" fill-rule="evenodd"/>
    <path id="패스_2625" data-name="패스 2625" d="M347.689,221.1c9.53-.414,17.6,6.353,18.022,15.118s-6.962,16.2-16.49,16.617-17.6-6.352-18.019-15.118S338.161,221.517,347.689,221.1Z" transform="translate(1093.24 1175.185)" fill="#fff" fill-rule="evenodd"/>
    <path id="패스_2626" data-name="패스 2626" d="M314.267,211.917a.318.318,0,1,1,0-.635h18.952a.318.318,0,0,1,0,.635Z" transform="translate(1089.621 1173.127)" fill="#c78d33" fill-rule="evenodd"/>
    <path id="패스_2627" data-name="패스 2627" d="M314.267,215.176a.318.318,0,1,1,0-.635h18.952a.318.318,0,0,1,0,.635Z" transform="translate(1089.621 1173.811)" fill="#c78d33" fill-rule="evenodd"/>
    <path id="패스_2628" data-name="패스 2628" d="M314.267,218.435a.318.318,0,1,1,0-.635h18.952a.318.318,0,0,1,0,.635Z" transform="translate(1089.621 1174.495)" fill="#c78d33" fill-rule="evenodd"/>
    <path id="패스_2629" data-name="패스 2629" d="M359.684,216.017a.318.318,0,0,1,0-.635h18.955a.318.318,0,1,1,0,.635Z" transform="translate(1099.156 1173.988)" fill="#c78d33" fill-rule="evenodd"/>
    <path id="패스_2630" data-name="패스 2630" d="M359.684,219.277a.317.317,0,1,1,0-.634h18.955a.317.317,0,1,1,0,.634Z" transform="translate(1099.156 1174.672)" fill="#c78d33" fill-rule="evenodd"/>
    <path id="패스_2631" data-name="패스 2631" d="M343.752,182.032a.365.365,0,0,0,.4-.33.371.371,0,0,0-.331-.4c-9.325-.893-30.377,8.749-35.269,16.7a.367.367,0,0,0,.627.384C313.921,190.67,334.7,181.166,343.752,182.032Z" transform="translate(1088.478 1166.821)" fill="#b2d5d6" fill-rule="evenodd"/>
    <path id="패스_2632" data-name="패스 2632" d="M391.982,223.436a.371.371,0,0,1-.518-.064.366.366,0,0,1,.064-.513c1.483-1.174,5.393-2.393,9.332-2.361h0a11.76,11.76,0,0,1,7.781,2.5.366.366,0,1,1-.486.547,11.093,11.093,0,0,0-7.3-2.321C397.08,221.2,393.366,222.338,391.982,223.436Z" transform="translate(1105.877 1175.062)" fill="#729fa3" fill-rule="evenodd"/>
    <path id="패스_2633" data-name="패스 2633" d="M343.716,258.531c9.2.691,10.892,14.04,3.455,18.819-8.606,5.524-29.135,1.65-44.545-17.194-9.142-11.174-12.162-25.57-11.584-33,.684-8.738,9.674-8.517,14.6-5.089a7.984,7.984,0,0,1,2.686,2.962c1.465,13.138,8.212,22.243,22.256,27.82,1.777.707,4.367-6.721,6.853-7.261,2.978-.651,1.984,5.4,1.6,8.1C338.717,255.971,338.468,258.138,343.716,258.531Z" transform="translate(1084.799 1174.929)" fill="#e7b798" fill-rule="evenodd"/>
    <path id="패스_2634" data-name="패스 2634" d="M335.115,257.307a.332.332,0,0,0-.357.319.365.365,0,0,0,.281.41c3.318.438,6.875,1.234,6.887,1.234a.319.319,0,0,0,.37-.29.371.371,0,0,0-.253-.434C342.031,258.546,338.45,257.745,335.115,257.307Z" transform="translate(1093.99 1182.788)" fill="#d89282" fill-rule="evenodd"/>
    <path id="패스_2635" data-name="패스 2635" d="M335.029,260.983a.332.332,0,0,0-.354.323.364.364,0,0,0,.281.409c3.313.436,6.872,1.231,6.88,1.234a.328.328,0,0,0,.377-.293.369.369,0,0,0-.255-.431C341.946,262.226,338.363,261.42,335.029,260.983Z" transform="translate(1093.973 1183.56)" fill="#d89282" fill-rule="evenodd"/>
    <path id="패스_2636" data-name="패스 2636" d="M333.472,265.028a.337.337,0,0,0-.357.327.358.358,0,0,0,.284.405c.955.126,1.942.284,2.857.443,1.351.236,2.512.473,3.228.621a.325.325,0,0,0,.373-.3.365.365,0,0,0-.257-.425c-.754-.16-1.943-.4-3.252-.628C335.436,265.318,334.446,265.159,333.472,265.028Z" transform="translate(1093.645 1184.409)" fill="#d89282" fill-rule="evenodd"/>
    <path id="패스_2637" data-name="패스 2637" d="M292.092,227.9c.6,16.1,11.685,32.6,23.383,40.426,1.111.743,3.649,2.645,4.958,2.242l.486-.214c-1.751-.642-.88.2-2.656-1.432C295.918,248.431,296.463,241.638,292.092,227.9Z" transform="translate(1085.034 1176.615)" fill="#d89282" fill-rule="evenodd"/>
    <path id="패스_2638" data-name="패스 2638" d="M361.188,259.971c-3.047.991-8.15,2.67-9.769,4.725a9.079,9.079,0,0,0,2.869,13.015c14.831,9.4,72.36-13.628,63.176-49.822-.865-3.4-5.263-5.5-9.723-5.285-3.253.155-6.955,1.537-7.28,4.532-.905,8.354-.05,21.419-23.891,28.462-2.077.613-8.285-6.132-11.1-6.819-3.372-.826-2.269,4-.682,6.531C366,257.256,367.086,258.057,361.188,259.971Z" transform="translate(1097.146 1175.501)" fill="#e4b095" fill-rule="evenodd"/>
    <path id="패스_2639" data-name="패스 2639" d="M389.64,262.93c-3.387,2.257-6.558,5.135-9.867,7.276a.718.718,0,0,0-.224.174c1.03.694,9.459-4.946,10.974-5.8a43.033,43.033,0,0,0,17.27-19.172c2.448-5.241,3.313-9.227,2.329-15.026C408.31,243.258,403.46,253.717,389.64,262.93Z" transform="translate(1103.393 1177.136)" fill="#d89282" fill-rule="evenodd"/>
    <path id="패스_2640" data-name="패스 2640" d="M358.072,263.27a.371.371,0,0,0,.31-.419.362.362,0,0,0-.414-.31c-3.823.587-7.916,1.55-7.926,1.55a.374.374,0,0,0-.276.445.355.355,0,0,0,.434.272C350.212,264.809,354.279,263.853,358.072,263.27Z" transform="translate(1097.139 1183.886)" fill="#d89282" fill-rule="evenodd"/>
    <path id="패스_2641" data-name="패스 2641" d="M359.716,267.249a.37.37,0,0,0,.315-.416.362.362,0,0,0-.414-.311c-1.212.185-2.44.407-3.558.624-1.143.223-2.149.433-2.9.6a.372.372,0,0,0-.288.438.364.364,0,0,0,.434.283c.78-.169,1.8-.384,2.886-.594C357.31,267.652,358.535,267.43,359.716,267.249Z" transform="translate(1097.791 1184.722)" fill="#d89282" fill-rule="evenodd"/>
    <path id="패스_2642" data-name="패스 2642" d="M357.882,260.222a.377.377,0,0,0,.315-.421.366.366,0,0,0-.419-.306c-3.818.587-7.916,1.548-7.925,1.551a.374.374,0,0,0-.277.444.362.362,0,0,0,.436.273C350.027,261.758,354.09,260.806,357.882,260.222Z" transform="translate(1097.099 1183.247)" fill="#d89282" fill-rule="evenodd"/>
    <path id="패스_2643" data-name="패스 2643" d="M292.531,220.8a.336.336,0,0,1-.479-.093.381.381,0,0,1,.059-.513c1.378-1.078,5-2.046,8.653-1.765h0a11.115,11.115,0,0,1,7.217,3,.4.4,0,0,1,.027.525.324.324,0,0,1-.48,0,10.421,10.421,0,0,0-6.771-2.785C297.255,218.893,293.817,219.795,292.531,220.8Z" transform="translate(1085.01 1174.617)" fill="#729fa3" fill-rule="evenodd"/>
    <path id="패스_2644" data-name="패스 2644" d="M343.822,147.807c-1.1,13.5-.826,21.528,2.316,27.1,3.339,5.915,6.4,1.146,10.687,3.626s6.486,2,11.351-1.812c4.016-3.151,9.855-14.951,12.414-20.9,2.613-6.083,2.122-2.808.371,2.3-2.29,6.679-6.582,21.372-18.6,24.614s-18.508-4.577-20.509-9.255c-1.56-3.635-.232-18.51.7-25.849C343.187,142.61,344.184,143.329,343.822,147.807Z" transform="translate(1095.327 1159.035)" fill="#5c474c" fill-rule="evenodd"/>
    <path id="패스_2645" data-name="패스 2645" d="M355.95,162.826c1.485.69-.719,1.907-1.624,1.907s-3.91-2.432-4.771-2.432-1.76-.1-1.76-.1C350.629,158.474,354.464,162.134,355.95,162.826Z" transform="translate(1096.727 1162.479)" fill="#5c474c" fill-rule="evenodd"/>
    <path id="패스_2646" data-name="패스 2646" d="M355.418,162.485c-1.544-.108-.015,2.244.838,2.548s4.5-.98,5.308-.692,1.7.5,1.7.5-.9-2.3-2.348-2.573A37.774,37.774,0,0,1,355.418,162.485Z" transform="translate(1098.188 1162.836)" fill="#5c474c" fill-rule="evenodd"/>
    <path id="패스_2647" data-name="패스 2647" d="M342.919,135.626a.318.318,0,1,1,.419-.478c2.578,2.266,6.215,3.137,10.209,3.292a69.107,69.107,0,0,0,12.5-1.015,57.969,57.969,0,0,0,15.927-5.309.317.317,0,1,1,.29.563,58.529,58.529,0,0,1-16.128,5.377,69.868,69.868,0,0,1-12.612,1.019C349.394,138.915,345.618,138,342.919,135.626Z" transform="translate(1095.681 1156.501)" fill="#836968" fill-rule="evenodd"/>
    <path id="패스_2648" data-name="패스 2648" d="M343.16,130.664a.322.322,0,0,1-.166-.417.318.318,0,0,1,.416-.168c6.726,2.868,16.813,1.37,23.028.446.851-.126,1.626-.242,2.377-.341a54.368,54.368,0,0,1,13.063.382.317.317,0,1,1-.1.626,53.614,53.614,0,0,0-12.882-.38c-.655.088-1.471.209-2.365.342C360.25,132.086,350.055,133.6,343.16,130.664Z" transform="translate(1095.714 1156.048)" fill="#836968" fill-rule="evenodd"/>
    <path id="패스_2649" data-name="패스 2649" d="M346.595,127.949a.318.318,0,1,1-.1-.628,71.775,71.775,0,0,1,12.806-.687,77.8,77.8,0,0,1,13.128,1.454l7.379,1.524a.321.321,0,0,1,.246.375.317.317,0,0,1-.37.248l-7.38-1.528a77.442,77.442,0,0,0-13.021-1.44A71.2,71.2,0,0,0,346.595,127.949Z" transform="translate(1096.397 1155.351)" fill="#836968" fill-rule="evenodd"/>
    <path id="패스_2650" data-name="패스 2650" d="M374.138,135.725a.316.316,0,1,1,.6.18c-2.377,7.9,1.371,15.524,1.383,15.546a.319.319,0,0,1-.149.423.314.314,0,0,1-.421-.148C375.543,151.7,371.685,143.858,374.138,135.725Z" transform="translate(1102.085 1157.219)" fill="#836968" fill-rule="evenodd"/>
    <path id="패스_2651" data-name="패스 2651" d="M377.483,136.491a.317.317,0,1,1,.628-.091,25.619,25.619,0,0,1-.771,10.189.319.319,0,0,1-.61-.188A24.8,24.8,0,0,0,377.483,136.491Z" transform="translate(1102.798 1157.351)" fill="#836968" fill-rule="evenodd"/>
    <path id="패스_2652" data-name="패스 2652" d="M300.652,304.476c-10.341,11.281-17.621,10.569-27.181,21.309-14.892,16.732,17.7,43.9,37.919,43.764,42.173-.281,71.773-84.293,33.277-93.455C321.875,270.674,312.118,291.978,300.652,304.476Z" transform="translate(1080.332 1186.55)" fill="#5c474c" fill-rule="evenodd"/>
    <path id="패스_2653" data-name="패스 2653" d="M308.044,319.621c-6.869,2.478-23.47,16.026-26.331,19.651s22.9,9.543,24.994,6.488S312.627,324.96,308.044,319.621Z" transform="translate(1082.809 1195.869)" fill="#e2ab9b" fill-rule="evenodd"/>
    <path id="패스_2654" data-name="패스 2654" d="M299.484,441.9c.607,6.575,1.016,11.562.657,14.125-1.5,10.663-31.507,7.176-28.51,2.368,3.687-5.92,14.5-3.945,15.1-11.28a27.949,27.949,0,0,0,.017-3.755Q292.777,442.671,299.484,441.9Z" transform="translate(1080.694 1221.536)" fill="#e4b095" fill-rule="evenodd"/>
    <path id="패스_2655" data-name="패스 2655" d="M302.473,456.019c.569-2.955-1.616-1.62-2.9-.981-2.906,1.455-9.181,2.806-11.752,2.5-2.11-.252-3.246-6.227-6.058-6.744-2.114-.392-9.835,2.227-11.374,4.765-1.106,1.828.312,4.44,2.108,5.2C278.05,463.107,301.415,461.5,302.473,456.019Z" transform="translate(1080.397 1223.396)" fill="#82bbbf" fill-rule="evenodd"/>
    <path id="패스_2656" data-name="패스 2656" d="M313.887,442.528c.063,6.6.159,11.607.777,14.122,2.564,10.452,33.859,4.838,30.389.358-4.267-5.514-16.612-3.348-17.954-10.586a28.383,28.383,0,0,1-.4-3.73Q320.642,442.618,313.887,442.528Z" transform="translate(1089.609 1221.668)" fill="#e4b095" fill-rule="evenodd"/>
    <path id="패스_2657" data-name="패스 2657" d="M313.041,457.18c-.863-2.881,1.443-1.776,2.782-1.27,3.041,1.157,9.419,1.866,11.945,1.3,2.074-.462,2.6-6.524,5.348-7.326,2.061-.6,10.01,1.228,11.792,3.595,1.29,1.707.142,4.451-1.569,5.389C338.057,461.764,314.652,462.529,313.041,457.18Z" transform="translate(1089.392 1223.188)" fill="#82bbbf" fill-rule="evenodd"/>
    <path id="패스_2658" data-name="패스 2658" d="M271.852,456.85a.251.251,0,1,1,.151-.478,28.8,28.8,0,0,0,5.93.887,40.3,40.3,0,0,0,6.583-.1.252.252,0,0,1,.05.5,40.78,40.78,0,0,1-6.667.1A28.95,28.95,0,0,1,271.852,456.85Z" transform="translate(1080.749 1224.572)" fill="#729fa3" fill-rule="evenodd"/>
    <path id="패스_2659" data-name="패스 2659" d="M327.626,456.393a.251.251,0,0,1-.218-.281.256.256,0,0,1,.284-.219,28.231,28.231,0,0,0,5.99-.15,40.31,40.31,0,0,0,6.467-1.234.252.252,0,0,1,.138.484,41.121,41.121,0,0,1-6.548,1.249A28.99,28.99,0,0,1,327.626,456.393Z" transform="translate(1092.447 1224.182)" fill="#729fa3" fill-rule="evenodd"/>
    <path id="패스_2660" data-name="패스 2660" d="M313.375,373.015c-1.114,7,.461,14.426-2.571,20.536-12.883,25.98-10.25,62.381-11,69.564-.133,1.29-5.724,1.765-9,1.839-3.908.092-8.058-.228-8.063-1.616-.014-9.678.168-67.759,6.825-91.379C296.839,346.151,313.375,373.015,313.375,373.015Z" transform="translate(1083.071 1204.503)" fill="#524a3e" fill-rule="evenodd"/>
    <path id="패스_2661" data-name="패스 2661" d="M328.858,372.085c.067,5.289-.678,10.449.2,15.356,7.2,40.109,1.716,66.112,1.16,74.537-.134,2.08-4.121,2.064-8.187,2.276-4.029.207-7.966.657-8.3-1.27-1.5-8.673,4.665-40.985-8.639-67-4.431-8.669-.754-17.393-.1-23.472C307.8,346.385,328.858,372.085,328.858,372.085Z" transform="translate(1087.311 1204.51)" fill="#524a3e" fill-rule="evenodd"/>
    <path id="패스_2662" data-name="패스 2662" d="M272.909,343.594c-5.723,5.661-12.4,18.058-.952,24.181s20.8,1.835,20.8,1.835Z" transform="translate(1079.493 1200.901)" fill="#e9c0b1" fill-rule="evenodd"/>
    <path id="패스_2663" data-name="패스 2663" d="M311.908,304.72c1.718,19.08.572,19.654.572,19.654l-4.961-.86s-1.9,20.705,1.146,21.847,19.651-1.907,20.99-4.577,3.625-8.207,3.625-8.207l-3.514-2.342-1.636-1.093L335,315.5S312.293,309.108,311.908,304.72Z" transform="translate(1088.149 1192.741)" fill="#e2ab9b" fill-rule="evenodd"/>
    <path id="패스_2664" data-name="패스 2664" d="M276.546,391.019c14.6,25.711,61.984,20.379,66.833,13.168.5-.738,3.218-69.762,2.056-71.826-1.366-2.425-5.14-3.2-6.707-4.3-1.082-.76-4.183,7.6-10.339,7.993-4.721.3-14.071-3.128-12.04-15.265.151-.9-7.925-1.439-8.306-.431C303.144,333.455,276.169,390.359,276.546,391.019Z" transform="translate(1081.77 1195.91)" fill="#d16c5d" fill-rule="evenodd"/>
    <path id="패스_2665" data-name="패스 2665" d="M311.451,298.439s-4.906-5.632-6.558.813,4.086,7.121,4.9,6.647S311.451,298.439,311.451,298.439Z" transform="translate(1087.658 1190.944)" fill="#e3ad9b" fill-rule="evenodd"/>
    <path id="패스_2666" data-name="패스 2666" d="M339.7,305.829s7.406-.961,4.364,4.961-7.777,2.615-8.08,1.718S339.7,305.829,339.7,305.829Z" transform="translate(1094.244 1192.961)" fill="#e3ad9b" fill-rule="evenodd"/>
    <path id="패스_2667" data-name="패스 2667" d="M348.416,295.585c1.217,16.618-9.28,41.76-30.555,33.33-18.123-7.18-8.363-32.034.411-45.075C325.109,273.675,348.416,295.585,348.416,295.585Z" transform="translate(1088.298 1187.793)" fill="#e9c0b1" fill-rule="evenodd"/>
    <path id="패스_2668" data-name="패스 2668" d="M315.01,303.008a2.868,2.868,0,1,0,3.379,2.243A2.865,2.865,0,0,0,315.01,303.008Z" transform="translate(1089.362 1192.369)" fill="#da8d73" fill-rule="evenodd"/>
    <path id="패스_2669" data-name="패스 2669" d="M329.4,306.714a2.868,2.868,0,1,1-2.246,3.38A2.869,2.869,0,0,1,329.4,306.714Z" transform="translate(1092.382 1193.147)" fill="#da8d73" fill-rule="evenodd"/>
    <path id="패스_2670" data-name="패스 2670" d="M326.923,312.728a19.343,19.343,0,0,1-10.53-1.943c-.074-.04-.364-.266-.35-.159.2,1.223,2.44,5.224,5.418,5.245A6.2,6.2,0,0,0,326.923,312.728Z" transform="translate(1090.062 1193.975)" fill="#f5f5f4" fill-rule="evenodd"/>
    <path id="패스_2671" data-name="패스 2671" d="M336.181,300.808c.024-.7-3.275-3.376-5.217-4.413-.374-.2-5.327-.232-1.293,2.514C331.626,300.241,335.393,301.166,336.181,300.808Z" transform="translate(1092.592 1190.976)" fill="#5c474c" fill-rule="evenodd"/>
    <path id="패스_2672" data-name="패스 2672" d="M320.386,301.5a.508.508,0,0,1-.969.3c0-.01-1.22-3.966-4.455-1.276a.5.5,0,0,1-.714-.066.512.512,0,0,1,.069-.714C318.722,296.092,320.381,301.488,320.386,301.5Z" transform="translate(1089.661 1191.431)" fill="#5c474c" fill-rule="evenodd"/>
    <path id="패스_2673" data-name="패스 2673" d="M334.658,304.72a.507.507,0,0,1-.967.306c0-.01-1.218-3.966-4.454-1.278a.506.506,0,1,1-.647-.779C333,299.309,334.656,304.705,334.658,304.72Z" transform="translate(1092.657 1192.106)" fill="#5c474c" fill-rule="evenodd"/>
    <path id="패스_2674" data-name="패스 2674" d="M314.156,295.739c1.2-2.028,4.7-2.465,6.766-1.9,2.536.686,3.268,2.681-.843,2.732C317.731,296.6,314.589,296.4,314.156,295.739Z" transform="translate(1089.665 1190.409)" fill="#5c474c" fill-rule="evenodd"/>
    <path id="패스_2675" data-name="패스 2675" d="M333.574,280.276s20.686,10.821,17.118,26.668c-3.88,17.222-24.3-20.457-24.749-20.048-4.114,3.768-14.3,15.984-16.311,14.1-5.227-4.887,5.9-16.152,9.857-18.859C323.691,279.261,328.9,277.714,333.574,280.276Z" transform="translate(1088.428 1187.337)" fill="#5c474c" stroke="#5c474c" stroke-miterlimit="2.613" stroke-width="0.216" fill-rule="evenodd"/>
    <path id="패스_2676" data-name="패스 2676" d="M274.693,325.894l54.793.44-6.2,51.246H281.541Z" transform="translate(1081.382 1197.186)" fill="#c78d33" fill-rule="evenodd"/>
    <path id="패스_2677" data-name="패스 2677" d="M272.926,325.894h58l-.775,7.675H274.19Z" transform="translate(1081.011 1197.186)" fill="#c78d33" fill-rule="evenodd"/>
    <path id="패스_2678" data-name="패스 2678" d="M269.234,325.894l54.793.44-49.545,6.982,47.917,3.1-4.573,41.167H276.081Z" transform="translate(1080.235 1197.186)" fill="#e6b15b" fill-rule="evenodd"/>
    <path id="패스_2679" data-name="패스 2679" d="M315.856,357.594l-1.482,13.332H290.16c.4-1-5.149-8.828-4.408-10.118C300.937,365.195,314.636,357.945,315.856,357.594Z" transform="translate(1083.688 1203.84)" fill="#d89b50" fill-rule="evenodd"/>
    <path id="패스_2680" data-name="패스 2680" d="M295.777,371.8H275.315l-2.432-18.364a98.167,98.167,0,0,0,22.362,9.711C297.466,363.84,296.375,368.121,295.777,371.8Z" transform="translate(1081.002 1202.967)" fill="#d89b50" fill-rule="evenodd"/>
    <path id="패스_2681" data-name="패스 2681" d="M267.787,325.894h58l-.775,7.675H269.051Z" transform="translate(1079.932 1197.186)" fill="#e9b864" fill-rule="evenodd"/>
    <path id="패스_2682" data-name="패스 2682" d="M288.744,325.253h7.289V337.2l-.282-.281-.811.809-.811-.809-.808.809-.808-.809-.808.809-.814-.809-.808.809-.808-.809-.53.529v-12.2Zm1.338,12.579.052.048h-.1l.048-.048Zm1.622,0,.047.048h-.1l.054-.048Zm1.616,0,.047.048h-.1l.052-.048Zm1.619,0,.052.048h-.1Z" transform="translate(1084.331 1197.051)" fill="#f1d3a4" fill-rule="evenodd"/>
    <path id="패스_2683" data-name="패스 2683" d="M294.366,340.522c6.064-.263,11.2,4.044,11.468,9.621s-4.433,10.312-10.5,10.573-11.2-4.04-11.469-9.616S288.3,340.782,294.366,340.522Z" transform="translate(1083.306 1200.254)" fill="#fff" fill-rule="evenodd"/>
    <path id="패스_2684" data-name="패스 2684" d="M273.09,334.676a.2.2,0,0,1,0-.405h12.063a.2.2,0,1,1,0,.405Z" transform="translate(1081.003 1198.944)" fill="#c78d33" fill-rule="evenodd"/>
    <path id="패스_2685" data-name="패스 2685" d="M273.09,336.749a.2.2,0,0,1,0-.4h12.063a.2.2,0,1,1,0,.4Z" transform="translate(1081.003 1199.38)" fill="#c78d33" fill-rule="evenodd"/>
    <path id="패스_2686" data-name="패스 2686" d="M273.09,338.826a.2.2,0,0,1,0-.407h12.063a.2.2,0,1,1,0,.407Z" transform="translate(1081.003 1199.814)" fill="#c78d33" fill-rule="evenodd"/>
    <path id="패스_2687" data-name="패스 2687" d="M302,337.286a.2.2,0,0,1-.2-.2.2.2,0,0,1,.2-.2h12.064a.2.2,0,0,1,.2.2.2.2,0,0,1-.2.2Z" transform="translate(1087.07 1199.492)" fill="#c78d33" fill-rule="evenodd"/>
    <path id="패스_2688" data-name="패스 2688" d="M302,339.36a.2.2,0,1,1,0-.4h12.064a.2.2,0,0,1,0,.4Z" transform="translate(1087.07 1199.927)" fill="#c78d33" fill-rule="evenodd"/>
    <path id="패스_2689" data-name="패스 2689" d="M301.556,386.294c-8.592.329-24.458,1.116-25.176-5.544-.828-7.672,1.335-9.155,10.111-8.2,1.668.18-1.44-1.083-3.094-3.082-1.165-1.4-.851-3.32,2.551-2.472,3.684.922,9.32,3.071,9.32,3.071,30.278,2.665,40.043-18.985,44.958-31.874C353.211,304.124,363,383.942,301.556,386.294Z" transform="translate(1081.701 1197.994)" fill="#e9c0b1" fill-rule="evenodd"/>
    <path id="패스_2690" data-name="패스 2690" d="M274.061,346.631c3.493-1.751,6.594,1.146,6.034,10.416a12.028,12.028,0,0,1-1.4,5.432c-.587,1-2.915,1.154-3.708,1.072-4.705-.462-6.38-4.34-6.742-7.469-.813-7.013,1.191-7.161,1.668-10.772.253-1.91-.282-4.069.04-4.316C272.955,338.7,273.688,344.829,274.061,346.631Z" transform="translate(1079.988 1200.249)" fill="#e9c0b1" fill-rule="evenodd"/>
    <path id="패스_2691" data-name="패스 2691" d="M278.641,349.279a.324.324,0,1,0,.041-.646,27.348,27.348,0,0,0-5.544.86.323.323,0,1,0,.156.627A26.97,26.97,0,0,1,278.641,349.279Z" transform="translate(1081.004 1201.957)" fill="#df9e73" fill-rule="evenodd"/>
    <path id="패스_2692" data-name="패스 2692" d="M278.729,352.991a.325.325,0,0,0,.346-.3.33.33,0,0,0-.3-.347,27.792,27.792,0,0,0-5.544.865.323.323,0,1,0,.155.627A27.129,27.129,0,0,1,278.729,352.991Z" transform="translate(1081.022 1202.735)" fill="#df9e73" fill-rule="evenodd"/>
    <path id="패스_2693" data-name="패스 2693" d="M278.938,356.929a.326.326,0,0,0,.041-.651,27.557,27.557,0,0,0-5.543.86.324.324,0,0,0,.156.629A26.985,26.985,0,0,1,278.938,356.929Z" transform="translate(1081.066 1203.562)" fill="#df9e73" fill-rule="evenodd"/>
    <path id="패스_2694" data-name="패스 2694" d="M283.952,371.4a.374.374,0,0,0,.427-.3.36.36,0,0,0-.3-.421c-3.814-.633-8.006-.993-8.016-.993a.367.367,0,0,0-.4.33.361.361,0,0,0,.328.4C276.007,370.413,280.164,370.771,283.952,371.4Z" transform="translate(1081.585 1206.377)" fill="#d89282" fill-rule="evenodd"/>
    <path id="패스_2695" data-name="패스 2695" d="M283.312,373.857a.372.372,0,0,0,.427-.3.361.361,0,0,0-.3-.421c-1.21-.2-2.445-.371-3.575-.513-1.158-.148-2.179-.259-2.943-.34a.376.376,0,0,0-.408.329.36.36,0,0,0,.323.4c.8.083,1.827.195,2.928.335C280.9,373.487,282.13,373.662,283.312,373.857Z" transform="translate(1081.765 1206.922)" fill="#d89282" fill-rule="evenodd"/>
    <path id="패스_2696" data-name="패스 2696" d="M284.723,368.445a.379.379,0,0,0,.428-.3.363.363,0,0,0-.3-.421c-3.817-.632-8.007-.993-8.018-.993a.368.368,0,0,0-.4.333.358.358,0,0,0,.33.394C276.777,367.458,280.935,367.817,284.723,368.445Z" transform="translate(1081.747 1205.757)" fill="#d89282" fill-rule="evenodd"/>
    <path id="패스_2697" data-name="패스 2697" d="M318.861,308.157c.449.442,6.842.8,5.908,1.545C319.84,313.654,318.807,308.136,318.861,308.157Z" transform="translate(1090.652 1193.462)" fill="#d89282" fill-rule="evenodd"/>
    <path id="패스_2698" data-name="패스 2698" d="M321.885,304.083c-.486-.1-1.949,1.991-2.079,2.594a1.021,1.021,0,0,0,.65,1.276C321.933,308.275,322.229,304.156,321.885,304.083Z" transform="translate(1090.845 1192.606)" fill="#fff" fill-rule="evenodd"/>
    <path id="패스_2699" data-name="패스 2699" d="M341.887,307.739a2.46,2.46,0,0,1-.459,3,4.354,4.354,0,0,1-1.86,1.456s.744-1.459.22-1.8a2.18,2.18,0,0,0-1.09-.329S340.181,307.218,341.887,307.739Z" transform="translate(1094.817 1193.361)" fill="#d89282" fill-rule="evenodd"/>
    <path id="패스_2700" data-name="패스 2700" d="M342.181,308.018a.179.179,0,1,1-.281.221.815.815,0,0,0-.565-.351,1.1,1.1,0,0,0-.716.237,4.877,4.877,0,0,0-1.476,1.7c.35.05.881.2,1,.687a1.541,1.541,0,0,1-.236,1.2.178.178,0,1,1-.287-.209,1.18,1.18,0,0,0,.171-.909c-.1-.44-.9-.433-.964-.433a.167.167,0,0,1-.1-.029.175.175,0,0,1-.05-.247,9.66,9.66,0,0,1,1.746-2.059,1.478,1.478,0,0,1,.957-.3A1.2,1.2,0,0,1,342.181,308.018Z" transform="translate(1094.805 1193.33)" fill="#935b47" fill-rule="evenodd"/>
    <path id="패스_2701" data-name="패스 2701" d="M307.636,297.989a2.455,2.455,0,0,0-1.743,2.478,4.327,4.327,0,0,0,.333,2.338s.473-1.564,1.084-1.447a2.191,2.191,0,0,1,1.016.517S309.228,298.794,307.636,297.989Z" transform="translate(1087.927 1191.328)" fill="#d89282" fill-rule="evenodd"/>
    <path id="패스_2702" data-name="패스 2702" d="M307.178,297.977a.179.179,0,1,0,.05.354.821.821,0,0,1,.651.137,1.121,1.121,0,0,1,.357.668,5,5,0,0,1-.111,2.253,1.079,1.079,0,0,0-1.2-.195,1.541,1.541,0,0,0-.665,1.03.179.179,0,0,0,.355.045,1.172,1.172,0,0,1,.506-.776c.38-.243.95.313.995.358a.182.182,0,0,0,.094.052.188.188,0,0,0,.213-.144,9.776,9.776,0,0,0,.161-2.7,1.455,1.455,0,0,0-.485-.875A1.185,1.185,0,0,0,307.178,297.977Z" transform="translate(1088.008 1191.322)" fill="#935b47" fill-rule="evenodd"/>
    <path id="패스_2703" data-name="패스 2703" d="M325.832,279.472a.319.319,0,0,1,.633-.077c.691,5.6,3.465,10.667,6.567,14.778a61.349,61.349,0,0,0,8.59,9.063c4.093,3.584,5.6,4.961,5.6,4.964a.319.319,0,0,1,.021.45.314.314,0,0,1-.446.019c-.007,0-1.543-1.416-5.591-4.957a61.893,61.893,0,0,1-8.682-9.157C329.363,290.368,326.539,285.2,325.832,279.472Z" transform="translate(1092.116 1187.366)" fill="#836968" fill-rule="evenodd"/>
    <path id="패스_2704" data-name="패스 2704" d="M327.418,279.278a.314.314,0,0,1-.04-.446.309.309,0,0,1,.442-.041,78.25,78.25,0,0,1,10.507,11.193c3.927,4.974,7.168,9.936,8.283,12.587a2.259,2.259,0,0,0,.529.9c.047.03-.054-.119-.023-.248a7.127,7.127,0,0,0,.094-1.739,30.9,30.9,0,0,0-3.959-13.51c-4.5-7.258-12.866-8.755-12.893-8.759a.318.318,0,0,1,.121-.624c.023,0,8.661,1.551,13.314,9.049a31.592,31.592,0,0,1,4.05,13.824,7.74,7.74,0,0,1-.109,1.9c-.156.671-.465.923-.923.646a2.622,2.622,0,0,1-.783-1.2c-1.1-2.607-4.3-7.512-8.2-12.443A77.642,77.642,0,0,0,327.418,279.278Z" transform="translate(1092.425 1187.256)" fill="#836968" fill-rule="evenodd"/>
    <path id="패스_2705" data-name="패스 2705" d="M325.714,280.429a.316.316,0,1,1,.48.41A117.635,117.635,0,0,1,315.033,292.7c-2.586,2.264-4.215,3.106-5.524,3.5a.722.722,0,0,1-.61-.041c-.352-.206-.406-.73-.23-1.472a13.965,13.965,0,0,1,.872-2.37c1.8-3.989,5.775-10.207,8.6-12.2a.319.319,0,1,1,.367.521c-2.734,1.927-6.615,8.018-8.384,11.937a12.976,12.976,0,0,0-.835,2.258c-.109.454-.137.738-.064.782a.316.316,0,0,0,.1-.022c1.237-.373,2.789-1.182,5.289-3.368A117.3,117.3,0,0,0,325.714,280.429Z" transform="translate(1088.493 1187.565)" fill="#836968" fill-rule="evenodd"/>
    <path id="패스_2706" data-name="패스 2706" d="M342.265,314.156a.317.317,0,1,1,.615.158c-2.616,9.967-6.941,14.26-8.013,15.324l-.084.085a.318.318,0,1,1-.449-.45l.088-.086C335.467,328.149,339.7,323.955,342.265,314.156Z" transform="translate(1093.882 1194.671)" fill="#836968" fill-rule="evenodd"/>
    <path id="패스_2707" data-name="패스 2707" d="M309.228,297.261a.316.316,0,0,1,.558.3c-5.429,10.166-12.87,14.273-19.555,17.962-5.658,3.125-10.774,5.947-13.6,11.931a.317.317,0,0,1-.574-.27c2.911-6.173,8.11-9.043,13.862-12.215C296.535,311.319,303.888,307.258,309.228,297.261Z" transform="translate(1081.663 1191.14)" fill="#836968" fill-rule="evenodd"/>
    <path id="패스_2708" data-name="패스 2708" d="M307.321,305.05a.316.316,0,0,1,.425-.141.319.319,0,0,1,.143.425c-2.982,5.966-9.235,9.881-14.553,13.209-4.8,3.005-8.819,5.521-8.819,8.527a.318.318,0,1,1-.635,0c0-3.353,4.156-5.956,9.117-9.063C298.246,314.72,304.418,310.856,307.321,305.05Z" transform="translate(1083.311 1192.773)" fill="#836968" fill-rule="evenodd"/>
    <path id="패스_2709" data-name="패스 2709" d="M229.646,129.89c1.476,43.756,9.557,41.162,32.239,41.162h24.8L306.5,190.864l-5.414-20.2s37.924,3.083,41.32-9.595c1.942-7.241,2.876-29.724,2.644-43.381-.288-16.658-2.195-14.1-17.68-14.558-21.653-.635-63.828-.536-86.557,2.439C225.482,107.573,229.219,117.209,229.646,129.89Z" transform="translate(1071.777 1150.357)" fill="#d16e61" fill-rule="evenodd"/>
    <path id="패스_2710" data-name="패스 2710" d="M281.539,124.608c-6.722-8.041-15.634-5.374-14.665,2.986s15.58,15.169,15.58,15.169,14.07-10.515,12.855-17.855S287.176,116.158,281.539,124.608Z" transform="translate(1079.725 1153.718)" fill="#fff" fill-rule="evenodd"/>
    <path id="패스_2711" data-name="패스 2711" d="M465.61,300.215c-1.327,43.754-8.592,41.16-28.979,41.16H414.34l-17.805,19.812,4.863-20.2s-34.088,3.08-37.138-9.6c-1.742-7.243-2.586-29.725-2.375-43.38.26-16.658,1.971-14.105,15.89-14.559,19.463-.636,57.372-.537,77.8,2.44C469.351,277.894,465.994,287.531,465.61,300.215Z" transform="translate(1099.678 1186.11)" fill="#d16e61" fill-rule="evenodd"/>
    <path id="패스_2712" data-name="패스 2712" d="M408.465,299.242c-4.347-9.538-13.644-9.33-14.928-1.013s10.991,18.761,10.991,18.761,16.36-6.4,17.136-13.8S416.146,292.594,408.465,299.242Z" transform="translate(1106.309 1190.079)" fill="#fff" fill-rule="evenodd"/>
    <path id="패스_2713" data-name="패스 2713" d="M122.667,246.347l24.4,1.952.243-3.526-24.186-1.562Z" transform="translate(1049.47 1179.83)" fill="#070754" fill-rule="evenodd"/>
    <path id="패스_2714" data-name="패스 2714" d="M176.979,199.5l-.382-.6-.8-.137s1.4,9.319-7.533,10.726-13.756-8.991-13.968-11.3-2.618.848-2.618.848l.338,1.427L160.436,212l5.948-1.178,5.6-.788,6.05-.445Z" transform="translate(1055.56 1170.2)" fill="#000075" fill-rule="evenodd"/>
    <path id="패스_2715" data-name="패스 2715" d="M151.679,198.738l.054,2.739,8.917,12.173-8.243-14.912Z" transform="translate(1055.56 1170.494)" fill="#000075" fill-rule="evenodd"/>
    <path id="패스_2716" data-name="패스 2716" d="M173.5,199.853l-.463-1.069-1.419-.27,2.055,13.843Z" transform="translate(1059.744 1170.447)" fill="#000075" fill-rule="evenodd"/>
    <path id="패스_2717" data-name="패스 2717" d="M151.7,200.5l-.063-1.731.128-.117,12.97,15.17s-5.344,4.541-9.455-1.684a17.093,17.093,0,0,1-2.857-12.076Z" transform="translate(1055.551 1170.477)" fill="#000075" fill-rule="evenodd"/>
    <path id="패스_2718" data-name="패스 2718" d="M160.875,210.077a4.9,4.9,0,0,0,1.246-.133,4.022,4.022,0,0,0,.684-.209c.108-.048.209-.1.315-.151a2.611,2.611,0,0,1,.48-.121c.1-.029.214-.051.315-.085.053-.017.206-.046.23-.087a.192.192,0,0,0-.2.035c-.045.04-.075.091-.123.128a1.108,1.108,0,0,0-.1.073c-.058.058-.093.133-.15.192s-.117.111-.169.177a1.851,1.851,0,0,1-.5.4c-.057.034-.581.266-.446.387" transform="translate(1057.49 1172.706)" fill="none" stroke="#000075" stroke-miterlimit="10" stroke-width="1" fill-rule="evenodd"/>
    <path id="패스_2719" data-name="패스 2719" d="M163.969,209.469" transform="translate(1058.14 1172.747)" fill="none" stroke="#000075" stroke-miterlimit="10" stroke-width="1" fill-rule="evenodd"/>
    <path id="패스_2720" data-name="패스 2720" d="M164.687,208.656" transform="translate(1058.29 1172.576)" fill="none" stroke="#000075" stroke-miterlimit="10" stroke-width="1" fill-rule="evenodd"/>
    <path id="패스_2721" data-name="패스 2721" d="M167,208.406" transform="translate(1058.775 1172.523)" fill="none" stroke="#000075" stroke-miterlimit="10" stroke-width="1" fill-rule="evenodd"/>
    <path id="패스_2722" data-name="패스 2722" d="M165.906,208.344" transform="translate(1058.546 1172.51)" fill="none" stroke="#000075" stroke-miterlimit="10" stroke-width="1" fill-rule="evenodd"/>
    <path id="패스_2723" data-name="패스 2723" d="M169.625,208.875" transform="translate(1059.326 1172.622)" fill="none" stroke="#000075" stroke-miterlimit="10" stroke-width="1" fill-rule="evenodd"/>
    <path id="패스_2724" data-name="패스 2724" d="M172.125,208.656" transform="translate(1059.852 1172.576)" fill="none" stroke="#000075" stroke-miterlimit="10" stroke-width="1" fill-rule="evenodd"/>
    <path id="패스_2725" data-name="패스 2725" d="M172.906,207.875" transform="translate(1060.016 1172.412)" fill="none" stroke="#000075" stroke-miterlimit="10" stroke-width="1" fill-rule="evenodd"/>
    <path id="패스_2726" data-name="패스 2726" d="M172.965,207.219v1.341a5.25,5.25,0,0,1,0,.617c-.013.106-.063.2-.077.311a.585.585,0,0,1-.265.34" transform="translate(1059.956 1172.274)" fill="none" stroke="#000075" stroke-miterlimit="10" stroke-width="1" fill-rule="evenodd"/>
    <path id="패스_2727" data-name="패스 2727" d="M171,209.75" transform="translate(1059.615 1172.806)" fill="none" stroke="#000075" stroke-miterlimit="10" stroke-width="1" fill-rule="evenodd"/>
    <path id="패스_2728" data-name="패스 2728" d="M171.812,209.906" transform="translate(1059.785 1172.838)" fill="none" stroke="#000075" stroke-miterlimit="10" stroke-width="1" fill-rule="evenodd"/>
    <path id="패스_2729" data-name="패스 2729" d="M168.969,208.781" transform="translate(1059.188 1172.602)" fill="none" stroke="#000075" stroke-miterlimit="10" stroke-width="1" fill-rule="evenodd"/>
    <path id="패스_2730" data-name="패스 2730" d="M170.094,209.313" transform="translate(1059.425 1172.714)" fill="none" stroke="#000075" stroke-miterlimit="10" stroke-width="1" fill-rule="evenodd"/>
    <path id="패스_2731" data-name="패스 2731" d="M168.75,208.75" transform="translate(1059.143 1172.596)" fill="none" stroke="#000075" stroke-miterlimit="10" stroke-width="1" fill-rule="evenodd"/>
    <path id="패스_2732" data-name="패스 2732" d="M167.531,208.938" transform="translate(1058.887 1172.635)" fill="none" stroke="#000075" stroke-miterlimit="10" stroke-width="1" fill-rule="evenodd"/>
    <path id="패스_2733" data-name="패스 2733" d="M172.882,201.875c-.1.224.018.409.1.613a1.9,1.9,0,0,0,.181.294,1.89,1.89,0,0,1,.137.322.669.669,0,0,1,.07.282,1.507,1.507,0,0,0,.067.341c.047.236.177.469.2.71a1.483,1.483,0,0,0,.054.258c.015.057.036.119.048.175s0,.144.011.215c.018.094.061.183.075.276a1.968,1.968,0,0,1,0,.316.656.656,0,0,0,.068.281.938.938,0,0,1,.046.344v.279a1.816,1.816,0,0,0,0,.2c.01.087.068.155.081.24a4.106,4.106,0,0,1,.074.416c.008.188,0,.376,0,.564a1.207,1.207,0,0,1-.379.984" transform="translate(1060.002 1171.152)" fill="none" stroke="#000075" stroke-miterlimit="10" stroke-width="1" fill-rule="evenodd"/>
    <path id="패스_2734" data-name="패스 2734" d="M172.787,198.738s8.775,9.941,9.979,14.437-8.991-12.181-8.991-12.181Z" transform="translate(1059.99 1170.494)" fill="#4eb4ea" fill-rule="evenodd"/>
    <path id="패스_2735" data-name="패스 2735" d="M180.5,208.878l2.567,5.752-3.82-2Z" transform="translate(1061.347 1172.623)" fill="#4eb4ea" fill-rule="evenodd"/>
    <path id="패스_2736" data-name="패스 2736" d="M172.787,198.738l1.321.358s.4.923.9,2.263" transform="translate(1059.99 1170.494)" fill="#4eb4ea" fill-rule="evenodd"/>
    <path id="패스_2737" data-name="패스 2737" d="M173.879,199.034l3.148,5.085-3.087-3.859Z" transform="translate(1060.22 1170.556)" fill="#4eb4ea" fill-rule="evenodd"/>
    <path id="패스_2738" data-name="패스 2738" d="M175.141,201.072l4.546,6.662-4.189-3.848Z" transform="translate(1060.484 1170.984)" fill="#4eb4ea" fill-rule="evenodd"/>
    <path id="패스_2739" data-name="패스 2739" d="M173.879,199.034s10.54,15.025,10.448,17.965S173.879,199.034,173.879,199.034Z" transform="translate(1060.22 1170.556)" fill="#4eb4ea" fill-rule="evenodd"/>
    <path id="패스_2740" data-name="패스 2740" d="M182.179,212.525l.927,2.068-1.063.181Z" transform="translate(1061.934 1173.388)" fill="#4eb4ea" fill-rule="evenodd"/>
    <path id="패스_2741" data-name="패스 2741" d="M291.975,352.472l-1.593.386a.1.1,0,0,0-.05.162c.465.5.949.358,1.733-.381A.1.1,0,0,0,291.975,352.472Z" transform="translate(1084.659 1202.764)" fill="#065491"/>
    <path id="패스_2742" data-name="패스 2742" d="M292.019,351.15c.037-.04-.242-.413-.289-.507l-.006-.01c-.991-1.376-1.982-2.751-3.021-4.2a.087.087,0,0,0-.154.029,1.517,1.517,0,0,0,.224,1.543C289.692,348.951,291.069,350.236,292.019,351.15Z" transform="translate(1084.27 1201.491)" fill="#065491"/>
    <path id="패스_2743" data-name="패스 2743" d="M291.571,351.873l-2.4-.021a.076.076,0,0,0-.061.122c.513.669,1.4.665,2.495.04A.076.076,0,0,0,291.571,351.873Z" transform="translate(1084.406 1202.635)" fill="#065491"/>
    <path id="패스_2744" data-name="패스 2744" d="M291.949,351.493c0-.037-.209-.123-.346-.174l-.011,0-3.384-.836a.087.087,0,0,0-.1.119,1.17,1.17,0,0,0,.992.826C289.922,351.485,291.121,351.479,291.949,351.493Z" transform="translate(1084.196 1202.346)" fill="#065491"/>
    <path id="패스_2745" data-name="패스 2745" d="M288.638,349.937c.874.37,2.379.888,3.273,1.211a4.213,4.213,0,0,0-.538-.362c-1.071-.721-2.142-1.443-3.259-2.2a.088.088,0,0,0-.135.079C288.021,349.318,288.209,349.755,288.638,349.937Z" transform="translate(1084.171 1201.946)" fill="#065491"/>
    <path id="패스_2746" data-name="패스 2746" d="M293.239,353.258a.065.065,0,0,0-.111-.05l-.6.611a.066.066,0,0,0,.039.111C293.05,353.988,293.2,353.829,293.239,353.258Z" transform="translate(1085.123 1202.915)" fill="#065491"/>
    <path id="패스_2747" data-name="패스 2747" d="M293.791,353.352a.06.06,0,0,0-.109-.023c-.138.22-.269.426-.413.656a.06.06,0,0,0,.056.091C293.763,354.034,293.868,353.863,293.791,353.352Z" transform="translate(1085.279 1202.939)" fill="#065491"/>
    <path id="패스_2748" data-name="패스 2748" d="M295.761,353.852a7.691,7.691,0,0,1-1.546-1.592,15.627,15.627,0,0,1-3.756-7.244.059.059,0,0,0-.113-.012,3.415,3.415,0,0,0-.11,2.636,13.5,13.5,0,0,0,1.062,2.109,15.136,15.136,0,0,0,4.525,4.411l.069-.2Z" transform="translate(1084.6 1201.189)" fill="#065491"/>
    <path id="패스_2749" data-name="패스 2749" d="M292.462,352.978l-1.037.507a.084.084,0,0,0,0,.15c.492.243.707.148,1.145-.536A.084.084,0,0,0,292.462,352.978Z" transform="translate(1084.885 1202.869)" fill="#065491"/>
    <path id="패스_2750" data-name="패스 2750" d="M298.486,344.97c-.011-.011-.051.008-.1.041a2.312,2.312,0,0,0-.2.146c-.03.023-.058.046-.08.064-1.082.9-1.137,2.354-1.711,3.549l.508-3.914a.1.1,0,0,0-.162-.08c-1.174,1.177-1,2.8-1.422,4.249q-.024-1.987-.048-3.973a.1.1,0,0,0-.171-.062c-1.212,1.43-.607,3.157-.794,4.779-.186-.986-.373-1.972-.566-3a.107.107,0,0,0-.195-.038,2.564,2.564,0,0,0-.312,1.846c.123.7.4,1.774.547,2.466a2.616,2.616,0,0,1-.192-.359c-.257-.59-.58-1.349-.849-1.973a.076.076,0,0,0-.143.015,3.86,3.86,0,0,0,.018,1.488,7.22,7.22,0,0,0,1.078,2.092,7.691,7.691,0,0,0,1.546,1.592l.132.106v0l3.12-9.016Z" transform="translate(1085.126 1201.144)" fill="#34ace3"/>
    <path id="패스_2761" data-name="패스 2761" d="M156.287,232.152a.183.183,0,0,0-.051.123.159.159,0,0,0,.054.138.247.247,0,0,0,.139.044.342.342,0,0,0,.156-.034.754.754,0,0,0,.151-.108l.007-.309a1.289,1.289,0,0,0-.3.054A.37.37,0,0,0,156.287,232.152Z" transform="translate(1056.517 1177.478)" fill="none"/>
    <path id="패스_2762" data-name="패스 2762" d="M150.466,232.02a.183.183,0,0,0-.051.125.153.153,0,0,0,.054.136.245.245,0,0,0,.139.045.34.34,0,0,0,.155-.034.767.767,0,0,0,.152-.109l.006-.307a1.291,1.291,0,0,0-.3.054A.365.365,0,0,0,150.466,232.02Z" transform="translate(1055.295 1177.45)" fill="none"/>
    <path id="패스_2763" data-name="패스 2763" d="M149.706,231.476a.291.291,0,0,0-.149.035.328.328,0,0,0-.119.113.43.43,0,0,0-.064.184l.606.015a.384.384,0,0,0-.067-.252A.25.25,0,0,0,149.706,231.476Z" transform="translate(1055.076 1177.366)" fill="none"/>
    <path id="패스_2764" data-name="패스 2764" d="M185.527,277.178l-2.181-44.215-27.271-14.711,1.7,16.144a.59.59,0,0,1,.063-.07.327.327,0,0,1,.2-.063.356.356,0,0,1,.079.008.336.336,0,0,1,.062.021l-.051.23a.621.621,0,0,0-.062-.017.359.359,0,0,0-.067,0,.27.27,0,0,0-.163.057c-.015.01-.023.038-.036.051l2.6,24.657Z" transform="translate(1056.482 1174.59)" fill="#c78d33"/>
    <path id="패스_2765" data-name="패스 2765" d="M149.4,230.967l-1.262-.028-.005.226.494.012-.034,1.469.271.006.034-1.469.5.011Z" transform="translate(1054.816 1177.253)" fill="#bbedff"/>
    <path id="패스_2766" data-name="패스 2766" d="M150.031,231.383a.512.512,0,0,0-.281-.081.536.536,0,0,0-.212.041.635.635,0,0,0-.191.127.651.651,0,0,0-.134.207.744.744,0,0,0-.054.277.73.73,0,0,0,.074.359.582.582,0,0,0,.218.231.618.618,0,0,0,.311.086.659.659,0,0,0,.232-.033.944.944,0,0,0,.2-.092l-.088-.169a.613.613,0,0,1-.144.064.486.486,0,0,1-.16.023.407.407,0,0,1-.19-.051.38.38,0,0,1-.133-.137.5.5,0,0,1-.058-.208l.82.019a.267.267,0,0,0,.012-.062.711.711,0,0,0,0-.074.76.76,0,0,0-.052-.316A.472.472,0,0,0,150.031,231.383Zm-.612.461a.43.43,0,0,1,.064-.184.328.328,0,0,1,.119-.113.291.291,0,0,1,.149-.035.25.25,0,0,1,.208.094.384.384,0,0,1,.067.252Z" transform="translate(1055.031 1177.33)" fill="#bbedff"/>
    <path id="패스_2767" data-name="패스 2767" d="M151.045,231.4a.488.488,0,0,0-.259-.069.714.714,0,0,0-.191.019.914.914,0,0,0-.173.059,1.223,1.223,0,0,0-.149.075l.094.183a1.263,1.263,0,0,1,.177-.087.47.47,0,0,1,.191-.034.247.247,0,0,1,.145.04.2.2,0,0,1,.07.1.49.49,0,0,1,.021.137,1.437,1.437,0,0,0-.58.143.35.35,0,0,0-.188.311.377.377,0,0,0,.044.195.347.347,0,0,0,.129.132.394.394,0,0,0,.191.05.5.5,0,0,0,.217-.046.934.934,0,0,0,.189-.122h.01l.017.145.217,0,.017-.76a.793.793,0,0,0-.042-.292A.381.381,0,0,0,151.045,231.4Zm-.085.9a.768.768,0,0,1-.152.109.341.341,0,0,1-.155.034.245.245,0,0,1-.139-.045.153.153,0,0,1-.054-.136.183.183,0,0,1,.051-.125.365.365,0,0,1,.158-.091,1.291,1.291,0,0,1,.3-.054Z" transform="translate(1055.25 1177.335)" fill="#bbedff"/>
    <path id="패스_2768" data-name="패스 2768" d="M152.775,231.37a.386.386,0,0,0-.218.062,1,1,0,0,0-.2.162.334.334,0,0,0-.342-.24.384.384,0,0,0-.215.054,1.083,1.083,0,0,0-.183.145h0l-.018-.18-.215,0-.029,1.267.264.006.021-.9a.673.673,0,0,1,.152-.126.264.264,0,0,1,.134-.037.182.182,0,0,1,.16.074.411.411,0,0,1,.045.235l-.017.762.264.006.021-.9a.679.679,0,0,1,.154-.125.252.252,0,0,1,.134-.039.187.187,0,0,1,.158.074.421.421,0,0,1,.045.235l-.018.762.267.006.018-.795a.621.621,0,0,0-.087-.374A.341.341,0,0,0,152.775,231.37Z" transform="translate(1055.491 1177.341)" fill="#bbedff"/>
    <path id="패스_2769" data-name="패스 2769" d="M154.266,232.095l.334.007-.01.4a.286.286,0,0,1-.115.058.5.5,0,0,1-.149.018.533.533,0,0,1-.293-.085.493.493,0,0,1-.177-.227.9.9,0,0,1-.054-.347.832.832,0,0,1,.074-.342.518.518,0,0,1,.189-.217.5.5,0,0,1,.277-.071.414.414,0,0,1,.2.05.658.658,0,0,1,.144.11l.146-.167a.763.763,0,0,0-.195-.152.628.628,0,0,0-.3-.073.8.8,0,0,0-.316.053.7.7,0,0,0-.254.167.811.811,0,0,0-.175.273,1.077,1.077,0,0,0-.069.369,1.012,1.012,0,0,0,.092.476.714.714,0,0,0,.273.3.785.785,0,0,0,.4.113.8.8,0,0,0,.311-.051.656.656,0,0,0,.226-.137l.017-.733-.577-.013Z" transform="translate(1055.948 1177.277)" fill="#163b61"/>
    <path id="패스_2770" data-name="패스 2770" d="M155.675,232.344a.633.633,0,0,1-.15.142.281.281,0,0,1-.157.041.186.186,0,0,1-.16-.075.411.411,0,0,1-.045-.234l.017-.766-.267-.006-.017.8a.629.629,0,0,0,.085.373.342.342,0,0,0,.294.137.4.4,0,0,0,.23-.057.91.91,0,0,0,.188-.155h.007l.016.191.218,0,.029-1.267-.266-.006Z" transform="translate(1056.235 1177.36)" fill="#163b61"/>
    <path id="패스_2771" data-name="패스 2771" d="M156.867,231.527a.488.488,0,0,0-.259-.069.707.707,0,0,0-.191.021.935.935,0,0,0-.173.057,1.418,1.418,0,0,0-.149.076l.094.181a1.494,1.494,0,0,1,.177-.086.509.509,0,0,1,.191-.034.238.238,0,0,1,.145.041.2.2,0,0,1,.07.1.482.482,0,0,1,.019.136,1.451,1.451,0,0,0-.578.143.353.353,0,0,0-.189.312.375.375,0,0,0,.045.194.339.339,0,0,0,.129.132.389.389,0,0,0,.19.05.467.467,0,0,0,.218-.046,1.024,1.024,0,0,0,.189-.121h.008l.018.145.215,0,.018-.761a.774.774,0,0,0-.042-.29A.39.39,0,0,0,156.867,231.527Zm-.086.9a.754.754,0,0,1-.151.108.343.343,0,0,1-.156.034.247.247,0,0,1-.139-.044.159.159,0,0,1-.054-.138.183.183,0,0,1,.051-.123.37.37,0,0,1,.16-.091,1.289,1.289,0,0,1,.3-.054Z" transform="translate(1056.473 1177.362)" fill="#163b61"/>
    <path id="패스_2772" data-name="패스 2772" d="M157.439,231.732h0l-.017-.229-.217,0-.029,1.267.265.006.018-.786a.453.453,0,0,1,.113-.157l-.023-.212A.613.613,0,0,0,157.439,231.732Z" transform="translate(1056.713 1177.371)" fill="#163b61"/>
    <path id="패스_2773" data-name="패스 2773" d="M157.7,231.722a.359.359,0,0,1,.067,0,.621.621,0,0,1,.062.017l.051-.23a.336.336,0,0,0-.062-.021.356.356,0,0,0-.079-.008.327.327,0,0,0-.2.063.59.59,0,0,0-.063.07l.023.212c.013-.013.022-.041.036-.051A.27.27,0,0,1,157.7,231.722Z" transform="translate(1056.777 1177.368)" fill="#c78d33"/>
    <path id="패스_2774" data-name="패스 2774" d="M152.829,230.7l-.357.09a.022.022,0,0,0-.011.036c.105.111.213.079.388-.088A.022.022,0,0,0,152.829,230.7Z" transform="translate(1055.723 1177.203)" fill="#065491"/>
    <path id="패스_2775" data-name="패스 2775" d="M152.837,230.4c.008-.01-.056-.092-.067-.114v0l-.685-.936a.019.019,0,0,0-.034.006.34.34,0,0,0,.052.346C152.311,229.912,152.622,230.2,152.837,230.4Z" transform="translate(1055.634 1176.918)" fill="#065491"/>
    <path id="패스_2776" data-name="패스 2776" d="M152.737,230.565H152.2a.017.017,0,0,0-.013.028c.116.149.316.146.56,0A.017.017,0,0,0,152.737,230.565Z" transform="translate(1055.666 1177.175)" fill="#065491"/>
    <path id="패스_2777" data-name="패스 2777" d="M152.822,230.479c0-.008-.047-.027-.079-.039h0l-.761-.183a.019.019,0,0,0-.022.027.26.26,0,0,0,.224.184C152.367,230.48,152.636,230.477,152.822,230.479Z" transform="translate(1055.618 1177.11)" fill="#065491"/>
    <path id="패스_2778" data-name="패스 2778" d="M152.076,230.135c.2.081.536.195.737.266a1.08,1.08,0,0,0-.122-.08l-.734-.489a.02.02,0,0,0-.03.018C151.937,230,151.979,230.1,152.076,230.135Z" transform="translate(1055.612 1177.021)" fill="#065491"/>
    <path id="패스_2779" data-name="패스 2779" d="M153.114,230.874a.015.015,0,0,0-.025-.011l-.133.138a.014.014,0,0,0,.008.024C153.073,231.037,153.107,231,153.114,230.874Z" transform="translate(1055.827 1177.236)" fill="#065491"/>
    <path id="패스_2780" data-name="패스 2780" d="M153.237,230.893a.013.013,0,0,0-.024,0l-.091.148a.013.013,0,0,0,.012.021C153.232,231.047,153.257,231.008,153.237,230.893Z" transform="translate(1055.862 1177.242)" fill="#065491"/>
    <path id="패스_2781" data-name="패스 2781" d="M153.68,231a1.75,1.75,0,0,1-.35-.355,3.525,3.525,0,0,1-.854-1.62.013.013,0,0,0-.025,0,.776.776,0,0,0-.021.593,3.161,3.161,0,0,0,.242.472,3.393,3.393,0,0,0,1.022.982l.016-.045Z" transform="translate(1055.707 1176.85)" fill="#065491"/>
    <path id="패스_2782" data-name="패스 2782" d="M152.939,230.812l-.232.115a.019.019,0,0,0,0,.034c.111.053.16.031.257-.122A.019.019,0,0,0,152.939,230.812Z" transform="translate(1055.773 1177.227)" fill="#065491"/>
    <path id="패스_2783" data-name="패스 2783" d="M154.278,229.005s-.011,0-.023.01a.484.484,0,0,0-.045.034l-.018.015c-.241.2-.252.53-.379.8l.109-.878a.022.022,0,0,0-.038-.018c-.261.266-.22.63-.312.956-.006-.3-.011-.594-.017-.892a.022.022,0,0,0-.039-.013c-.27.323-.131.709-.171,1.074l-.132-.674a.024.024,0,0,0-.044-.007.578.578,0,0,0-.068.415c.029.156.092.4.127.552a.492.492,0,0,1-.044-.08c-.058-.132-.132-.3-.194-.442a.018.018,0,0,0-.033,0,.855.855,0,0,0,.007.334,1.632,1.632,0,0,0,.244.468,1.75,1.75,0,0,0,.35.355l.03.024h0l.686-2.029Z" transform="translate(1055.826 1176.838)" fill="#bbedff"/>
    <path id="패스_2784" data-name="패스 2784" d="M225.542,233.659l-1.463.564a.094.094,0,0,0-.025.16c.5.415.943.221,1.593-.577A.093.093,0,0,0,225.542,233.659Z" transform="translate(1070.745 1177.823)" fill="#c9c9c9"/>
    <path id="패스_2785" data-name="패스 2785" d="M225.416,232.369c.03-.042-.282-.362-.338-.444l-.007-.01-3.385-3.6a.082.082,0,0,0-.142.047,1.448,1.448,0,0,0,.4,1.433C222.937,230.574,224.4,231.621,225.416,232.369Z" transform="translate(1070.22 1176.697)" fill="#c9c9c9"/>
    <path id="패스_2786" data-name="패스 2786" d="M225.094,233.155l-2.275.278a.073.073,0,0,0-.042.123c.57.571,1.41.456,2.369-.272A.072.072,0,0,0,225.094,233.155Z" transform="translate(1070.479 1177.719)" fill="#c9c9c9"/>
    <path id="패스_2787" data-name="패스 2787" d="M225.4,232.7c-.007-.035-.214-.09-.35-.122h-.01l-3.313-.371a.083.083,0,0,0-.08.126,1.118,1.118,0,0,0,1.042.659C223.483,232.944,224.618,232.789,225.4,232.7Z" transform="translate(1070.246 1177.519)" fill="#c9c9c9"/>
    <path id="패스_2788" data-name="패스 2788" d="M222.072,231.638c.874.242,2.365.544,3.252.739a3.93,3.93,0,0,0-.555-.275l-3.361-1.678a.084.084,0,0,0-.12.092C221.41,231.129,221.644,231.519,222.072,231.638Z" transform="translate(1070.172 1177.144)" fill="#c9c9c9"/>
    <path id="패스_2789" data-name="패스 2789" d="M226.834,234.224a.062.062,0,0,0-.111-.033l-.491.653a.063.063,0,0,0,.051.1C226.745,234.939,226.872,234.77,226.834,234.224Z" transform="translate(1071.207 1177.931)" fill="#c9c9c9"/>
    <path id="패스_2790" data-name="패스 2790" d="M227.367,234.24a.056.056,0,0,0-.105-.008l-.31.673a.057.057,0,0,0,.064.079C227.426,234.89,227.5,234.716,227.367,234.24Z" transform="translate(1071.359 1177.938)" fill="#c9c9c9"/>
    <path id="패스_2791" data-name="패스 2791" d="M229.283,234.467a7.31,7.31,0,0,1-1.664-1.316,14.928,14.928,0,0,1-4.46-6.4.057.057,0,0,0-.109,0,3.268,3.268,0,0,0,.224,2.512,12.89,12.89,0,0,0,1.269,1.866,14.466,14.466,0,0,0,4.837,3.616l.041-.2Z" transform="translate(1070.51 1176.367)" fill="#c9c9c9"/>
    <path id="패스_2792" data-name="패스 2792" d="M226.065,234.066c-.3.2-.6.4-.921.609a.081.081,0,0,0,.018.143c.5.169.688.052,1.018-.651A.079.079,0,0,0,226.065,234.066Z" transform="translate(1070.974 1177.907)" fill="#c9c9c9"/>
    <path id="패스_2793" data-name="패스 2793" d="M230.692,225.8c-.011-.008-.046.015-.091.052a2.366,2.366,0,0,0-.173.165l-.068.07c-.912.991-.784,2.373-1.18,3.577q0-1.887,0-3.773a.092.092,0,0,0-.165-.056c-.964,1.261-.6,2.779-.817,4.2q-.272-1.878-.542-3.758a.093.093,0,0,0-.169-.037c-.97,1.506-.181,3.067-.156,4.629-.3-.912-.6-1.825-.911-2.774a.1.1,0,0,0-.189-.011,2.453,2.453,0,0,0-.065,1.788c.2.645.6,1.632.825,2.269a2.431,2.431,0,0,1-.227-.317c-.316-.526-.717-1.206-1.05-1.764a.073.073,0,0,0-.134.033,3.685,3.685,0,0,0,.2,1.407,6.913,6.913,0,0,0,1.281,1.848,7.309,7.309,0,0,0,1.664,1.316l.139.086v0l1.834-8.933Z" transform="translate(1071.07 1176.173)" fill="#c93227"/>
    <path id="패스_2794" data-name="패스 2794" d="M343.179,240.938l-3.069.68a.188.188,0,0,0-.1.309c.872.973,1.8.722,3.333-.668A.186.186,0,0,0,343.179,240.938Z" transform="translate(1095.083 1179.352)" fill="#c9c9c9"/>
    <path id="패스_2795" data-name="패스 2795" d="M343.314,238.416c.074-.075-.45-.8-.536-.982l-.011-.019-5.635-8.154a.166.166,0,0,0-.3.051c-.313,1.159-.379,2.165.37,2.963C338.935,234.116,341.528,236.629,343.314,238.416Z" transform="translate(1094.381 1176.887)" fill="#c9c9c9"/>
    <path id="패스_2796" data-name="패스 2796" d="M342.425,239.784l-4.6-.129a.145.145,0,0,0-.12.232c.958,1.3,2.658,1.328,4.78.169A.145.145,0,0,0,342.425,239.784Z" transform="translate(1094.604 1179.083)" fill="#c9c9c9"/>
    <path id="패스_2797" data-name="패스 2797" d="M343.163,239.071c0-.073-.4-.243-.658-.347l-.018-.007c-2.116-.565-4.231-1.131-6.457-1.728a.168.168,0,0,0-.2.225,2.245,2.245,0,0,0,1.869,1.62C339.279,238.979,341.578,239.012,343.163,239.071Z" transform="translate(1094.214 1178.522)" fill="#c9c9c9"/>
    <path id="패스_2798" data-name="패스 2798" d="M336.876,235.966c1.659.742,4.526,1.788,6.226,2.44a8.083,8.083,0,0,0-1.019-.711l-6.163-4.334a.168.168,0,0,0-.264.146C335.714,234.758,336.061,235.6,336.876,235.966Z" transform="translate(1094.179 1177.756)" fill="#c9c9c9"/>
    <path id="패스_2799" data-name="패스 2799" d="M345.575,242.5a.125.125,0,0,0-.212-.1l-1.169,1.148a.126.126,0,0,0,.07.214C345.185,243.889,345.487,243.591,345.575,242.5Z" transform="translate(1095.964 1179.651)" fill="#c9c9c9"/>
    <path id="패스_2800" data-name="패스 2800" d="M346.627,242.7a.113.113,0,0,0-.206-.047l-.815,1.24a.114.114,0,0,0,.1.175C346.549,244,346.758,243.683,346.627,242.7Z" transform="translate(1096.264 1179.701)" fill="#c9c9c9"/>
    <path id="패스_2801" data-name="패스 2801" d="M350.39,243.73a14.714,14.714,0,0,1-2.9-3.108,29.947,29.947,0,0,1-6.928-14.02.114.114,0,0,0-.217-.028,6.554,6.554,0,0,0-.307,5.049,25.753,25.753,0,0,0,1.958,4.081,29,29,0,0,0,8.508,8.621l.14-.382Z" transform="translate(1095.021 1176.323)" fill="#c9c9c9"/>
    <path id="패스_2802" data-name="패스 2802" d="M344.1,241.931l-2.008.932a.16.16,0,0,0-.007.287c.934.485,1.349.311,2.213-.985A.159.159,0,0,0,344.1,241.931Z" transform="translate(1095.51 1179.558)" fill="#c9c9c9"/>
    <path id="패스_2803" data-name="패스 2803" d="M355.961,226.785c-.019-.022-.1.013-.195.074-.117.071-.265.178-.393.275l-.156.119c-2.106,1.691-2.266,4.472-3.411,6.739l1.122-7.482a.185.185,0,0,0-.31-.16c-2.292,2.212-2.027,5.331-2.88,8.089q.025-3.808.052-7.616a.185.185,0,0,0-.324-.123c-2.375,2.7-1.28,6.028-1.7,9.13-.321-1.9-.64-3.8-.973-5.771a.2.2,0,0,0-.373-.08,4.914,4.914,0,0,0-.665,3.527c.209,1.341.693,3.414.957,4.746a4.989,4.989,0,0,1-.356-.7c-.469-1.14-1.061-2.607-1.555-3.812a.145.145,0,0,0-.275.023,7.374,7.374,0,0,0-.021,2.851,13.832,13.832,0,0,0,1.988,4.05,14.712,14.712,0,0,0,2.9,3.108l.249.212,0-.007,6.315-17.164C355.966,226.8,355.966,226.79,355.961,226.785Z" transform="translate(1096.01 1176.279)" fill="#c93227"/>
    <path id="패스_2814" data-name="패스 2814" d="M173.573,199.093l.782.29s4.362,9.881,2.294,12.15-.2,2.423-3.076,2.573-7.524-3.178-7.524-3.178h-.819l7.234-3.025Z" transform="translate(1058.404 1170.568)" fill="#000075"/>
    <path id="패스_2815" data-name="패스 2815" d="M165.229,209.29s7.272-2.111,7.355-2.769,1.191-5.385,1.191-5.385l.4,10.673Z" transform="translate(1058.404 1170.997)" fill="#000075"/>
    <path id="패스_2816" data-name="패스 2816" d="M159.447,210.352l1.448,3.209s4.286-1.971,6.452-4.681-4.486-.3-4.486-.3l-5.687-.985Z" transform="translate(1056.714 1172.353)" fill="#000075"/>
    <path id="패스_2817" data-name="패스 2817" d="M164.2,212.4s2.534-1.972,2.647-2.88.911.705.911.705,4.192,3.378,5.4,2.773,2.54,1.157,3.88-1.841-5.316-5.342-5.316-5.342-13.158,7.372-12.024,1.361" transform="translate(1057.229 1171.979)" fill="#000075"/>
    <path id="패스_2818" data-name="패스 2818" d="M168.927,212.009s2.76,1.735,5.305.242a4.667,4.667,0,0,0,2.26-4.293Z" transform="translate(1059.181 1172.43)" fill="#000075"/>
  </g>
</svg>
