<svg xmlns="http://www.w3.org/2000/svg" width="105.005" height="122.965" viewBox="0 0 105.005 122.965">
  <g id="그룹_430" data-name="그룹 430" transform="translate(-1084.505 -1202.077)">
    <path id="패스_2512" data-name="패스 2512" d="M90.16,91.752a.635.635,0,0,1,1.228-.327L102.6,133.254,113.8,91.425a.635.635,0,1,1,1.227.327l-10.89,40.643,28.81-41.17a.633.633,0,1,1,1.038.726l-27.95,39.939L153.2,91.109a.633.633,0,1,1,.829.958c-16.006,13.84-36.283,29.623-51,44.1a.642.642,0,0,1-.2.132l-.027.008a.688.688,0,0,1-.189.038h-.042a.7.7,0,0,1-.188-.038l-.027-.008a.662.662,0,0,1-.2-.132c-14.717-14.475-34.994-30.259-51-44.1a.634.634,0,1,1,.83-.958L99.152,131.89,71.2,91.951a.633.633,0,1,1,1.038-.726l28.812,41.17Z" transform="translate(1034.412 1147.868)" fill="#d8d8d8" fill-rule="evenodd"/>
    <path id="패스_2513" data-name="패스 2513" d="M70.5,122.043l67.171.535-7.6,48.07H78.89Z" transform="translate(1038.519 1154.395)" fill="#c78d33" fill-rule="evenodd"/>
    <path id="패스_2514" data-name="패스 2514" d="M68.331,122.043h71.1l-.954,9.408h-68.6Z" transform="translate(1038.063 1154.395)" fill="#c78d33" fill-rule="evenodd"/>
    <path id="패스_2515" data-name="패스 2515" d="M63.8,122.043l67.171.535L70.24,131.142l58.74,3.793-5.6,35.713H72.2Z" transform="translate(1037.113 1154.395)" fill="#e6b15b" fill-rule="evenodd"/>
    <path id="패스_2516" data-name="패스 2516" d="M62.032,122.043h71.1l-.953,9.408H63.58Z" transform="translate(1036.741 1154.395)" fill="#e9b864" fill-rule="evenodd"/>
    <path id="패스_2517" data-name="패스 2517" d="M87.724,121.255h8.93v14.652l-.344-.345-.993.993-.992-.993-.993.993-.992-.993-.993.993-.992-.993-.991.993-.993-.993-.646.649V121.255Zm1.639,15.42.06.06H89.3l.062-.06Zm1.983,0,.063.06h-.123l.061-.06Zm1.985,0,.06.06h-.121l.061-.06Zm1.985,0,.061.06h-.121Z" transform="translate(1042.135 1154.229)" fill="#f1d3a4" fill-rule="evenodd"/>
    <path id="패스_2518" data-name="패스 2518" d="M94.611,135.722c7.436-.323,13.73,4.957,14.058,11.8s-5.431,12.64-12.866,12.963-13.729-4.957-14.057-11.793S87.176,136.045,94.611,135.722Z" transform="translate(1040.877 1157.263)" fill="#fff" fill-rule="evenodd"/>
    <path id="패스_2519" data-name="패스 2519" d="M68.533,132.807a.249.249,0,1,1,0-.5H83.32a.249.249,0,0,1,0,.5Z" transform="translate(1038.054 1156.55)" fill="#c78d33" fill-rule="evenodd"/>
    <path id="패스_2520" data-name="패스 2520" d="M68.533,135.349a.247.247,0,1,1,0-.495H83.32a.247.247,0,1,1,0,.495Z" transform="translate(1038.054 1157.084)" fill="#c78d33" fill-rule="evenodd"/>
    <path id="패스_2521" data-name="패스 2521" d="M68.533,137.892a.248.248,0,1,1,0-.5H83.32a.248.248,0,0,1,0,.5Z" transform="translate(1038.054 1157.617)" fill="#c78d33" fill-rule="evenodd"/>
    <path id="패스_2522" data-name="패스 2522" d="M103.968,136a.247.247,0,1,1,0-.494h14.788a.247.247,0,1,1,0,.494Z" transform="translate(1045.492 1157.222)" fill="#c78d33" fill-rule="evenodd"/>
    <path id="패스_2523" data-name="패스 2523" d="M103.968,138.547a.247.247,0,1,1,0-.495h14.788a.247.247,0,1,1,0,.495Z" transform="translate(1045.492 1157.755)" fill="#c78d33" fill-rule="evenodd"/>
    <path id="패스_2524" data-name="패스 2524" d="M102.8,60.583A54.89,54.89,0,0,0,50.239,99.661c1.74-1.6,5.249-2.7,9.295-2.7,4.71,0,8.688,1.482,10,3.521h.918c1.313-2.039,5.293-3.521,10-3.521,4.265,0,7.931,1.217,9.561,2.961,2.178-1.743,7.08-2.961,12.782-2.961,5.376,0,10.042,1.082,12.382,2.668,1.532-1.848,5.312-3.155,9.735-3.155,5.077,0,9.307,1.723,10.26,4.008h.4c.951-2.286,5.183-4.008,10.258-4.008,4.135,0,7.707,1.141,9.406,2.8A54.888,54.888,0,0,0,102.8,60.583Z" transform="translate(1034.266 1141.494)" fill="#d06b59" fill-rule="evenodd"/>
    <path id="패스_2525" data-name="패스 2525" d="M99.329,60.583c-15.483,0-28.538,16.873-32.555,39.9h.209c1.313-2.039,5.293-3.521,10-3.521,4.265,0,7.931,1.217,9.561,2.961,2.178-1.743,7.08-2.961,12.782-2.961,5.376,0,10.042,1.082,12.382,2.668,1.532-1.848,5.312-3.155,9.735-3.155,5.077,0,9.307,1.723,10.26,4.008h.175C127.867,77.456,114.812,60.583,99.329,60.583Z" transform="translate(1037.737 1141.494)" fill="#ebebeb" fill-rule="evenodd"/>
    <path id="패스_2526" data-name="패스 2526" d="M95.8,60.583c-5.771,0-10.651,16.411-12.238,38.954C85.95,98,90.535,96.965,95.8,96.965s9.855,1.038,12.238,2.572C106.454,76.994,101.576,60.583,95.8,60.583Z" transform="translate(1041.262 1141.494)" fill="#d16e61" fill-rule="evenodd"/>
    <path id="패스_2527" data-name="패스 2527" d="M126.461,100.486c.951-2.286,5.183-4.008,10.258-4.008,4.135,0,7.707,1.141,9.406,2.8A54.888,54.888,0,0,0,93.681,60.583c15.483,0,28.538,16.873,32.553,39.9Z" transform="translate(1043.385 1141.494)" fill="#bf4b18" fill-rule="evenodd"/>
    <path id="패스_2804" data-name="패스 2804" d="M91.3,151.789l-2.547.627a.158.158,0,0,0-.077.26c.747.795,1.518.567,2.768-.622A.156.156,0,0,0,91.3,151.789Z" transform="translate(1042.327 1160.638)" fill="#c9c9c9"/>
    <path id="패스_2805" data-name="패스 2805" d="M91.366,149.671c.06-.063-.391-.658-.466-.808l-.01-.016-4.859-6.7a.138.138,0,0,0-.246.047,2.427,2.427,0,0,0,.367,2.467C87.629,146.169,89.841,148.215,91.366,149.671Z" transform="translate(1041.695 1158.604)" fill="#c9c9c9"/>
    <path id="패스_2806" data-name="패스 2806" d="M90.655,150.832l-3.837-.021a.122.122,0,0,0-.1.2c.825,1.068,2.243,1.056,3.991.048A.121.121,0,0,0,90.655,150.832Z" transform="translate(1041.92 1160.434)" fill="#c9c9c9"/>
    <path id="패스_2807" data-name="패스 2807" d="M91.258,150.221c0-.06-.336-.195-.557-.277l-.016,0-5.42-1.318a.14.14,0,0,0-.161.191,1.868,1.868,0,0,0,1.591,1.315C88.015,150.22,89.933,150.2,91.258,150.221Z" transform="translate(1041.583 1159.973)" fill="#c9c9c9"/>
    <path id="패스_2808" data-name="패스 2808" d="M85.95,147.752c1.4.587,3.812,1.4,5.243,1.916a6.594,6.594,0,0,0-.863-.575L85.1,145.6a.14.14,0,0,0-.217.127C84.958,146.765,85.264,147.464,85.95,147.752Z" transform="translate(1041.539 1159.334)" fill="#c9c9c9"/>
    <path id="패스_2809" data-name="패스 2809" d="M93.333,153.038a.1.1,0,0,0-.179-.079l-.953.98a.106.106,0,0,0,.063.178C93.034,154.206,93.279,153.952,93.333,153.038Z" transform="translate(1043.068 1160.878)" fill="#c9c9c9"/>
    <path id="패스_2810" data-name="패스 2810" d="M94.214,153.184a.094.094,0,0,0-.173-.036c-.22.352-.427.684-.656,1.051a.094.094,0,0,0,.088.144C94.174,154.275,94.343,154,94.214,153.184Z" transform="translate(1043.32 1160.915)" fill="#c9c9c9"/>
    <path id="패스_2811" data-name="패스 2811" d="M97.369,153.973a12.293,12.293,0,0,1-2.484-2.538,24.983,24.983,0,0,1-6.052-11.566.1.1,0,0,0-.183-.019,5.475,5.475,0,0,0-.158,4.219,21.7,21.7,0,0,0,1.712,3.368,24.221,24.221,0,0,0,7.267,7.028l.11-.322Z" transform="translate(1042.223 1158.12)" fill="#c9c9c9"/>
    <path id="패스_2812" data-name="패스 2812" d="M92.087,152.6l-1.658.815a.134.134,0,0,0,0,.24c.789.387,1.131.233,1.827-.864A.132.132,0,0,0,92.087,152.6Z" transform="translate(1042.688 1160.806)" fill="#c9c9c9"/>
    <path id="패스_2813" data-name="패스 2813" d="M101.67,139.749c-.017-.017-.08.013-.161.067-.1.062-.218.154-.323.236-.047.038-.092.073-.128.1-1.724,1.452-1.8,3.775-2.715,5.689q.4-3.132.79-6.265a.154.154,0,0,0-.261-.128c-1.869,1.891-1.587,4.489-2.247,6.807q-.051-3.178-.1-6.357a.155.155,0,0,0-.273-.1c-1.93,2.3-.952,5.055-1.241,7.653-.3-1.578-.607-3.155-.923-4.8a.171.171,0,0,0-.312-.059,4.108,4.108,0,0,0-.488,2.957c.2,1.113.645,2.835.891,3.941a4.279,4.279,0,0,1-.311-.573c-.414-.943-.935-2.156-1.371-3.152a.121.121,0,0,0-.229.024,6.151,6.151,0,0,0,.039,2.38,11.561,11.561,0,0,0,1.737,3.341,12.293,12.293,0,0,0,2.484,2.538l.212.171,0-.006,4.936-14.444Z" transform="translate(1043.067 1158.04)" fill="#c93227"/>
  </g>
</svg>
