<svg xmlns="http://www.w3.org/2000/svg" width="54.28" height="63.56" viewBox="0 0 54.28 63.56">
  <g id="그룹_433" data-name="그룹 433" transform="translate(-1446.031 -1193.445)">
    <path id="패스_2564" data-name="패스 2564" d="M369.364,69.732a.727.727,0,1,1,1.406-.374l5.408,20.179,5.4-20.179a.727.727,0,1,1,1.4.374l-5.043,18.821,13.593-19.424a.728.728,0,0,1,1.194.832l-12.61,18.014L402.075,69a.727.727,0,0,1,.951,1.1c-8.354,7.224-18.585,15.238-26.345,22.78a.791.791,0,0,1-.25.157l-.016,0a.775.775,0,0,1-.195.04c-.03,0-.059,0-.085,0a.8.8,0,0,1-.2-.04l-.016,0a.724.724,0,0,1-.247-.157c-7.764-7.543-17.991-15.556-26.345-22.78a.725.725,0,1,1,.947-1.1l21.953,18.98L359.623,69.962a.726.726,0,1,1,1.191-.832l13.593,19.424Z" transform="translate(1096.996 1143.222)" fill="#d8d8d8" fill-rule="evenodd"/>
    <path id="패스_2565" data-name="패스 2565" d="M359.514,85.217l34.723.277-3.929,24.847H363.853Z" transform="translate(1099.187 1146.665)" fill="#c4c4c4" fill-rule="evenodd"/>
    <path id="패스_2566" data-name="패스 2566" d="M358.394,85.217h36.752l-.493,4.864H359.193Z" transform="translate(1098.951 1146.665)" fill="#c4c4c4" fill-rule="evenodd"/>
    <path id="패스_2567" data-name="패스 2567" d="M356.054,85.217l34.723.277-31.395,4.427,30.359,1.96-2.894,18.46H360.392Z" transform="translate(1098.46 1146.665)" fill="#c4c4c4" fill-rule="evenodd"/>
    <path id="패스_2568" data-name="패스 2568" d="M355.141,85.217h36.749l-.49,4.864H355.942Z" transform="translate(1098.269 1146.665)" fill="#c4c4c4" fill-rule="evenodd"/>
    <path id="패스_2569" data-name="패스 2569" d="M368.418,84.809h4.617v7.575l-.175-.178-.515.512-.512-.512-.514.512-.512-.512-.514.512-.509-.512-.515.512-.512-.512-.338.334V84.809Zm.849,7.972.03.03h-.062l.031-.03Zm1.025,0,.035.03h-.063l.028-.03Zm1.026,0,.033.03h-.063l.03-.03Zm1.026,0,.033.03h-.064Z" transform="translate(1101.056 1146.579)" fill="#c4c4c4" fill-rule="evenodd"/>
    <path id="패스_2570" data-name="패스 2570" d="M371.979,92.288a6.741,6.741,0,0,1,7.268,6.1,6.663,6.663,0,0,1-6.647,6.7,6.741,6.741,0,0,1-7.269-6.1A6.663,6.663,0,0,1,371.979,92.288Z" transform="translate(1100.406 1148.147)" fill="#fff" fill-rule="evenodd"/>
    <path id="패스_2571" data-name="패스 2571" d="M358.5,90.779a.128.128,0,1,1,0-.255h7.643a.128.128,0,1,1,0,.255Z" transform="translate(1098.946 1147.778)" fill="#c4c4c4" fill-rule="evenodd"/>
    <path id="패스_2572" data-name="패스 2572" d="M358.5,92.1a.129.129,0,1,1,0-.258h7.643a.129.129,0,1,1,0,.258Z" transform="translate(1098.946 1148.054)" fill="#c4c4c4" fill-rule="evenodd"/>
    <path id="패스_2573" data-name="패스 2573" d="M358.5,93.408a.128.128,0,0,1-.129-.126.13.13,0,0,1,.129-.129h7.643a.132.132,0,0,1,.132.129.13.13,0,0,1-.132.126Z" transform="translate(1098.946 1148.33)" fill="#c4c4c4" fill-rule="evenodd"/>
    <path id="패스_2574" data-name="패스 2574" d="M376.815,92.436a.129.129,0,0,1,0-.259h7.645a.129.129,0,0,1,0,.259Z" transform="translate(1102.792 1148.125)" fill="#c4c4c4" fill-rule="evenodd"/>
    <path id="패스_2575" data-name="패스 2575" d="M376.815,93.749a.128.128,0,0,1,0-.257h7.645a.128.128,0,0,1,0,.257Z" transform="translate(1102.792 1148.401)" fill="#c4c4c4" fill-rule="evenodd"/>
    <path id="패스_2576" data-name="패스 2576" d="M376.214,53.449a28.372,28.372,0,0,0-27.171,20.2,7.488,7.488,0,0,1,4.8-1.393c2.434,0,4.492.766,5.172,1.82h.474c.676-1.054,2.734-1.82,5.169-1.82,2.2,0,4.1.628,4.943,1.529,1.128-.9,3.661-1.529,6.609-1.529a12.586,12.586,0,0,1,6.4,1.377c.79-.953,2.742-1.631,5.026-1.631,2.624,0,4.813.891,5.305,2.074h.212c.49-1.183,2.679-2.074,5.3-2.074a7.349,7.349,0,0,1,4.864,1.448A28.374,28.374,0,0,0,376.214,53.449Z" transform="translate(1096.988 1139.996)" fill="#c4c4c4" fill-rule="evenodd"/>
    <path id="패스_2577" data-name="패스 2577" d="M374.42,53.449c-8,0-14.751,8.722-16.829,20.627h.109c.676-1.054,2.734-1.82,5.169-1.82,2.2,0,4.1.628,4.942,1.529,1.128-.9,3.661-1.529,6.609-1.529a12.586,12.586,0,0,1,6.4,1.377c.79-.953,2.742-1.631,5.026-1.631,2.624,0,4.813.891,5.305,2.074h.092C389.17,62.171,382.418,53.449,374.42,53.449Z" transform="translate(1098.783 1139.996)" fill="#c4c4c4" fill-rule="evenodd"/>
    <path id="패스_2578" data-name="패스 2578" d="M372.6,53.449c-2.985,0-5.506,8.481-6.329,20.135a15.729,15.729,0,0,1,12.653,0C378.1,61.93,375.579,53.449,372.6,53.449Z" transform="translate(1100.604 1139.996)" fill="#c4c4c4" fill-rule="evenodd"/>
    <path id="패스_2579" data-name="패스 2579" d="M388.445,74.076c.49-1.183,2.679-2.074,5.3-2.074a7.349,7.349,0,0,1,4.864,1.448,28.374,28.374,0,0,0-27.108-20c8,0,14.75,8.722,16.825,20.627Z" transform="translate(1101.703 1139.996)" fill="#c4c4c4" fill-rule="evenodd"/>
    <path id="패스_2580" data-name="패스 2580" d="M370.964,94.474c-.866.087-2.088.3-2.57,1.056s-.829,1.434-.829,1.434l1.31,1.24.826-.1.046,4.212,5.14-.207-.221-4.4.58.5,1.6-1.643a15.624,15.624,0,0,0-1.993-2.008,4.068,4.068,0,0,0-1.463-.133C371.842,96.115,372.4,95.628,370.964,94.474Z" transform="translate(1100.877 1148.598)" fill="#c4c4c4" fill-rule="evenodd"/>
  </g>
</svg>
