<svg xmlns="http://www.w3.org/2000/svg" width="32.33" height="32.004" viewBox="0 0 32.33 32.004">
  <g id="그룹_375" data-name="그룹 375" transform="translate(18612 23292.607)">
    <g id="그룹_374" data-name="그룹 374" transform="translate(-18612 -23292.607)">
      <g id="그룹_365" data-name="그룹 365">
        <path id="패스_269" data-name="패스 269" d="M328.851-33.3l-4.513,1.236a.28.28,0,0,0-.126.466c1.367,1.383,2.734.942,4.908-1.236A.278.278,0,0,0,328.851-33.3Z" transform="translate(-315.661 60.405)" fill="#004481"/>
        <path id="패스_270" data-name="패스 270" d="M328.318-38.7c.105-.116-.727-1.156-.867-1.421-.005-.01-.011-.018-.018-.028-2.942-3.84-5.885-7.683-8.974-11.713a.245.245,0,0,0-.434.1c-.382,1.746-.406,3.246.766,4.38C321.494-44.77,325.532-41.223,328.318-38.7Z" transform="translate(-316.336 58.423)" fill="#004481"/>
        <path id="패스_271" data-name="패스 271" d="M327.324-35.135l-6.841.143a.217.217,0,0,0-.163.354c1.521,1.868,4.05,1.781,7.121-.1A.216.216,0,0,0,327.324-35.135Z" transform="translate(-316.072 60.212)" fill="#004481"/>
        <path id="패스_272" data-name="패스 272" d="M328.093-36.622c-.011-.107-.608-.333-1-.469l-.029-.008-9.726-2.1a.249.249,0,0,0-.278.349,3.338,3.338,0,0,0,2.9,2.272C322.312-36.476,325.731-36.594,328.093-36.622Z" transform="translate(-316.417 59.779)" fill="#004481"/>
        <path id="패스_273" data-name="패스 273" d="M318.47-41.289c2.521.982,6.861,2.33,9.436,3.176a11.946,11.946,0,0,0-1.567-.985l-9.481-5.994a.25.25,0,0,0-.382.236C316.654-43,317.232-41.77,318.47-41.289Z" transform="translate(-316.476 59.149)" fill="#004481"/>
        <path id="패스_274" data-name="패스 274" d="M333.118-31a.186.186,0,0,0-.322-.133l-1.654,1.792a.188.188,0,0,0,.119.313C332.64-28.906,333.066-29.371,333.118-31Z" transform="translate(-314.921 60.631)" fill="#004481"/>
        <path id="패스_275" data-name="패스 275" d="M334.9-30.761a.169.169,0,0,0-.311-.056l-1.122,1.9a.169.169,0,0,0,.166.253C334.877-28.813,335.164-29.306,334.9-30.761Z" transform="translate(-314.671 60.663)" fill="#004481"/>
        <path id="패스_276" data-name="패스 276" d="M339.623-31.7a21.913,21.913,0,0,1-4.546-4.411c-8.587-9.226-10.867-18.124-11.323-20.343a.17.17,0,0,0-.325-.025,9.762,9.762,0,0,0-.088,7.531,38.647,38.647,0,0,0,3.207,5.925,43.193,43.193,0,0,0,13.28,12.2l.182-.58Z" transform="translate(-315.822 57.93)" fill="#004481"/>
        <path id="패스_277" data-name="패스 277" d="M330.576-31.78l-2.919,1.532a.239.239,0,0,0,.011.427c1.424.653,2.027.364,3.217-1.625A.237.237,0,0,0,330.576-31.78Z" transform="translate(-315.3 60.566)" fill="#004481"/>
        <path id="패스_278" data-name="패스 278" d="M347.286-57.312c-.03-.03-.142.028-.284.125-.168.115-.382.284-.564.437-.084.069-.16.134-.224.188-3.008,2.67-3.044,6.814-4.58,10.268L342.755-57.5a.275.275,0,0,0-.472-.215c-3.245,3.455-2.624,8.074-3.693,12.239q-.239-5.666-.476-11.329a.277.277,0,0,0-.492-.16c-3.336,4.182-1.464,9.057-1.86,13.7-.615-2.8-1.228-5.6-1.868-8.512a.305.305,0,0,0-.56-.091,7.316,7.316,0,0,0-.732,5.293c.409,1.977,1.279,5.027,1.768,6.987a7.5,7.5,0,0,1-.58-1.009c-.781-1.661-1.767-3.8-2.589-5.556a.216.216,0,0,0-.407.054,10.982,10.982,0,0,0,.178,4.241,20.62,20.62,0,0,0,3.251,5.876,21.914,21.914,0,0,0,4.546,4.411l.386.3,0-.01L347.3-57.268A.131.131,0,0,0,347.286-57.312Z" transform="translate(-314.967 57.801)" fill="#139fdf"/>
      </g>
    </g>
  </g>
</svg>
