<svg xmlns="http://www.w3.org/2000/svg" width="485.818" height="481.606" viewBox="0 0 485.818 481.606">
  <g id="그룹_317" data-name="그룹 317" transform="translate(-1135.026 -172.284)">
    <path id="패스_2166" data-name="패스 2166" d="M1214.4,426.144l92.786-157.459.2.411,75.075,157.514-.364.017Zm92.743-156.426-91.868,155.9,166.431.545Z" transform="translate(-2.233 -2.712)" fill="#b2b2b2"/>
    <path id="패스_2167" data-name="패스 2167" d="M1384.719,426.876l-.183-.38L1309.43,268.918l.435.049,160.995,17.951-.228.333ZM1310.246,269.5l74.546,156.408L1470,287.311Z" transform="translate(-4.906 -2.718)" fill="#b2b2b2"/>
    <path id="패스_2168" data-name="패스 2168" d="M1470.8,285.034l-.405-.045L1309.15,267.01l.543-.369,120.333-81.864.113.279Zm-160.292-18.362,159.534,17.788L1429.8,185.517Z" transform="translate(-4.898 -0.351)" fill="#b2b2b2"/>
    <path id="패스_2169" data-name="패스 2169" d="M1308.741,267.2l-.124-.251-34.853-70.756.359-.026L1429.8,184.84Zm-34.222-70.574,34.41,69.858,119.105-81.027Z" transform="translate(-3.903 -0.353)" fill="#b2b2b2"/>
    <path id="패스_2170" data-name="패스 2170" d="M1274.168,196.394l-.063-.481,105.863-20.22.045.009,50.836,9.293Zm105.8-20.206L1278.3,195.606l148.7-10.819Z" transform="translate(-3.912 -0.096)" fill="#b2b2b2"/>
    <path id="패스_2171" data-name="패스 2171" d="M1552.936,290.057l-79.235-5.131-.057-.143-40.854-100.5Zm-78.9-5.6,77.508,5.022-117.554-103.5Z" transform="translate(-8.376 -0.337)" fill="#b2b2b2"/>
    <path id="패스_2172" data-name="패스 2172" d="M1552.781,290.835l-120.56-106.393,80.37,30.3.043.082Zm-118.25-105,116.58,102.881-38.863-73.585Z" transform="translate(-8.36 -0.342)" fill="#b2b2b2"/>
    <path id="패스_2173" data-name="패스 2173" d="M1554.4,290.92l-40.666-76.457L1580.7,281.2Zm-38.719-73.829,38.949,73.226,25.185-9.308Z" transform="translate(-10.653 -1.187)" fill="#b2b2b2"/>
    <path id="패스_2174" data-name="패스 2174" d="M1602.777,317.218l-47.7-24.716,26.443-9.772Zm-46.5-24.641,45.161,23.4-20.124-32.656Z" transform="translate(-11.817 -3.107)" fill="#b2b2b2"/>
    <path id="패스_2175" data-name="패스 2175" d="M1562.912,429.44l-.476-.034-175.952-2.289.239-.35,85.886-139.583.2.315Zm-175.55-2.748,174.632,2.2L1472.59,288.072Z" transform="translate(-7.074 -3.232)" fill="#b2b2b2"/>
    <path id="패스_2176" data-name="패스 2176" d="M1459.656,588.165l-.18-.395-72.944-157.1,176.359,2.349-.236.349Zm-72.341-156.953,72.425,155.964,102.278-153.731Z" transform="translate(-7.075 -7.269)" fill="#b2b2b2"/>
    <path id="패스_2177" data-name="패스 2177" d="M1302.711,565.755l-.226-.346L1214.4,430.2l.424-.02,167.671.664-.2.377Zm-87.439-135.11,87.4,134.153,79-133.428Z" transform="translate(-2.233 -7.255)" fill="#b2b2b2"/>
    <path id="패스_2178" data-name="패스 2178" d="M1201.909,571.116l.025-.279,12.37-141.151.386.59,88.08,135.205-.419.023Zm12.758-139.985L1202.443,570.6l99.462-5.557Z" transform="translate(-1.881 -7.241)" fill="#b2b2b2"/>
    <path id="패스_2179" data-name="패스 2179" d="M1338.626,657.615l-137.264-83.039.784-.045,100.335-5.6.066.16Zm-135.667-82.642,134.664,81.467-35.461-87.009Z" transform="translate(-1.866 -11.158)" fill="#b2b2b2"/>
    <path id="패스_2180" data-name="패스 2180" d="M1339.945,657.992l-77-24.161L1200.4,573.573Zm-76.7-24.549,73.007,22.883-132.383-80.087Z" transform="translate(-1.839 -11.289)" fill="#b2b2b2"/>
    <path id="패스_2181" data-name="패스 2181" d="M1201.337,572.487,1171.565,535.7,1136.886,430.5l.452-.176ZM1172.013,535.5l27.342,33.764-60.553-134.5Z" transform="translate(-0.052 -7.259)" fill="#b2b2b2"/>
    <path id="패스_2182" data-name="패스 2182" d="M1381.82,665.072l-.036-.006-41.965-5.9,145.987-11.93.06.482Zm-37.6-5.778,37.595,5.286,98.251-16.386Z" transform="translate(-5.761 -13.361)" fill="#b2b2b2"/>
    <path id="패스_2183" data-name="패스 2183" d="M1340.914,657.373l-36.067-88.5.421.063,152.865,22.484-.613.349Zm-35.294-87.894,35.535,87.2,115.511-64.983Z" transform="translate(-4.777 -11.156)" fill="#b2b2b2"/>
    <path id="패스_2184" data-name="패스 2184" d="M1340.976,658l.955-.544,116.583-65.591.117.222,27.617,54.042-.368.03Zm117.343-65.464-115.19,64.8,142.342-11.629Z" transform="translate(-5.794 -11.803)" fill="#b2b2b2"/>
    <path id="패스_2185" data-name="패스 2185" d="M1489.185,645.376l-.152-.284-27.586-53.708.293-.082,117.907-32.984-.69.666Zm-27.023-53.687,27.148,52.891,88.618-85.281Z" transform="translate(-9.183 -10.859)" fill="#b2b2b2"/>
    <path id="패스_2186" data-name="패스 2186" d="M1200.5,571.821,1136.735,430.18h76.182l-.022.263Zm-63.016-141.155,62.694,139.257,12.206-139.257Z" transform="translate(-0.048 -7.255)" fill="#b2b2b2"/>
    <path id="패스_2187" data-name="패스 2187" d="M1180.347,302.306l.522-.606,90.7-105.406.162.329,34.823,70.7Zm91.111-105.139-89.7,104.243,124.1-34.4Z" transform="translate(-1.275 -0.675)" fill="#b2b2b2"/>
    <path id="패스_2188" data-name="패스 2188" d="M1212.97,427.118h-76.2l.113-.324,42.974-122.727Zm-75.514-.486h74.881l-32.54-120.92Z" transform="translate(-0.049 -3.707)" fill="#b2b2b2"/>
    <path id="패스_2189" data-name="패스 2189" d="M1137.346,426.95l-.466-.139,25.2-103.02.043-.047,18.326-19.891Zm25.175-102.922-23.978,98.031,40.669-116.148Z" transform="translate(-0.052 -3.701)" fill="#b2b2b2"/>
    <path id="패스_2190" data-name="패스 2190" d="M1162.1,322.236l13.32-27.991,95.4-97.676.357.328-90.46,105.127Zm13.7-27.68-11.88,24.992L1180.36,301.7l85.432-99.284Z" transform="translate(-0.762 -0.683)" fill="#b2b2b2"/>
    <path id="패스_2191" data-name="패스 2191" d="M1213.807,426.5l-.15-.558-32.89-122.218.232-.064,125.735-34.854-.305.518Zm-32.446-122.436,32.615,121.193L1305.7,269.6Z" transform="translate(-1.287 -2.715)" fill="#b2b2b2"/>
    <path id="패스_2192" data-name="패스 2192" d="M1457.808,587.973l-.444-.065-152.506-22.431.161-.3,79.661-134.6.205.449Zm-152.2-22.876,151.384,22.265-72.345-155.694Z" transform="translate(-4.778 -7.266)" fill="#b2b2b2"/>
    <path id="패스_2193" data-name="패스 2193" d="M1461.227,588.151l.371-.546,103.121-154.413.078.643,14.251,121.633-.2.056Zm103.166-153.616-102.022,152.8,116.144-32.221Z" transform="translate(-9.176 -7.34)" fill="#b2b2b2"/>
    <path id="패스_2194" data-name="패스 2194" d="M1581.637,556.248l-14.372-123.224,63.325,1.711.082.334ZM1567.813,433.51l14.08,120.81,48.192-119.1Z" transform="translate(-12.159 -7.335)" fill="#b2b2b2"/>
    <path id="패스_2195" data-name="패스 2195" d="M1565.256,430.74l-.529-.85-90.1-142.53,79.021,5.08.016.21Zm-89.721-142.834,89.076,140.876L1553.194,292.9Z" transform="translate(-9.553 -3.237)" fill="#b2b2b2"/>
    <path id="패스_2196" data-name="패스 2196" d="M1630.137,431.244l-63.157-1.711-11.626-137.879Zm-62.71-2.2,62.277,1.711-73.679-136.831Z" transform="translate(-11.824 -3.358)" fill="#b2b2b2"/>
    <path id="패스_2197" data-name="패스 2197" d="M1630.329,431.108l-.438.023-74.8-138.9,47.226,24.472.026.108ZM1556.27,293.385l73.145,135.839L1601.9,317.031Z" transform="translate(-11.817 -3.374)" fill="#b2b2b2"/>
    <path id="패스_2198" data-name="패스 2198" d="M1237.8,331.97l-.471-.123,35.5-134.717.471.123Z" transform="translate(-2.878 -0.699)" fill="#b2b2b2"/>
    <path id="패스_2199" data-name="패스 2199" d="M1237.71,331.755l-.294-.386L1428.146,184.84l.294.386Z" transform="translate(-2.88 -0.353)" fill="#b2b2b2"/>
    <rect id="사각형_1037" data-name="사각형 1037" width="0.486" height="90.94" transform="translate(1234.545 331.41) rotate(-55.48)" fill="#b2b2b2"/>
    <path id="패스_2200" data-name="패스 2200" d="M1314.8,387.079l-.275-.4,97.47-67.4.277.4Z" transform="translate(-5.049 -4.135)" fill="#b2b2b2"/>
    <path id="패스_2201" data-name="패스 2201" d="M1415.189,315.736l-.48-.068L1433.04,185l.48.068Z" transform="translate(-7.868 -0.358)" fill="#b2b2b2"/>
    <rect id="사각형_1038" data-name="사각형 1038" width="0.486" height="181.292" transform="matrix(0.656, -0.755, 0.755, 0.656, 1270.023, 196.676)" fill="#b2b2b2"/>
    <rect id="사각형_1039" data-name="사각형 1039" width="0.486" height="139.789" transform="translate(1406.856 315.433) rotate(-21.527)" fill="#b2b2b2"/>
    <path id="패스_2202" data-name="패스 2202" d="M1463.333,451.692l-148.765-62.638.188-.448,148.765,62.638Z" transform="translate(-5.051 -6.085)" fill="#b2b2b2"/>
    <rect id="사각형_1040" data-name="사각형 1040" width="101.817" height="0.486" transform="translate(1295.063 483.517) rotate(-81.935)" fill="#b2b2b2"/>
    <rect id="사각형_1041" data-name="사각형 1041" width="167.502" height="0.485" transform="translate(1295.207 483.231) rotate(-13.114)" fill="#b2b2b2"/>
    <path id="패스_2203" data-name="패스 2203" d="M1137.309,428.021l-.332-.355,97.595-92.039.332.355Z" transform="translate(-0.055 -4.595)" fill="#b2b2b2"/>
    <rect id="사각형_1042" data-name="사각형 1042" width="0.486" height="163.949" transform="translate(1234.457 331.299) rotate(-21.692)" fill="#b2b2b2"/>
    <path id="패스_2204" data-name="패스 2204" d="M1532.239,344.814l-117.335-25.1.1-.476,117.335,25.1Z" transform="translate(-7.873 -4.134)" fill="#b2b2b2"/>
    <path id="패스_2205" data-name="패스 2205" d="M1467.936,450.375l-.412-.258,66.041-104.939.412.258Z" transform="translate(-9.353 -4.864)" fill="#b2b2b2"/>
    <rect id="사각형_1043" data-name="사각형 1043" width="0.486" height="184.565" transform="translate(1425.207 184.81) rotate(-32.44)" fill="#b2b2b2"/>
    <rect id="사각형_1044" data-name="사각형 1044" width="54.697" height="0.486" transform="translate(1524.21 340.364) rotate(-68.945)" fill="#b2b2b2"/>
    <path id="패스_2206" data-name="패스 2206" d="M1629.247,432.907l-93.73-87.425.332-.355,93.73,87.425Z" transform="translate(-11.266 -4.862)" fill="#b2b2b2"/>
    <path id="패스_2207" data-name="패스 2207" d="M1467.76,453.015l-.051-.484,159.771-17.515.051.484Z" transform="translate(-9.359 -7.391)" fill="#b2b2b2"/>
    <path id="패스_2208" data-name="패스 2208" d="M1472.079,534.6l-4.594-81.3.486-.027,4.594,81.3Z" transform="translate(-9.352 -7.904)" fill="#b2b2b2"/>
    <rect id="사각형_1045" data-name="사각형 1045" width="0.485" height="108.903" transform="translate(1462.923 526.922) rotate(-79.002)" fill="#b2b2b2"/>
    <path id="패스_2209" data-name="패스 2209" d="M1472.588,534.28l-.26-.41,155.177-98.816.26.41Z" transform="translate(-9.489 -7.392)" fill="#b2b2b2"/>
    <path id="패스_2210" data-name="패스 2210" d="M1489.351,644.173,1472.215,536.98l.48-.08,17.136,107.193Z" transform="translate(-9.485 -10.257)" fill="#b2b2b2"/>
    <rect id="사각형_1046" data-name="사각형 1046" width="174.271" height="0.486" transform="translate(1336.011 646.066) rotate(-43.337)" fill="#b2b2b2"/>
    <rect id="사각형_1047" data-name="사각형 1047" width="0.486" height="173.148" transform="translate(1295.22 483.783) rotate(-75.574)" fill="#b2b2b2"/>
    <rect id="사각형_1048" data-name="사각형 1048" width="98.762" height="0.486" transform="translate(1274.15 580.023) rotate(-77.808)" fill="#b2b2b2"/>
    <path id="패스_2211" data-name="패스 2211" d="M1339.989,658.165,1278.2,592.03l.356-.33,61.789,66.135Z" transform="translate(-4.028 -11.799)" fill="#b2b2b2"/>
    <rect id="사각형_1049" data-name="사각형 1049" width="44.406" height="0.486" transform="translate(1260.891 622.385) rotate(-72.694)" fill="#b2b2b2"/>
    <path id="패스_2212" data-name="패스 2212" d="M1276.188,591.616,1202.316,574.9l.11-.473,73.873,16.716Z" transform="translate(-1.893 -11.313)" fill="#b2b2b2"/>
    <rect id="사각형_1050" data-name="사각형 1050" width="196.028" height="0.485" transform="translate(1274.275 579.798) rotate(-15.781)" fill="#b2b2b2"/>
    <path id="패스_2213" data-name="패스 2213" d="M1275.894,589.339l-79.46-92.765.369-.317,79.46,92.765Z" transform="translate(-1.727 -9.114)" fill="#b2b2b2"/>
    <rect id="사각형_1051" data-name="사각형 1051" width="100.46" height="0.486" transform="matrix(0.999, -0.037, 0.037, 0.999, 1194.881, 487.049)" fill="#b2b2b2"/>
    <rect id="사각형_1052" data-name="사각형 1052" width="161.084" height="0.486" transform="translate(1194.729 487.261) rotate(-75.752)" fill="#b2b2b2"/>
    <path id="패스_2214" data-name="패스 2214" d="M1194.766,494.724l-57.8-64.053.361-.327,57.8,64.053Z" transform="translate(-0.054 -7.259)" fill="#b2b2b2"/>
    <path id="패스_2215" data-name="패스 2215" d="M1172.895,537.642l-.433-.22,23.266-41.116.433.22Z" transform="translate(-1.053 -9.115)" fill="#b2b2b2"/>
    <path id="패스_2216" data-name="패스 2216" d="M1235.7,334.915l-59.861-37.741.262-.409,59.861,37.741Z" transform="translate(-1.148 -3.502)" fill="#b2b2b2"/>
    <path id="패스_2217" data-name="패스 2217" d="M1341.184,253.814l-.429-.228,41.087-77.892.429.228Z" transform="translate(-5.787 -0.096)" fill="#b2b2b2"/>
    <path id="패스_2218" data-name="패스 2218" d="M1415.128,316.718l-.353-.333,96.784-101.17.353.333Z" transform="translate(-7.87 -1.208)" fill="#b2b2b2"/>
    <path id="패스_2219" data-name="패스 2219" d="M1317.318,388.556a2.587,2.587,0,1,1-2.587-2.587A2.587,2.587,0,0,1,1317.318,388.556Z" transform="translate(-4.982 -6.011)" fill="#b2b2b2"/>
    <path id="패스_2220" data-name="패스 2220" d="M1239.941,335.8a2.587,2.587,0,1,1-2.587-2.586A2.586,2.586,0,0,1,1239.941,335.8Z" transform="translate(-2.806 -4.527)" fill="#b2b2b2"/>
    <path id="패스_2221" data-name="패스 2221" d="M1302.369,492.233a2.588,2.588,0,1,1-2.587-2.586A2.588,2.588,0,0,1,1302.369,492.233Z" transform="translate(-4.562 -8.928)" fill="#b2b2b2"/>
    <path id="패스_2222" data-name="패스 2222" d="M1198.945,496.513a2.586,2.586,0,1,1-2.586-2.586A2.586,2.586,0,0,1,1198.945,496.513Z" transform="translate(-1.653 -9.048)" fill="#4dc0f5"/>
    <circle id="타원_89" data-name="타원 89" cx="2.587" cy="2.587" r="2.587" transform="translate(1271.819 577.315)" fill="#b2b2b2"/>
    <path id="패스_2223" data-name="패스 2223" d="M1474.925,536.621a2.586,2.586,0,1,1-2.586-2.586A2.586,2.586,0,0,1,1474.925,536.621Z" transform="translate(-9.416 -10.176)" fill="#b2b2b2"/>
    <path id="패스_2224" data-name="패스 2224" d="M1470,452.969a2.587,2.587,0,1,1-2.587-2.586A2.587,2.587,0,0,1,1470,452.969Z" transform="translate(-9.277 -7.823)" fill="#7dd5f4"/>
    <path id="패스_2225" data-name="패스 2225" d="M1417.631,319.445a2.586,2.586,0,1,1-2.586-2.586A2.587,2.587,0,0,1,1417.631,319.445Z" transform="translate(-7.804 -4.067)" fill="#b2b2b2"/>
    <path id="패스_2226" data-name="패스 2226" d="M1537.965,345.325a2.586,2.586,0,1,1-2.586-2.586A2.586,2.586,0,0,1,1537.965,345.325Z" transform="translate(-11.189 -4.795)" fill="#b2b2b2"/>
    <path id="패스_2227" data-name="패스 2227" d="M1344.376,256a2.587,2.587,0,1,1-2.587-2.586A2.587,2.587,0,0,1,1344.376,256Z" transform="translate(-5.744 -2.282)" fill="#b2b2b2"/>
    <path id="패스_2228" data-name="패스 2228" d="M1634.721,435.059a3.2,3.2,0,1,1-3.2-3.2A3.2,3.2,0,0,1,1634.721,435.059Z" transform="translate(-13.877 -7.302)" fill="#4dc0f5"/>
    <path id="패스_2229" data-name="패스 2229" d="M1571.081,432.91a3.929,3.929,0,1,1-3.929-3.929A3.93,3.93,0,0,1,1571.081,432.91Z" transform="translate(-12.046 -7.221)" fill="#4dc0f5"/>
    <path id="패스_2230" data-name="패스 2230" d="M1465.042,592.61a3.929,3.929,0,1,1-3.929-3.929A3.93,3.93,0,0,1,1465.042,592.61Z" transform="translate(-9.063 -11.714)" fill="#4dc0f5"/>
    <path id="패스_2231" data-name="패스 2231" d="M1586.274,557.648a3.929,3.929,0,1,1-3.929-3.929A3.93,3.93,0,0,1,1586.274,557.648Z" transform="translate(-12.473 -10.73)" fill="#4dc0f5"/>
    <path id="패스_2232" data-name="패스 2232" d="M1492.874,647.813a2.863,2.863,0,1,1-2.863-2.864A2.864,2.864,0,0,1,1492.874,647.813Z" transform="translate(-9.906 -13.296)" fill="#7dd5f4"/>
    <circle id="타원_90" data-name="타원 90" cx="2.179" cy="2.179" r="2.179" transform="translate(1373.35 649.532)" fill="#b2b2b2"/>
    <path id="패스_2233" data-name="패스 2233" d="M1345.185,659.805a3.929,3.929,0,1,1-3.929-3.929A3.93,3.93,0,0,1,1345.185,659.805Z" transform="translate(-5.691 -13.604)" fill="#4dc0f5"/>
    <path id="패스_2234" data-name="패스 2234" d="M1266.374,635.569a2.491,2.491,0,1,1-2.492-2.493A2.492,2.492,0,0,1,1266.374,635.569Z" transform="translate(-3.555 -12.962)" fill="#b2b2b2"/>
    <path id="패스_2235" data-name="패스 2235" d="M1308.663,569.565a3.929,3.929,0,1,1-3.929-3.929A3.93,3.93,0,0,1,1308.663,569.565Z" transform="translate(-4.663 -11.065)" fill="#4dc0f5"/>
    <path id="패스_2236" data-name="패스 2236" d="M1205.531,575.1a3.929,3.929,0,1,1-3.929-3.929A3.93,3.93,0,0,1,1205.531,575.1Z" transform="translate(-1.762 -11.221)" fill="#4dc0f5"/>
    <path id="패스_2237" data-name="패스 2237" d="M1175.727,539.318a2.376,2.376,0,1,1-2.377-2.377A2.376,2.376,0,0,1,1175.727,539.318Z" transform="translate(-1.011 -10.258)" fill="#b2b2b2"/>
    <path id="패스_2238" data-name="패스 2238" d="M1391.139,430.566a3.929,3.929,0,1,1-3.929-3.929A3.93,3.93,0,0,1,1391.139,430.566Z" transform="translate(-6.984 -7.155)" fill="#7dd5f4"/>
    <path id="패스_2239" data-name="패스 2239" d="M1218.991,431.057a3.928,3.928,0,1,1-3.929-3.929A3.93,3.93,0,0,1,1218.991,431.057Z" transform="translate(-2.141 -7.169)" fill="#4dc0f5"/>
    <path id="패스_2240" data-name="패스 2240" d="M1139.73,430.259a2.352,2.352,0,1,1-2.352-2.352A2.353,2.353,0,0,1,1139.73,430.259Z" transform="translate(0 -7.191)" fill="#b2b2b2"/>
    <path id="패스_2241" data-name="패스 2241" d="M1185.3,305.261a3.928,3.928,0,1,1-3.929-3.929A3.93,3.93,0,0,1,1185.3,305.261Z" transform="translate(-1.193 -3.63)" fill="#4dc0f5"/>
    <path id="패스_2242" data-name="패스 2242" d="M1314.022,269.469a3.928,3.928,0,1,1-3.929-3.928A3.93,3.93,0,0,1,1314.022,269.469Z" transform="translate(-4.814 -2.623)" fill="#4dc0f5"/>
    <path id="패스_2243" data-name="패스 2243" d="M1278.157,197.177a3.929,3.929,0,1,1-3.929-3.929A3.93,3.93,0,0,1,1278.157,197.177Z" transform="translate(-3.805 -0.59)" fill="#4dc0f5"/>
    <path id="패스_2244" data-name="패스 2244" d="M1386.59,175.161a2.877,2.877,0,1,1-2.878-2.877A2.878,2.878,0,0,1,1386.59,175.161Z" transform="translate(-6.915)" fill="#b2b2b2"/>
    <path id="패스_2245" data-name="패스 2245" d="M1437.633,185.921a3.929,3.929,0,1,1-3.928-3.929A3.929,3.929,0,0,1,1437.633,185.921Z" transform="translate(-8.292 -0.273)" fill="#4dc0f5"/>
    <path id="패스_2246" data-name="패스 2246" d="M1478.711,287.071a3.929,3.929,0,1,1-3.929-3.929A3.93,3.93,0,0,1,1478.711,287.071Z" transform="translate(-9.447 -3.119)" fill="#4dc0f5"/>
    <path id="패스_2247" data-name="패스 2247" d="M1517,214.366a3.358,3.358,0,1,1-3.358-3.358A3.357,3.357,0,0,1,1517,214.366Z" transform="translate(-10.556 -1.089)" fill="#b2b2b2"/>
    <path id="패스_2248" data-name="패스 2248" d="M1559.169,293.005a3.929,3.929,0,1,1-3.929-3.929A3.93,3.93,0,0,1,1559.169,293.005Z" transform="translate(-11.71 -3.285)" fill="#4dc0f5"/>
    <circle id="타원_91" data-name="타원 91" cx="2.769" cy="2.769" r="2.769" transform="translate(1567.277 277.254)" fill="#b2b2b2"/>
    <circle id="타원_92" data-name="타원 92" cx="3.929" cy="3.929" r="3.929" transform="translate(1587.032 309.462)" fill="#b2b2b2"/>
    <path id="패스_2249" data-name="패스 2249" d="M1178.589,296.216a2.695,2.695,0,1,1-2.694-2.7A2.694,2.694,0,0,1,1178.589,296.216Z" transform="translate(-1.074 -3.41)" fill="#b2b2b2"/>
    <path id="패스_2250" data-name="패스 2250" d="M1164.411,324.884a2.379,2.379,0,1,1-2.379-2.378A2.379,2.379,0,0,1,1164.411,324.884Z" transform="translate(-0.693 -4.226)" fill="#b2b2b2"/>
  </g>
</svg>
