<svg xmlns="http://www.w3.org/2000/svg" width="258.454" height="76.201" viewBox="0 0 258.454 76.201">
  <g id="그룹_425" data-name="그룹 425" transform="translate(-299.5 -5835.483)">
    <path id="합치기_51" data-name="합치기 51" d="M44.15,74.582c.919-1.562,1.753-2.974,2.635-4.475a.394.394,0,0,1,.725.134c.628,3.418-.048,4.577-2.97,4.938-.016,0-.033,0-.048,0A.4.4,0,0,1,44.15,74.582Zm-5.765-.348A.441.441,0,0,1,38.1,73.5c1.359-1.479,2.581-2.8,3.887-4.215a.438.438,0,0,1,.755.315c-.109,3.449-.93,4.679-3.45,4.679C39.012,74.28,38.709,74.264,38.385,74.235Zm-9.336-2.012a.564.564,0,0,1-.019-1.006c2.36-1.244,4.616-2.425,6.852-3.6a.556.556,0,0,1,.728.786c-1.933,3.232-3.208,4.553-4.92,4.553A6.528,6.528,0,0,1,29.049,72.223Zm-8.964-4.566a.657.657,0,0,1,.292-1.092c3.541-.968,6.922-1.9,10.6-2.9a.656.656,0,0,1,.634,1.1c-3.156,3.156-5.585,4.759-7.738,4.759A5.3,5.3,0,0,1,20.085,67.656ZM25.2,35.016A89.989,89.989,0,0,1,17.663,21.1a22.943,22.943,0,0,1,.2-17.695.4.4,0,0,1,.767.063C19.7,8.675,25.056,29.561,45.208,51.225a48.6,48.6,0,0,1-7.615-13.774,25.752,25.752,0,0,1-.415-9.965.5.5,0,0,1,.953-.123c1.931,4.123,4.248,9.148,6.083,13.049a18.413,18.413,0,0,0,1.36,2.374c-1.149-4.609-3.19-11.771-4.153-16.414a17.185,17.185,0,0,1,1.726-12.436.713.713,0,0,1,1.311.211c1.5,6.85,2.942,13.425,4.387,20,.93-10.909-3.467-22.361,4.368-32.188a.653.653,0,0,1,1.158.382q.557,13.3,1.116,26.609C58,19.168,56.541,8.316,64.162.2a.648.648,0,0,1,1.112.506q-1.323,13.157-2.637,26.326c3.608-8.114,3.7-17.854,10.761-24.124.148-.124.329-.276.525-.444.428-.356.929-.757,1.325-1.025.334-.228.6-.361.669-.291a.257.257,0,0,1,.024.1L56.827,62.287l-.01.019-.906-.69.906.7-.425,1.359A101.385,101.385,0,0,1,25.2,35.016ZM9.981,60.075a.509.509,0,0,1,.378-.834c5.478-.115,10.7-.22,16.072-.335a.509.509,0,0,1,.277.939c-3.7,2.26-7.056,3.414-9.937,3.414A8.385,8.385,0,0,1,9.981,60.075ZM8.309,54.5c-3.127-.134-5.273-2.06-6.809-5.335a.586.586,0,0,1,.653-.819c7.88,1.7,15.363,3.313,22.848,4.928l.067.019c.929.32,2.331.849,2.36,1.1-3.936.048-9.117.2-13.773.2C11.743,54.6,9.919,54.571,8.309,54.5ZM4.682,41.952C1.772,40.822.414,37.933,0,33.576A.583.583,0,0,1,.9,33.023c7.643,4.831,14.956,9.459,22.275,14.084.872.549,3.619,2.012,3.675,2.308C20.8,47.427,10.6,44.265,4.682,41.952ZM5.768,25.933c-2.755-2.662-2.693-6.189-1.8-10.291a.577.577,0,0,1,1.021-.222c7.256,9.468,14.17,18.493,21.078,27.514a.561.561,0,0,1,.043.063c.329.624,2.284,3.069,2.04,3.337C21.6,40.4,12.119,32.07,5.768,25.933Z" transform="translate(300.002 5836.001)" fill="#fff" stroke="rgba(0,0,0,0)" stroke-miterlimit="10" stroke-width="1"/>
    <g id="그룹_23" data-name="그룹 23" transform="translate(388.472 5842.503)">
      <path id="패스_246" data-name="패스 246" d="M196.4,321.758h14.047a18.914,18.914,0,0,1-1.8,8.008,21.068,21.068,0,0,1-5.479,7,33.314,33.314,0,0,1-9.154,5.407l3.418,5.153a40.755,40.755,0,0,0,10.793-6.908,26.84,26.84,0,0,0,6.6-9.084,27.666,27.666,0,0,0,2.223-11.218v-3.981H196.4Z" transform="translate(-194.015 -312.673)" fill="#fff"/>
      <path id="패스_247" data-name="패스 247" d="M210.4,314.938h-6.557v41.868H210.4V335.59h5.62v-5.62H210.4Z" transform="translate(-175.467 -314.938)" fill="#fff"/>
      <rect id="사각형_742" data-name="사각형 742" width="6.556" height="41.821" transform="translate(73.572 0.047)" fill="#fff"/>
      <path id="패스_248" data-name="패스 248" d="M227.344,338.39q-4.005.351-11.264.445V321.693h14.379v-5.62H209.524v28.382h7.494q6.508,0,10.886-.4a32.253,32.253,0,0,0,7.612-1.521l-1.5-5.433A27.835,27.835,0,0,1,227.344,338.39Z" transform="translate(-164.754 -312.796)" fill="#fff"/>
      <path id="패스_249" data-name="패스 249" d="M241.953,336.619a10.093,10.093,0,0,0,4.264-3.747,10.975,10.975,0,0,0,1.591-6.042,11.1,11.1,0,0,0-1.591-6.065,10.214,10.214,0,0,0-4.287-3.793,14.271,14.271,0,0,0-11.847,0,10.151,10.151,0,0,0-4.287,3.816,11.125,11.125,0,0,0-1.591,6.042A10.918,10.918,0,0,0,225.8,332.8a10.193,10.193,0,0,0,4.287,3.793,13.528,13.528,0,0,0,5.924,1.287A13.712,13.712,0,0,0,241.953,336.619Zm-10.536-7a5.72,5.72,0,0,1-.655-2.788,5.849,5.849,0,0,1,.655-2.809,4.7,4.7,0,0,1,1.85-1.9,5.44,5.44,0,0,1,2.739-.678,5.35,5.35,0,0,1,2.693.678,4.87,4.87,0,0,1,1.873,1.9,5.667,5.667,0,0,1,.678,2.809,5.542,5.542,0,0,1-.678,2.788,4.745,4.745,0,0,1-1.873,1.848,5.488,5.488,0,0,1-2.693.655,5.581,5.581,0,0,1-2.739-.655A4.579,4.579,0,0,1,231.417,329.618Z" transform="translate(-137.053 -313.53)" fill="#fff"/>
      <path id="패스_250" data-name="패스 250" d="M237.864,345.425h6.556V314.938h-6.556v10.678h-5.012v5.62h5.012Z" transform="translate(-120.739 -314.938)" fill="#fff"/>
      <path id="패스_251" data-name="패스 251" d="M233.552,324.786H227v14.1h29.456v-5.526h-22.9Z" transform="translate(-131.789 -296.358)" fill="#fff"/>
      <path id="패스_252" data-name="패스 252" d="M247.1,330.849a23.36,23.36,0,0,1-7.471,2.526l2.387,5.387a29.274,29.274,0,0,0,8.571-3.23,17.81,17.81,0,0,0,6.088-5.716c.17-.26.329-.526.482-.8a13.449,13.449,0,0,0,.97,1.83,15.166,15.166,0,0,0,5.762,5.43,13.976,13.976,0,0,0,5.947,1.593,11.717,11.717,0,0,0,5.759-1.31l-1.732-5.574a6.119,6.119,0,0,1-3.605.912,8.624,8.624,0,0,1-4.122-1.051,10.3,10.3,0,0,1-3.862-3.935,10.583,10.583,0,0,1-1.539-5.057H273.12v-5.62h-31.1v5.62h12.084a9.458,9.458,0,0,1-1.85,4.61A15.456,15.456,0,0,1,247.1,330.849Z" transform="translate(-107.945 -312.488)" fill="#fff"/>
      <rect id="사각형_743" data-name="사각형 743" width="39.152" height="5.714" transform="translate(130.33 31.799)" fill="#fff"/>
      <path id="패스_253" data-name="패스 253" d="M206.036,339.38v.589H194.76v-.589Zm-1.469-6.983v.574h-7.557v4.521h-.65v-5.1Zm.144,4.881v.574h-8.351v-.574Zm-.447-2.506v.589h-7.471v-.589Zm-3.542,4.723v4.679h-.661V339.5Z" transform="translate(-192.609 -281.997)" fill="#fff"/>
      <path id="패스_254" data-name="패스 254" d="M206.449,333.139v5.4h-5.514v-5.4Zm-4.867.56v4.275H205.8V333.7Zm7.8,6.867a1.884,1.884,0,0,1,1.071,1.715,1.849,1.849,0,0,1-1.071,1.677,7.746,7.746,0,0,1-5.952,0,1.846,1.846,0,0,1-1.082-1.677,1.883,1.883,0,0,1,1.082-1.706,6.046,6.046,0,0,1,2.979-.612A6.12,6.12,0,0,1,209.379,340.567Zm-4.766.182a2.73,2.73,0,0,0-1.186.6,1.236,1.236,0,0,0-.419.93,1.2,1.2,0,0,0,.419.906,2.759,2.759,0,0,0,1.186.6,6.918,6.918,0,0,0,1.793.208,6.849,6.849,0,0,0,1.778-.208,2.849,2.849,0,0,0,1.2-.6,1.2,1.2,0,0,0,.424-.906,1.232,1.232,0,0,0-.424-.93,2.828,2.828,0,0,0-1.189-.6,6.691,6.691,0,0,0-1.784-.211A6.789,6.789,0,0,0,204.613,340.748Zm5.45-6.414v.589h-3.888v-.589Zm.014,2.46v.563h-3.9v-.563Zm.315-4.622v7.4h-.661v-7.4Z" transform="translate(-180.959 -282.422)" fill="#fff"/>
      <path id="패스_255" data-name="패스 255" d="M214.052,334.276v.574h-7.4v-.574Zm-2.1,2.18a2.633,2.633,0,0,1,1.039.987,2.983,2.983,0,0,1,0,2.887,2.632,2.632,0,0,1-1.039.979,3.419,3.419,0,0,1-3.022,0,2.659,2.659,0,0,1-1.042-.979,2.708,2.708,0,0,1-.384-1.446,2.756,2.756,0,0,1,.375-1.441,2.589,2.589,0,0,1,1.051-.987,3.236,3.236,0,0,1,1.513-.352A3.166,3.166,0,0,1,211.947,336.456Zm-2.7.52a2.129,2.129,0,0,0-1.114,1.908,2.12,2.12,0,0,0,.3,1.114,2.188,2.188,0,0,0,.828.785,2.552,2.552,0,0,0,2.347,0,2.126,2.126,0,0,0,.823-.791,2.18,2.18,0,0,0-.823-3.017,2.349,2.349,0,0,0-1.172-.294A2.4,2.4,0,0,0,209.248,336.975Zm1.49-4.688v2.318h-.661v-2.318Zm5.4-.115V344.6h-.664V332.172Zm2.217,5.3v.574H215.98v-.574Z" transform="translate(-170.176 -282.422)" fill="#fff"/>
      <path id="패스_256" data-name="패스 256" d="M223.845,341.176v.589H212.63v-.589Zm-1.9-8.524v.577h-8.091v-.577Zm-4,3.975v4.867h-.661v-4.867Zm4.362-3.975V333.9c0,1.048-.02,1.975-.063,2.786a23.324,23.324,0,0,1-.352,2.815l-.678-.1a22.5,22.5,0,0,0,.367-2.742q.082-1.217.081-2.757v-1.253Z" transform="translate(-158.894 -281.518)" fill="#fff"/>
      <path id="패스_257" data-name="패스 257" d="M225.174,333.425v1.181a4.511,4.511,0,0,1-.468,2.018,5.622,5.622,0,0,1-1.253,1.668,5.836,5.836,0,0,1-1.735,1.109l-.346-.546a5.37,5.37,0,0,0,1.6-.979,5.274,5.274,0,0,0,1.2-1.5,3.7,3.7,0,0,0,.453-1.772v-1.181Zm3.037-.228v.574h-6.593V333.2Zm2.081,7.456a1.85,1.85,0,0,1,1.071,1.669,1.823,1.823,0,0,1-1.065,1.648,6.069,6.069,0,0,1-2.965.6,6.154,6.154,0,0,1-2.979-.6,1.821,1.821,0,0,1-1.083-1.648,1.7,1.7,0,0,1,.485-1.224,3.154,3.154,0,0,1,1.394-.776,7.686,7.686,0,0,1,2.182-.271A6.056,6.056,0,0,1,230.292,340.653Zm-4.752.15a2.732,2.732,0,0,0-1.186.606,1.218,1.218,0,0,0-.419.912,1.161,1.161,0,0,0,.419.886,2.854,2.854,0,0,0,1.186.592,6.922,6.922,0,0,0,1.793.208,6.853,6.853,0,0,0,1.778-.208,2.855,2.855,0,0,0,1.186-.592,1.161,1.161,0,0,0,.419-.886,1.218,1.218,0,0,0-.419-.912,2.732,2.732,0,0,0-1.186-.606,6.853,6.853,0,0,0-1.778-.208A6.923,6.923,0,0,0,225.54,340.8Zm-.266-7.378v1.166a3.274,3.274,0,0,0,.43,1.614,4.868,4.868,0,0,0,1.152,1.374,5.094,5.094,0,0,0,1.585.9l-.375.546A5.663,5.663,0,0,1,226.383,338a5.283,5.283,0,0,1-1.218-1.547,3.992,3.992,0,0,1-.453-1.859v-1.166Zm5.629,2.133v.574h-3.112v-.574Zm.416-3.386v7.416h-.661v-7.416Z" transform="translate(-142.4 -282.422)" fill="#fff"/>
      <path id="패스_258" data-name="패스 258" d="M231.183,333.454v1.152a4.53,4.53,0,0,1-.462,2.009,5.141,5.141,0,0,1-1.253,1.634,5.69,5.69,0,0,1-1.741,1.051l-.361-.517a5.468,5.468,0,0,0,1.634-.958,4.97,4.97,0,0,0,1.186-1.461,3.651,3.651,0,0,0,.447-1.758v-1.152Zm3.2-.315v.574h-6.824v-.574Zm2.806,7.312V344.6h-.661v-3.571h-7.485v-.577Zm-5.889-7v1.152a3.232,3.232,0,0,0,.462,1.657,4.739,4.739,0,0,0,1.215,1.374,5.778,5.778,0,0,0,1.619.886l-.329.546a6.137,6.137,0,0,1-1.764-1.013,5.063,5.063,0,0,1-1.276-1.541,3.985,3.985,0,0,1-.473-1.908v-1.152Zm5.889-1.282V339.7h-.661v-7.531Z" transform="translate(-131.089 -282.422)" fill="#fff"/>
      <path id="패스_259" data-name="패스 259" d="M240.617,333.832v.577h-7.355v-.577Zm-2.165,1.706a2.385,2.385,0,0,1,1.022.791,2,2,0,0,1,.367,1.2,1.976,1.976,0,0,1-.367,1.186,2.33,2.33,0,0,1-1.022.785,4.428,4.428,0,0,1-3.069,0,2.272,2.272,0,0,1-1.013-.785,2.012,2.012,0,0,1-.361-1.186,2.04,2.04,0,0,1,.361-1.2,2.324,2.324,0,0,1,1.013-.791,4.344,4.344,0,0,1,3.069,0Zm-3.175.748a1.5,1.5,0,0,0-.632,1.247,1.456,1.456,0,0,0,.632,1.21,3.107,3.107,0,0,0,3.3,0,1.46,1.46,0,0,0,.635-1.21,1.507,1.507,0,0,0-.635-1.247,3.058,3.058,0,0,0-3.3,0Zm.592,4.443v3.181H235.2v-3.181Zm7.514,2.95v.577H235.2v-.577Zm-6.12-11.489v1.974H236.6V332.19Zm5.47-.011v9.327h-.661v-9.327Zm1.975,4.29v.574h-2.2v-.574Z" transform="translate(-119.967 -282.411)" fill="#fff"/>
      <path id="패스_260" data-name="패스 260" d="M247.6,333.3v.592H242.83v4.694h-.661V333.3Zm-1.331,4.89a20.576,20.576,0,0,0,2.54-.355l.1.577a24.466,24.466,0,0,1-2.633.361q-1.286.1-3.2.1h-.906v-.589h.906Q245.007,338.285,246.265,338.193Zm-2.081,2.122v3.6h-.661v-3.6Zm7.5,3.383v.577h-8.164V343.7Zm-.635-11.529v9.012h-.661v-9.012Zm1.974,3.914v.56h-2.22v-.56Z" transform="translate(-103.162 -282.429)" fill="#fff"/>
      <path id="패스_261" data-name="패스 261" d="M251.241,335.154v.892a7.429,7.429,0,0,1-.384,2.327,7.762,7.762,0,0,1-1.042,2.087,5.224,5.224,0,0,1-1.513,1.446l-.419-.517a5.2,5.2,0,0,0,1.44-1.334,6.912,6.912,0,0,0,1.016-1.914,6.35,6.35,0,0,0,.367-2.1v-.892Zm2.647-.534v.577h-5.759v-.577Zm-2.532-1.986V335h-.65v-2.361Zm-.017,2.52v.892a5.782,5.782,0,0,0,.375,2.015,6.465,6.465,0,0,0,1.031,1.821,4.8,4.8,0,0,0,1.446,1.244l-.419.52a5.523,5.523,0,0,1-1.513-1.383,7.011,7.011,0,0,1-1.062-1.986,6.693,6.693,0,0,1-.39-2.231v-.892Zm4.235,2.058v.577h-2.607v-.577Zm.274-4.694v11.374h-.635V332.518Zm2.488-.346V344.6h-.647V332.172Z" transform="translate(-92.38 -282.422)" fill="#fff"/>
      <path id="패스_262" data-name="패스 262" d="M229.53,319.864l-.012.04.115.089a.654.654,0,0,0-.069-.1Z" transform="translate(-127.031 -305.643)" fill="#fff"/>
    </g>
  </g>
</svg>
