<svg xmlns="http://www.w3.org/2000/svg" width="198.525" height="52.215" viewBox="0 0 198.525 52.215">
  <g id="그룹_366" data-name="그룹 366" transform="translate(18612 23292.607)">
    <path id="패스_2389" data-name="패스 2389" d="M354.289-50.4h11.3a15.209,15.209,0,0,1-1.447,6.442,16.98,16.98,0,0,1-4.407,5.63,26.768,26.768,0,0,1-7.364,4.349l2.751,4.145a32.848,32.848,0,0,0,8.681-5.556,21.623,21.623,0,0,0,5.311-7.308,22.277,22.277,0,0,0,1.787-9.021v-3.2H354.289Z" transform="translate(-18902.15 -23232.691)" fill="#004481"/>
    <path id="패스_2390" data-name="패스 2390" d="M370.808-56.526h-5.273v33.672h5.273V-39.916h4.52v-4.52h-4.52Z" transform="translate(-18892.492 -23233.871)" fill="#004481"/>
    <rect id="사각형_1163" data-name="사각형 1163" width="5.272" height="33.635" transform="translate(-18490.611 -23290.361)" fill="#004481"/>
    <path id="패스_2391" data-name="패스 2391" d="M387.471-37.058q-3.222.283-9.059.357V-50.486h11.564v-4.519H373.139V-32.18h6.026q5.237,0,8.758-.321a25.806,25.806,0,0,0,6.121-1.224l-1.2-4.368A22.372,22.372,0,0,1,387.471-37.058Z" transform="translate(-18886.914 -23232.756)" fill="#004481"/>
    <path id="패스_2392" data-name="패스 2392" d="M407.076-38.69a8.128,8.128,0,0,0,3.429-3.013,8.821,8.821,0,0,0,1.279-4.859,8.916,8.916,0,0,0-1.279-4.878,8.19,8.19,0,0,0-3.446-3.051,10.9,10.9,0,0,0-4.765-1.037,10.885,10.885,0,0,0-4.765,1.037,8.142,8.142,0,0,0-3.446,3.07,8.936,8.936,0,0,0-1.279,4.859,8.769,8.769,0,0,0,1.279,4.8,8.189,8.189,0,0,0,3.446,3.051,10.884,10.884,0,0,0,4.765,1.035A11.029,11.029,0,0,0,407.076-38.69ZM398.6-44.322a4.576,4.576,0,0,1-.529-2.24,4.692,4.692,0,0,1,.529-2.26,3.773,3.773,0,0,1,1.487-1.525,4.382,4.382,0,0,1,2.2-.546,4.309,4.309,0,0,1,2.167.546,3.921,3.921,0,0,1,1.506,1.525,4.564,4.564,0,0,1,.546,2.26,4.452,4.452,0,0,1-.546,2.24,3.828,3.828,0,0,1-1.506,1.489,4.426,4.426,0,0,1-2.167.527,4.5,4.5,0,0,1-2.2-.527A3.684,3.684,0,0,1,398.6-44.322Z" transform="translate(-18872.492 -23233.139)" fill="#004481"/>
    <path id="패스_2393" data-name="패스 2393" d="M408.414-32.007h5.272v-24.52h-5.272v8.588h-4.031v4.52h4.031Z" transform="translate(-18863.998 -23233.871)" fill="#004481"/>
    <path id="패스_2394" data-name="패스 2394" d="M401.812-43.337H396.54V-32h23.69v-4.444H401.812Z" transform="translate(-18869.75 -23224.197)" fill="#004481"/>
    <path id="패스_2395" data-name="패스 2395" d="M419.473-43.037A18.771,18.771,0,0,1,413.466-41l1.921,4.33a23.472,23.472,0,0,0,6.892-2.6,14.347,14.347,0,0,0,4.9-4.6c.135-.21.263-.425.387-.641a10.582,10.582,0,0,0,.78,1.47,12.194,12.194,0,0,0,4.634,4.37,11.269,11.269,0,0,0,4.783,1.279,9.4,9.4,0,0,0,4.634-1.054L441-42.924a4.925,4.925,0,0,1-2.9.735,6.9,6.9,0,0,1-3.314-.848,8.259,8.259,0,0,1-3.108-3.164,8.51,8.51,0,0,1-1.236-4.068H440.4v-4.519H415.387v4.519H425.1a7.637,7.637,0,0,1-1.489,3.711A12.442,12.442,0,0,1,419.473-43.037Z" transform="translate(-18857.336 -23232.598)" fill="#004481"/>
    <rect id="사각형_1164" data-name="사각형 1164" width="31.488" height="4.595" transform="translate(-18444.963 -23264.824)" fill="#004481"/>
    <path id="패스_2405" data-name="패스 2405" d="M399.927-49.929l-.01.033.094.071c-.023-.026-.031-.059-.057-.081Z" transform="translate(-18867.273 -23229.033)" fill="#004e9e"/>
    <g id="그룹_365" data-name="그룹 365" transform="translate(-18612 -23292.607)">
      <path id="패스_269" data-name="패스 269" d="M331.525-33.3l-7.071,1.936a.439.439,0,0,0-.2.73c2.143,2.167,4.283,1.475,7.69-1.936A.436.436,0,0,0,331.525-33.3Z" transform="translate(-310.86 75.76)" fill="#004481"/>
      <path id="패스_270" data-name="패스 270" d="M334.285-31.183c.165-.182-1.139-1.811-1.359-2.226-.009-.016-.017-.028-.028-.043-4.609-6.017-9.22-12.037-14.06-18.352a.384.384,0,0,0-.68.151c-.6,2.735-.636,5.086,1.2,6.863C323.593-40.7,329.92-35.14,334.285-31.183Z" transform="translate(-315.511 62.089)" fill="#004481"/>
      <path id="패스_271" data-name="패스 271" d="M331.322-35.135c-3.585.076-7.064.147-10.718.224a.34.34,0,0,0-.255.555c2.384,2.926,6.346,2.791,11.157-.153A.338.338,0,0,0,331.322-35.135Z" transform="translate(-313.692 74.425)" fill="#004481"/>
      <path id="패스_272" data-name="패스 272" d="M334.362-35.158c-.017-.168-.953-.522-1.572-.735l-.045-.012L317.506-39.2a.39.39,0,0,0-.435.546c1.023,2.188,2.455,3.47,4.54,3.561C325.3-34.929,330.661-35.115,334.362-35.158Z" transform="translate(-316.067 71.441)" fill="#004481"/>
      <path id="패스_273" data-name="패스 273" d="M319.6-39.111c3.951,1.539,10.749,3.651,14.785,4.977a18.719,18.719,0,0,0-2.455-1.543c-4.88-3.084-9.759-6.169-14.854-9.392a.391.391,0,0,0-.6.369C316.755-41.794,317.66-39.865,319.6-39.111Z" transform="translate(-316.476 67.094)" fill="#004481"/>
      <path id="패스_274" data-name="패스 274" d="M334.266-30.894a.292.292,0,0,0-.5-.208l-2.592,2.808a.294.294,0,0,0,.187.491C333.517-27.609,334.184-28.337,334.266-30.894Z" transform="translate(-305.755 77.316)" fill="#004481"/>
      <path id="패스_275" data-name="패스 275" d="M335.724-30.682a.265.265,0,0,0-.487-.088l-1.758,2.983a.266.266,0,0,0,.26.4C335.69-27.632,336.14-28.4,335.724-30.682Z" transform="translate(-304.031 77.533)" fill="#004481"/>
      <path id="패스_276" data-name="패스 276" d="M349.257-17.593a34.334,34.334,0,0,1-7.123-6.911c-13.454-14.455-17.026-28.4-17.74-31.873a.267.267,0,0,0-.51-.04,15.3,15.3,0,0,0-.139,11.8,60.557,60.557,0,0,0,5.025,9.283,67.674,67.674,0,0,0,20.807,19.113l.284-.908Z" transform="translate(-311.964 58.69)" fill="#004481"/>
      <path id="패스_277" data-name="패스 277" d="M332.3-31.764l-4.573,2.4a.374.374,0,0,0,.017.669c2.231,1.023,3.176.57,5.041-2.546A.371.371,0,0,0,332.3-31.764Z" transform="translate(-308.367 76.865)" fill="#004481"/>
      <path id="패스_278" data-name="패스 278" d="M356.709-57.035c-.047-.047-.222.043-.446.2-.263.18-.6.446-.884.685-.132.107-.251.21-.35.295-4.713,4.183-4.769,10.676-7.177,16.088L349.61-57.33a.431.431,0,0,0-.74-.336c-5.084,5.414-4.112,12.651-5.786,19.176q-.374-8.877-.745-17.751a.434.434,0,0,0-.771-.251c-5.226,6.553-2.293,14.19-2.914,21.467-.964-4.386-1.924-8.77-2.926-13.337a.478.478,0,0,0-.877-.142,11.463,11.463,0,0,0-1.148,8.293c.641,3.1,2,7.877,2.77,10.947a11.761,11.761,0,0,1-.908-1.581c-1.224-2.6-2.768-5.953-4.056-8.706a.338.338,0,0,0-.638.085,17.206,17.206,0,0,0,.279,6.644,32.31,32.31,0,0,0,5.093,9.206,34.334,34.334,0,0,0,7.123,6.911l.6.463.005-.016,12.751-40.709A.2.2,0,0,0,356.709-57.035Z" transform="translate(-306.072 57.801)" fill="#139fdf"/>
    </g>
    <path id="패스_2396" data-name="패스 2396" d="M362.432-27.528v.475h-9.066v-.475Zm-1.18-5.615v.463h-6.078v3.635h-.522v-4.1Zm.116,3.925v.465h-6.716v-.465Zm-.359-2.014v.475H355v-.475Zm-2.848,3.8v3.763h-.534v-3.763Z" transform="translate(-18901.418 -23216.721)" fill="#004481"/>
    <path id="패스_2397" data-name="패스 2397" d="M366.071-32.667v4.342h-4.436v-4.342Zm-3.914.451v3.439h3.392v-3.439Zm6.27,5.523a1.513,1.513,0,0,1,.863,1.378,1.487,1.487,0,0,1-.863,1.35,4.965,4.965,0,0,1-2.39.48,5,5,0,0,1-2.4-.48,1.486,1.486,0,0,1-.868-1.35,1.515,1.515,0,0,1,.868-1.371,4.874,4.874,0,0,1,2.4-.492A4.92,4.92,0,0,1,368.427-26.694Zm-3.833.146a2.184,2.184,0,0,0-.955.487,1,1,0,0,0-.336.745.967.967,0,0,0,.336.73,2.236,2.236,0,0,0,.955.48,5.511,5.511,0,0,0,1.442.168,5.438,5.438,0,0,0,1.428-.168,2.287,2.287,0,0,0,.962-.48.961.961,0,0,0,.341-.73.99.99,0,0,0-.341-.745,2.234,2.234,0,0,0-.955-.487,5.438,5.438,0,0,0-1.435-.168A5.511,5.511,0,0,0,364.594-26.548Zm4.382-5.159v.475h-3.125v-.475Zm.012,1.98v.452h-3.138v-.452Zm.255-3.717v5.953h-.532v-5.953Z" transform="translate(-18895.352 -23216.941)" fill="#004481"/>
    <path id="패스_2398" data-name="패스 2398" d="M375.243-31.754v.465H369.29v-.465ZM373.551-30a2.1,2.1,0,0,1,.834.794,2.232,2.232,0,0,1,.3,1.158,2.22,2.22,0,0,1-.3,1.163,2.113,2.113,0,0,1-.834.789,2.545,2.545,0,0,1-1.215.283,2.54,2.54,0,0,1-1.215-.283,2.155,2.155,0,0,1-.841-.789,2.191,2.191,0,0,1-.307-1.163,2.232,2.232,0,0,1,.3-1.158,2.078,2.078,0,0,1,.846-.794,2.61,2.61,0,0,1,1.215-.283A2.565,2.565,0,0,1,373.551-30Zm-2.17.418a1.752,1.752,0,0,0-.66.636,1.733,1.733,0,0,0-.237.9,1.7,1.7,0,0,0,.243.9,1.77,1.77,0,0,0,.667.631,1.924,1.924,0,0,0,.943.231,1.928,1.928,0,0,0,.943-.231,1.706,1.706,0,0,0,.66-.638,1.735,1.735,0,0,0,.238-.891,1.731,1.731,0,0,0-.238-.891,1.731,1.731,0,0,0-.66-.643,1.9,1.9,0,0,0-.943-.237A1.918,1.918,0,0,0,371.381-29.582Zm1.2-3.769v1.863h-.532V-33.35Zm4.342-.094v9.993h-.532v-9.993Zm1.784,4.261v.463h-1.912v-.463Z" transform="translate(-18889.738 -23216.941)" fill="#004481"/>
    <path id="패스_2399" data-name="패스 2399" d="M386.318-25.947v.475H377.3v-.475ZM384.789-32.8v.465h-6.506V-32.8Zm-3.217,3.2v3.914h-.534v-3.914Zm3.507-3.2v1.009q0,1.261-.052,2.24a18.2,18.2,0,0,1-.283,2.264l-.544-.081a18.354,18.354,0,0,0,.295-2.2q.062-.978.064-2.217V-32.8Z" transform="translate(-18883.863 -23216.471)" fill="#004481"/>
    <path id="패스_2400" data-name="패스 2400" d="M392.064-32.437v.95a3.635,3.635,0,0,1-.376,1.621,4.527,4.527,0,0,1-1.007,1.343,4.649,4.649,0,0,1-1.4.891l-.277-.439a4.282,4.282,0,0,0,1.29-.789,4.222,4.222,0,0,0,.962-1.2,2.994,2.994,0,0,0,.364-1.425v-.95Zm2.442-.184v.463h-5.3v-.463Zm1.673,6a1.492,1.492,0,0,1,.863,1.343,1.468,1.468,0,0,1-.856,1.326,4.913,4.913,0,0,1-2.385.48,4.984,4.984,0,0,1-2.4-.48,1.466,1.466,0,0,1-.868-1.326,1.376,1.376,0,0,1,.388-.985,2.538,2.538,0,0,1,1.123-.624,6.14,6.14,0,0,1,1.754-.22A4.867,4.867,0,0,1,396.179-26.625Zm-3.821.121a2.221,2.221,0,0,0-.955.487.989.989,0,0,0-.336.735.94.94,0,0,0,.336.712,2.293,2.293,0,0,0,.955.475,5.586,5.586,0,0,0,1.442.168,5.536,5.536,0,0,0,1.43-.168,2.293,2.293,0,0,0,.955-.475.939.939,0,0,0,.335-.712.987.987,0,0,0-.335-.735,2.221,2.221,0,0,0-.955-.487,5.54,5.54,0,0,0-1.43-.166A5.591,5.591,0,0,0,392.359-26.5Zm-.213-5.934v.938a2.632,2.632,0,0,0,.347,1.3,3.925,3.925,0,0,0,.926,1.106,4.124,4.124,0,0,0,1.274.723l-.3.44a4.529,4.529,0,0,1-1.356-.829A4.2,4.2,0,0,1,392.059-30a3.2,3.2,0,0,1-.366-1.494v-.938Zm4.526,1.714v.463h-2.5v-.463Zm.336-2.722v5.963h-.532v-5.963Z" transform="translate(-18875.275 -23216.941)" fill="#004481"/>
    <path id="패스_2401" data-name="패스 2401" d="M400.1-32.413v.926a3.621,3.621,0,0,1-.371,1.616,4.121,4.121,0,0,1-1.007,1.314,4.572,4.572,0,0,1-1.4.846l-.289-.418a4.357,4.357,0,0,0,1.314-.77,3.983,3.983,0,0,0,.955-1.175,2.936,2.936,0,0,0,.359-1.413v-.926Zm2.571-.255v.463h-5.488v-.463Zm2.259,5.882v3.335H404.4v-2.872h-6.02v-.463ZM400.2-32.413v.926a2.613,2.613,0,0,0,.369,1.331,3.809,3.809,0,0,0,.979,1.106,4.644,4.644,0,0,0,1.3.712l-.265.44a4.979,4.979,0,0,1-1.42-.816,4.1,4.1,0,0,1-1.024-1.239,3.189,3.189,0,0,1-.381-1.534v-.926Zm4.736-1.031v6.057H404.4v-6.057Z" transform="translate(-18869.387 -23216.941)" fill="#004481"/>
    <path id="패스_2402" data-name="패스 2402" d="M410.849-32.106v.463h-5.918v-.463Zm-1.744,1.373a1.9,1.9,0,0,1,.823.636,1.619,1.619,0,0,1,.295.967,1.6,1.6,0,0,1-.295.955,1.88,1.88,0,0,1-.823.631,3.161,3.161,0,0,1-1.232.22,3.162,3.162,0,0,1-1.232-.22,1.83,1.83,0,0,1-.816-.631,1.609,1.609,0,0,1-.29-.955,1.628,1.628,0,0,1,.29-.967,1.852,1.852,0,0,1,.816-.636,3.1,3.1,0,0,1,1.232-.227A3.1,3.1,0,0,1,409.105-30.733Zm-2.553.6a1.2,1.2,0,0,0-.508,1,1.166,1.166,0,0,0,.508.972,2.164,2.164,0,0,0,1.333.381,2.142,2.142,0,0,0,1.319-.381,1.168,1.168,0,0,0,.51-.972,1.2,1.2,0,0,0-.51-1,2.122,2.122,0,0,0-1.319-.388A2.143,2.143,0,0,0,406.552-30.131Zm.475,3.573V-24h-.532v-2.559Zm6.045,2.373v.463h-6.577v-.463Zm-4.921-9.239v1.586h-.532v-1.586Zm4.4-.012v7.5h-.532v-7.5Zm1.586,3.45v.465h-1.77v-.465Z" transform="translate(-18863.598 -23216.936)" fill="#004481"/>
    <path id="패스_2403" data-name="패스 2403" d="M421.226-32.536v.475h-3.833v3.776h-.532v-4.25ZM420.155-28.6a16.172,16.172,0,0,0,2.044-.284l.081.465a19.34,19.34,0,0,1-2.118.288q-1.032.083-2.571.081h-.73v-.473h.73Q419.14-28.529,420.155-28.6ZM418.482-26.9V-24h-.532V-26.9Zm6.033,2.722v.463H417.95v-.463ZM424-33.45V-26.2h-.532V-33.45Zm1.586,3.148v.452h-1.782V-30.3Z" transform="translate(-18854.846 -23216.945)" fill="#004481"/>
    <path id="패스_2404" data-name="패스 2404" d="M427.214-31.047v.718a5.944,5.944,0,0,1-.307,1.87,6.262,6.262,0,0,1-.839,1.678,4.2,4.2,0,0,1-1.217,1.165l-.336-.418a4.116,4.116,0,0,0,1.158-1.071,5.478,5.478,0,0,0,.816-1.539,5.094,5.094,0,0,0,.3-1.685v-.718Zm2.13-.428v.463h-4.632v-.463Zm-2.039-1.6v1.9h-.52v-1.9Zm-.01,2.026v.718a4.615,4.615,0,0,0,.3,1.621,5.183,5.183,0,0,0,.829,1.465,3.891,3.891,0,0,0,1.163,1l-.335.416a4.383,4.383,0,0,1-1.217-1.111,5.7,5.7,0,0,1-.856-1.6,5.369,5.369,0,0,1-.314-1.8v-.718Zm3.4,1.655v.463h-2.1v-.463Zm.22-3.776v9.148h-.51v-9.148Zm2-.277v9.993H432.4v-9.993Z" transform="translate(-18849.23 -23216.941)" fill="#004481"/>
  </g>
</svg>
