<svg xmlns="http://www.w3.org/2000/svg" width="354" height="334" viewBox="0 0 354 334">
  <g id="그룹_397" data-name="그룹 397" transform="translate(-377 -1753)">
    <rect id="사각형_1108" data-name="사각형 1108" width="354" height="334" transform="translate(377 1753)" fill="#fff"/>
    <rect id="사각형_1115" data-name="사각형 1115" width="117" height="110" transform="translate(377 1753)" fill="none" opacity="0.58"/>
    <rect id="사각형_1116" data-name="사각형 1116" width="117" height="110" transform="translate(377 1977)" fill="none" opacity="0.58"/>
    <rect id="사각형_1117" data-name="사각형 1117" width="117" height="110" transform="translate(377 1865)" fill="none" opacity="0.58"/>
    <rect id="사각형_1113" data-name="사각형 1113" width="117" height="110" transform="translate(614 1753)" fill="none" opacity="0.58"/>
    <rect id="사각형_1109" data-name="사각형 1109" width="117" height="110" transform="translate(614 1977)" fill="none" opacity="0.58"/>
    <rect id="사각형_1110" data-name="사각형 1110" width="117" height="110" transform="translate(614 1865)" fill="none" opacity="0.58"/>
    <rect id="사각형_1114" data-name="사각형 1114" width="118" height="110" transform="translate(495 1753)" fill="none" opacity="0.58"/>
    <rect id="사각형_1111" data-name="사각형 1111" width="118" height="110" transform="translate(495 1977)" fill="none" opacity="0.58"/>
    <rect id="사각형_1112" data-name="사각형 1112" width="118" height="110" transform="translate(495 1865)" fill="none" opacity="0.58"/>
    <path id="패스_2367" data-name="패스 2367" d="M156.76,886.531h-7.575l-1.213-8.334h10Z" transform="translate(393.517 1057.242)" fill="none" stroke="#828282" stroke-miterlimit="10" stroke-width="2"/>
    <path id="사각형_1118" data-name="사각형 1118" d="M5.5,0H40.6a5.5,5.5,0,0,1,5.5,5.5V41.543A12.783,12.783,0,0,1,33.319,54.326H12.783A12.783,12.783,0,0,1,0,41.543V5.5A5.5,5.5,0,0,1,5.5,0Z" transform="translate(523.438 1881.113)" fill="none" stroke="#828282" stroke-miterlimit="10" stroke-width="2"/>
    <path id="사각형_1119" data-name="사각형 1119" d="M0,0H31.535a0,0,0,0,1,0,0V20.047A12.783,12.783,0,0,1,18.752,32.831H12.783A12.783,12.783,0,0,1,0,20.047V0A0,0,0,0,1,0,0Z" transform="translate(530.722 1896.545)" fill="#ffc132"/>
    <line id="선_70" data-name="선 70" x2="21.493" transform="translate(535.743 1889.432)" fill="none" stroke="#1bb9e6" stroke-miterlimit="10" stroke-width="2"/>
    <path id="패스_2368" data-name="패스 2368" d="M152.25,892.6h0a17.239,17.239,0,0,0,17.239,17.239h1.4A17.239,17.239,0,0,0,188.126,892.6V842.249" transform="translate(394.24 1051.168)" fill="none" stroke="#828282" stroke-miterlimit="10" stroke-width="2"/>
    <line id="선_71" data-name="선 71" x2="15.859" transform="translate(554.328 1900.51)" fill="none" stroke="#828282" stroke-miterlimit="10" stroke-width="2"/>
    <line id="선_72" data-name="선 72" x2="15.859" transform="translate(554.328 1912.959)" fill="none" stroke="#828282" stroke-miterlimit="10" stroke-width="2"/>
    <line id="선_73" data-name="선 73" x2="15.859" transform="translate(554.328 1925.41)" fill="none" stroke="#828282" stroke-miterlimit="10" stroke-width="2"/>
    <path id="패스_2369" data-name="패스 2369" d="M214.056,820.295v7.35h44.337V775.271h-7.35v45.023Z" transform="translate(441.83 1124.24)" fill="#1bb9e6"/>
    <rect id="사각형_1120" data-name="사각형 1120" width="44.337" height="52.373" transform="translate(648.535 1892.162)" fill="none" stroke="#828282" stroke-miterlimit="10" stroke-width="2"/>
    <rect id="사각형_1121" data-name="사각형 1121" width="19.676" height="10.494" transform="translate(660.865 1886.912)" fill="#ffc132"/>
    <line id="선_74" data-name="선 74" x2="28.596" transform="translate(656.405 1910.512)" fill="none" stroke="#828282" stroke-miterlimit="10" stroke-width="2"/>
    <line id="선_75" data-name="선 75" x2="28.596" transform="translate(656.405 1922.359)" fill="none" stroke="#828282" stroke-miterlimit="10" stroke-width="2"/>
    <line id="선_76" data-name="선 76" x2="28.596" transform="translate(656.405 1934.209)" fill="none" stroke="#828282" stroke-miterlimit="10" stroke-width="2"/>
    <path id="패스_2370" data-name="패스 2370" d="M273.808,700.45h14.929l6.539-11.863,9.809,22.636,5.267-10.773h18.961" transform="translate(370.908 1108.619)" fill="none" stroke="#ffc132" stroke-miterlimit="10" stroke-width="2"/>
    <path id="패스_2371" data-name="패스 2371" d="M332.741,691.214v3.3a11.972,11.972,0,0,1-.576,2.725,26.942,26.942,0,0,1-4.4,7.7c-.752.981-1.577,1.981-2.467,3-.741.853-1.528,1.718-2.35,2.6-1.7,1.8-3.556,3.661-5.534,5.571-2.682,2.591-5.577,5.279-8.578,8.055a9.471,9.471,0,0,1-1.1.883,9.883,9.883,0,0,1-2.877,1.348,10.346,10.346,0,0,1-6.359-.221,9.824,9.824,0,0,1-2.877-1.638c-.146-.119-.286-.246-.426-.374-3.114-2.883-6.065-5.614-8.76-8.213-2-1.928-3.856-3.78-5.541-5.567q-1.168-1.243-2.221-2.443-1.341-1.534-2.47-3a26.065,26.065,0,0,1-4.352-7.7,12.307,12.307,0,0,1-.558-2.725v-3.3a20.35,20.35,0,0,1,1.073-5.1,16.693,16.693,0,0,1,4.132-6.5,14.539,14.539,0,0,1,8.616-4.095c.988-.1,1.921-.132,2.783-.132a16.33,16.33,0,0,1,7.722,1.668,15.816,15.816,0,0,1,2.877,1.935,33.112,33.112,0,0,1,3.515,3.514,38.13,38.13,0,0,1,2.844-2.931,17.346,17.346,0,0,1,2.877-2.146,15.9,15.9,0,0,1,8.388-2.04c.869,0,1.793.036,2.783.132a14.526,14.526,0,0,1,8.451,3.93,16.616,16.616,0,0,1,4.226,6.443A20.246,20.246,0,0,1,332.741,691.214Z" transform="translate(370.483 1106.389)" fill="none" stroke="#828282" stroke-miterlimit="10" stroke-width="2"/>
    <rect id="사각형_1122" data-name="사각형 1122" width="54.608" height="45.585" rx="10.75" transform="translate(408.196 1902.848)" fill="none" stroke="#828282" stroke-miterlimit="10" stroke-width="2"/>
    <rect id="사각형_1123" data-name="사각형 1123" width="12.484" height="22.918" transform="translate(429.258 1914.18)" fill="#1bb9e6"/>
    <rect id="사각형_1124" data-name="사각형 1124" width="12.484" height="22.918" transform="translate(446.959 1919.398) rotate(90)" fill="#1bb9e6"/>
    <path id="사각형_1125" data-name="사각형 1125" d="M4.6,0h13.71a4.6,4.6,0,0,1,4.6,4.6V9.225a0,0,0,0,1,0,0H0a0,0,0,0,1,0,0V4.6A4.6,4.6,0,0,1,4.6,0Z" transform="translate(424.041 1893.621)" fill="none" stroke="#828282" stroke-miterlimit="10" stroke-width="2"/>
    <g id="그룹_356" data-name="그룹 356" transform="translate(413.75 1779.035)">
      <path id="패스_2372" data-name="패스 2372" d="M146.665,687.438a6.69,6.69,0,0,0-2.51-.495c-8.485,0-15.372,16.874-15.519,25.539a5.854,5.854,0,1,1,4.218,10.9,15.509,15.509,0,0,0,26.827-10.62C159.681,705.046,154.05,690.292,146.665,687.438Z" transform="translate(-122.406 -678.654)" fill="#1bb9e6"/>
      <path id="패스_2373" data-name="패스 2373" d="M166.805,716.028a21.75,21.75,0,1,1-43.5,0c0-12.014,9.734-36.175,21.75-36.175a9.344,9.344,0,0,1,3.515.694C158.917,684.544,166.805,705.212,166.805,716.028Z" transform="translate(-123.306 -679.852)" fill="none" stroke="#828282" stroke-miterlimit="10" stroke-width="2"/>
    </g>
    <rect id="사각형_1126" data-name="사각형 1126" width="24.028" height="42.19" transform="translate(559.62 1789.504) rotate(45)" fill="#1bb9e6"/>
    <rect id="사각형_1127" data-name="사각형 1127" width="30.43" height="51.374" transform="translate(561.511 1778.563) rotate(45)" fill="none" stroke="#828282" stroke-miterlimit="10" stroke-width="2"/>
    <path id="패스_2374" data-name="패스 2374" d="M198.563,734.226l-8.817-8.817,6.7-9.524,11.64,11.64Z" transform="translate(333.675 1103.941)" fill="none" stroke="#828282" stroke-miterlimit="10" stroke-width="2"/>
    <rect id="사각형_1128" data-name="사각형 1128" width="6.069" height="9.724" transform="translate(577 1780.297) rotate(44.999)" fill="none" stroke="#828282" stroke-miterlimit="10" stroke-width="2"/>
    <path id="패스_2375" data-name="패스 2375" d="M247.723,690.54h0a3.034,3.034,0,0,0,0-4.291l-9.671-9.671a3.034,3.034,0,0,0-4.291,0h0a3.034,3.034,0,0,0,0,4.291l9.671,9.671A3.034,3.034,0,0,0,247.723,690.54Z" transform="translate(340.961 1097.15)" fill="none" stroke="#828282" stroke-miterlimit="10" stroke-width="2"/>
    <line id="선_77" data-name="선 77" x1="9.403" y2="9.403" transform="translate(518.427 1833.758)" fill="none" stroke="#828282" stroke-miterlimit="10" stroke-width="2"/>
    <line id="선_78" data-name="선 78" x2="10.758" y2="10.758" transform="translate(559.572 1802.016)" fill="none" stroke="#828282" stroke-miterlimit="10" stroke-width="2"/>
    <line id="선_79" data-name="선 79" x2="10.758" y2="10.759" transform="translate(551.126 1810.461)" fill="none" stroke="#828282" stroke-miterlimit="10" stroke-width="2"/>
    <line id="선_80" data-name="선 80" x2="10.759" y2="10.759" transform="translate(542.68 1818.908)" fill="none" stroke="#828282" stroke-miterlimit="10" stroke-width="2"/>
    <line id="선_81" data-name="선 81" x2="28.576" y2="28.576" transform="translate(557.981 1775.031)" fill="none" stroke="#828282" stroke-miterlimit="10" stroke-width="2"/>
    <path id="패스_2376" data-name="패스 2376" d="M338.211,895.949h0a17.917,17.917,0,0,1-25.338-.078L291.267,874.13a17.917,17.917,0,0,1,.079-25.338h0a17.916,17.916,0,0,1,25.338.079l21.606,21.741A17.916,17.916,0,0,1,338.211,895.949Z" transform="translate(120.874 1159.842)" fill="none" stroke="#828282" stroke-miterlimit="10" stroke-width="2"/>
    <path id="사각형_1129" data-name="사각형 1129" d="M4.469,0h12.6a4.469,4.469,0,0,1,4.469,4.469v12.6a4.47,4.47,0,0,1-4.47,4.47H4.47A4.47,4.47,0,0,1,0,17.073V4.469A4.469,4.469,0,0,1,4.469,0Z" transform="translate(420.42 2032.166) rotate(-44.821)" fill="#ffc132"/>
    <path id="패스_2377" data-name="패스 2377" d="M306.841,867.714a1.679,1.679,0,1,1-2.375,0A1.678,1.678,0,0,1,306.841,867.714Z" transform="translate(123.901 1163.836)" fill="#828282" stroke="#828282" stroke-miterlimit="10" stroke-width="1"/>
    <ellipse id="타원_99" data-name="타원 99" cx="1.679" cy="1.679" rx="1.679" ry="1.679" transform="translate(434.498 2024.436)" fill="#828282" stroke="#828282" stroke-miterlimit="10" stroke-width="1"/>
    <ellipse id="타원_100" data-name="타원 100" cx="1.679" cy="1.679" rx="1.679" ry="1.679" transform="translate(433.45 2036.633)" fill="#828282" stroke="#828282" stroke-miterlimit="10" stroke-width="1"/>
    <path id="패스_2378" data-name="패스 2378" d="M317.274,866.817a1.68,1.68,0,1,1-2.375,0A1.68,1.68,0,0,1,317.274,866.817Z" transform="translate(125.664 1163.684)" fill="#828282" stroke="#828282" stroke-miterlimit="10" stroke-width="1"/>
    <path id="패스_2379" data-name="패스 2379" d="M312.522,848.86l21.606,21.74a18.081,18.081,0,0,1,1.571,1.838,17.9,17.9,0,0,0-25-25.16A17.845,17.845,0,0,1,312.522,848.86Z" transform="translate(125.037 1159.854)" fill="none" stroke="#828282" stroke-miterlimit="10" stroke-width="2"/>
    <path id="패스_2380" data-name="패스 2380" d="M312.881,891.722l-21.606-21.741a18.1,18.1,0,0,1-1.571-1.838,17.9,17.9,0,0,0,25,25.16A17.975,17.975,0,0,1,312.881,891.722Z" transform="translate(120.866 1163.992)" fill="none" stroke="#828282" stroke-miterlimit="10" stroke-width="2"/>
    <path id="패스_2381" data-name="패스 2381" d="M302.821,783.537h19.61a10.589,10.589,0,1,1,0,20.452h-19.61Z" transform="translate(367.881 1234.662)" fill="#ffc132"/>
    <path id="패스_2382" data-name="패스 2382" d="M274.236,797.337h0a13.8,13.8,0,0,0,13.8,13.8h19.615v-27.6H288.037A13.8,13.8,0,0,0,274.236,797.337Z" transform="translate(363.052 1234.662)" fill="none" stroke="#828282" stroke-miterlimit="10" stroke-width="2"/>
    <path id="패스_2383" data-name="패스 2383" d="M302.821,783.537h19.61a13.8,13.8,0,1,1,0,27.6h-19.61Z" transform="translate(367.881 1234.662)" fill="none" stroke="#828282" stroke-miterlimit="10" stroke-width="2"/>
    <path id="패스_2384" data-name="패스 2384" d="M259.817,857.4a37.018,37.018,0,0,1-9.17,3.127l-35.734-18.244a34.309,34.309,0,0,1,8.821-3.3Z" transform="translate(319.613 1176.266)" fill="#1bb9e6"/>
    <path id="패스_2385" data-name="패스 2385" d="M267.216,849.85c0,2.963-2.459,5.674-6.569,7.783a37.019,37.019,0,0,1-9.17,3.127,57.038,57.038,0,0,1-7.784,1.115q-2.476.2-5.083.2t-5.083-.2C220.147,860.847,210,855.851,210,849.85c0-2.754,2.132-5.291,5.74-7.334a34.311,34.311,0,0,1,8.821-3.3,55.643,55.643,0,0,1,8.964-1.378q2.476-.2,5.083-.2t5.083.2C257.072,838.853,267.216,843.849,267.216,849.85Z" transform="translate(318.784 1176.039)" fill="none" stroke="#828282" stroke-miterlimit="10" stroke-width="2"/>
    <path id="패스_2386" data-name="패스 2386" d="M267.216,848.089V860.3c0,6-10.144,11-23.524,12.018q-2.476.2-5.083.2t-5.083-.2C220.147,871.3,210,866.3,210,860.3V848.089" transform="translate(318.784 1177.805)" fill="none" stroke="#828282" stroke-miterlimit="10" stroke-width="2"/>
  </g>
</svg>
