<svg id="그룹_63" data-name="그룹 63" xmlns="http://www.w3.org/2000/svg" width="90" height="89.094" viewBox="0 0 90 89.094">
  <path id="패스_269" data-name="패스 269" d="M337.268-33.286l-12.563,3.44a.781.781,0,0,0-.351,1.3c3.807,3.85,7.611,2.621,13.663-3.44A.774.774,0,0,0,337.268-33.286Z" transform="translate(-300.552 108.729)" fill="#004481"/>
  <path id="패스_270" data-name="패스 270" d="M347.1-15.048c.293-.323-2.024-3.219-2.415-3.955-.015-.028-.031-.049-.049-.077-8.19-10.691-16.382-21.387-24.982-32.608a.682.682,0,0,0-1.207.268c-1.063,4.86-1.13,9.037,2.131,12.194C328.1-31.954,339.341-22.08,347.1-15.048Z" transform="translate(-313.74 69.96)" fill="#004481"/>
  <path id="패스_271" data-name="패스 271" d="M339.9-35.135c-6.369.136-12.551.262-19.043.4a.6.6,0,0,0-.453.986c4.235,5.2,11.276,4.959,19.823-.271A.6.6,0,0,0,339.9-35.135Z" transform="translate(-308.581 104.944)" fill="#004481"/>
  <path id="패스_272" data-name="패스 272" d="M347.823-32.015c-.031-.3-1.694-.927-2.793-1.306l-.08-.022-27.076-5.846a.694.694,0,0,0-.773.97c1.817,3.887,4.361,6.166,8.067,6.326C331.727-31.608,341.247-31.938,347.823-32.015Z" transform="translate(-315.316 96.481)" fill="#004481"/>
  <path id="패스_273" data-name="패스 273" d="M322.026-34.435c7.019,2.735,19.1,6.486,26.269,8.843-.074-.357-3.326-2.088-4.361-2.741-8.67-5.479-17.34-10.962-26.392-16.687a.7.7,0,0,0-1.063.656C316.972-39.2,318.58-35.775,322.026-34.435Z" transform="translate(-316.476 84.154)" fill="#004481"/>
  <path id="패스_274" data-name="패스 274" d="M336.73-30.66a.519.519,0,0,0-.9-.37l-4.6,4.99a.522.522,0,0,0,.333.872C335.4-24.824,336.586-26.117,336.73-30.66Z" transform="translate(-286.074 113.141)" fill="#004481"/>
  <path id="패스_275" data-name="패스 275" d="M337.5-30.514a.471.471,0,0,0-.866-.157c-1.047,1.777-2.03,3.446-3.123,5.3a.472.472,0,0,0,.462.705C337.435-25.094,338.236-26.464,337.5-30.514Z" transform="translate(-281.185 113.756)" fill="#004481"/>
  <path id="패스_276" data-name="패스 276" d="M369.941,12.7A61,61,0,0,1,357.285.416c-23.9-25.684-30.251-50.453-31.52-56.631a.474.474,0,0,0-.905-.071c-2.787,6.622-3.071,14.547-.246,20.965a107.6,107.6,0,0,0,8.929,16.493,120.24,120.24,0,0,0,36.969,33.96l.505-1.614Z" transform="translate(-303.681 60.323)" fill="#004481"/>
  <path id="패스_277" data-name="패스 277" d="M336.008-31.73c-2.649,1.389-5.322,2.794-8.125,4.266a.665.665,0,0,0,.031,1.189c3.964,1.817,5.642,1.013,8.956-4.524A.659.659,0,0,0,336.008-31.73Z" transform="translate(-293.482 111.864)" fill="#004481"/>
  <path id="패스_278" data-name="패스 278" d="M376.941-56.44c-.083-.083-.394.077-.792.348-.468.32-1.063.792-1.571,1.217-.234.191-.447.373-.622.524-8.374,7.432-8.473,18.969-12.751,28.585q1.561-15.6,3.123-31.2a.765.765,0,0,0-1.315-.6c-9.034,9.619-7.306,22.478-10.281,34.07q-.665-15.772-1.324-31.539a.772.772,0,0,0-1.371-.447c-9.286,11.642-4.075,25.213-5.177,38.142-1.712-7.792-3.419-15.582-5.2-23.7a.849.849,0,0,0-1.559-.253,20.366,20.366,0,0,0-2.039,14.735c1.139,5.5,3.56,14,4.922,19.45a20.893,20.893,0,0,1-1.614-2.809c-2.175-4.623-4.919-10.577-7.207-15.468a.6.6,0,0,0-1.133.151,30.571,30.571,0,0,0,.5,11.805,57.4,57.4,0,0,0,9.049,16.358,61,61,0,0,0,12.656,12.28l1.075.822.009-.028,22.656-72.33A.361.361,0,0,0,376.941-56.44Z" transform="translate(-286.972 57.801)" fill="#139fdf"/>
</svg>
