<svg xmlns="http://www.w3.org/2000/svg" width="44.91" height="48.002" viewBox="0 0 44.91 48.002">
  <path id="패스_2819" data-name="패스 2819" d="M1216.266,936.672c-2.738-2.351-6.811-3.352-12.109-2.988a13.066,13.066,0,1,0-15.2-.361c-3.827-.378-11.883-.1-14.33,8.393a1.014,1.014,0,0,0-.038.275V956.83a.992.992,0,0,0,.992.992h42.926a.992.992,0,0,0,.992-.992V942.7c0-.018,0-.037,0-.055A9.162,9.162,0,0,0,1216.266,936.672Zm-30.654-13.786a11.2,11.2,0,1,1,11.254,11.2h-.109A11.21,11.21,0,0,1,1185.612,922.886Zm11,15.178h.958l1.417,2.926-1.939,3.768-1.446-2.842Zm-1.177-1.99a.668.668,0,0,1,.667-.667h1.883a.667.667,0,1,1,0,1.335H1196.1A.668.668,0,0,1,1195.437,936.074Zm3.487,1.746a1.936,1.936,0,0,0,.983-2.242,12.949,12.949,0,0,0,2.27-.783l-2.431,4.724Zm-3.63.068-.59,2.252-2.572-5.058a12.915,12.915,0,0,0,2.023.6,1.988,1.988,0,0,0,1.139,2.208Zm22.223,17.948h-40.942v-13.7c2.485-8.287,11.425-7.07,13.53-6.661l6.058,11.914a.991.991,0,0,0,.882.543h0a.993.993,0,0,0,.882-.538l6.021-11.7c4.905-.394,8.6.434,10.989,2.459a7.2,7.2,0,0,1,2.578,4.586Z" transform="translate(-1174.591 -909.82)" fill="#fff"/>
</svg>
