<svg xmlns="http://www.w3.org/2000/svg" width="40.964" height="45.53" viewBox="0 0 40.964 45.53">
  <g id="그룹_389" data-name="그룹 389" transform="translate(-1223.634 -400.195)" opacity="0.42">
    <path id="패스_2820" data-name="패스 2820" d="M1259.065,445.725a1.088,1.088,0,0,0,.689-.244l4.44-3.607a1.092,1.092,0,0,0,.159-1.537l-11.152-13.73a16.464,16.464,0,1,0-14.8,6.41,16.548,16.548,0,0,0,1.726.089,16.3,16.3,0,0,0,6.921-1.537l11.171,13.753A1.09,1.09,0,0,0,1259.065,445.725Zm-20.441-14.881a14.274,14.274,0,1,1,10.47-3.119A14.182,14.182,0,0,1,1238.624,430.844Zm11.847-1.422q.669-.545,1.271-1.145l10.226,12.59-2.744,2.229-10.237-12.6A16.945,16.945,0,0,0,1250.472,429.422Z" fill="#949494"/>
    <path id="패스_2821" data-name="패스 2821" d="M1249.191,408.795a12.042,12.042,0,1,0-1.755,16.949A11.972,11.972,0,0,0,1249.191,408.795Zm-3.133,15.253a9.863,9.863,0,1,1-6.237-17.52,10.3,10.3,0,0,1,1.035.052,9.864,9.864,0,0,1,5.2,17.468Z" transform="translate(0.256 0.255)" fill="#949494"/>
  </g>
</svg>
