<svg xmlns="http://www.w3.org/2000/svg" width="195.36" height="187.015" viewBox="0 0 195.36 187.015">
  <g id="그룹_434" data-name="그룹 434" transform="translate(-34.115 -3144.645)">
    <g id="그룹_291" data-name="그룹 291" transform="matrix(0.574, -0.819, 0.819, 0.574, 17.559, 3280.029)">
      <path id="패스_1925" data-name="패스 1925" d="M113.063,72.8c0-2.2-1.543-3.089-3.447-1.991a7.62,7.62,0,0,0-3.446,5.969c0,2.2,1.543,3.089,3.447,1.991A7.62,7.62,0,0,0,113.063,72.8Z" transform="translate(20.611 3.064)" fill="#fff"/>
      <path id="패스_1926" data-name="패스 1926" d="M127.192,77.861c-4.523-2.506-8.964-4.739-13.278-6.643a37.925,37.925,0,0,0-9.926-2.813c-3.971-.547-4.74.812-2.351,4.071a38.7,38.7,0,0,0,7.4,7.19q6.065,4.267,12.414,8.144c2.5,1.5,5.031,2.98,7.6,4.4l5.743-9.948C132.232,80.726,129.7,79.249,127.192,77.861Z" transform="translate(18.753 2.416)" fill="#dadada"/>
      <path id="패스_1927" data-name="패스 1927" d="M123.648,78.316c.045-2.633-1.767-3.692-4.062-2.345A9.123,9.123,0,0,0,115.526,83c-.034,2.529,1.787,3.584,4.062,2.345A8.925,8.925,0,0,0,123.648,78.316Z" transform="translate(23.565 4.657)" fill="#ededed"/>
      <path id="패스_1928" data-name="패스 1928" d="M122.114,75.564l-5.743,9.949c2.5,1.5,5.031,2.98,7.6,4.4l5.743-9.948C127.153,78.428,124.622,76.952,122.114,75.564Z" transform="translate(23.832 4.713)" fill="#ededed"/>
      <path id="패스_1929" data-name="패스 1929" d="M114.437,75.894l8.61,4.971a.593.593,0,0,0,.841-.749l-3.769-8.709a.593.593,0,0,0-.249-.278l-8.61-4.971a.593.593,0,0,0-.841.749l3.771,8.709A.6.6,0,0,0,114.437,75.894Z" transform="translate(21.937 1.718)" fill="#b2b2b2"/>
      <path id="패스_1930" data-name="패스 1930" d="M115.585,56.463c0-2.2-1.543-3.089-3.447-1.991a7.62,7.62,0,0,0-3.447,5.971c0,2.2,1.543,3.088,3.447,1.989A7.618,7.618,0,0,0,115.585,56.463Z" transform="translate(21.407 -2.094)" fill="#fff"/>
      <path id="패스_1931" data-name="패스 1931" d="M105.941,52.09a38.619,38.619,0,0,1,9.5,2.745c4.314,1.9,8.756,4.137,13.279,6.643,2.506,1.388,5.038,2.864,7.6,4.4l-5.744,9.948c-2.563-1.42-5.094-2.9-7.6-4.4q-6.359-3.874-12.412-8.144a44.937,44.937,0,0,1-4.627-4.05Z" transform="translate(20.539 -2.698)" fill="#dadada"/>
      <path id="패스_1932" data-name="패스 1932" d="M126.169,61.977c.045-2.633-1.766-3.692-4.06-2.345a9.121,9.121,0,0,0-4.06,7.032c-.034,2.529,1.787,3.584,4.06,2.345A8.922,8.922,0,0,0,126.169,61.977Z" transform="translate(24.361 -0.502)" fill="#ededed"/>
      <path id="패스_1933" data-name="패스 1933" d="M124.636,59.225l-5.744,9.949c2.5,1.5,5.033,2.98,7.6,4.4l5.744-9.948C129.674,62.089,127.143,60.613,124.636,59.225Z" transform="translate(24.627 -0.445)" fill="#ededed"/>
      <path id="패스_1934" data-name="패스 1934" d="M116.959,59.555l8.61,4.971a.593.593,0,0,0,.841-.749l-3.771-8.709a.584.584,0,0,0-.247-.278l-8.61-4.971a.593.593,0,0,0-.841.749l3.771,8.709A.584.584,0,0,0,116.959,59.555Z" transform="translate(22.733 -3.441)" fill="#b2b2b2"/>
      <path id="패스_1935" data-name="패스 1935" d="M94.18,85.9l31.845,18.391,3.792-58.016L127.6,44.992l-.692-.391L114,37.152l-1.866,4.59L104.022,61.7l-.707,1.731L96.708,79.7Z" transform="translate(16.826 -7.414)" fill="#dadada"/>
      <path id="패스_1936" data-name="패스 1936" d="M113.11,92l.376.06.376.06L121.628,43.2l-.692-.391Z" transform="translate(22.802 -5.626)" fill="#ededed"/>
      <rect id="사각형_1015" data-name="사각형 1015" width="0.752" height="20.641" transform="matrix(0.504, -0.864, 0.864, 0.504, 119.93, 65.155)" fill="#ededed"/>
      <rect id="사각형_1016" data-name="사각형 1016" width="0.752" height="16.294" transform="translate(127.268 45.67) rotate(-61.777)" fill="#ededed"/>
      <path id="패스_1937" data-name="패스 1937" d="M101.661,60.6l3.657,2.077,7.344-20.242-2.889-1.791Z" transform="translate(19.188 -6.313)" fill="#34cdf7"/>
      <path id="패스_1938" data-name="패스 1938" d="M96.1,73.392l4.169,2.227,6.065-16.389-3.627-2.107Z" transform="translate(17.433 -1.109)" fill="#34cdf7"/>
      <path id="패스_1939" data-name="패스 1939" d="M42.872,25.087,35.85,42.353,53.455,52.517l-2.442-22.73Z" transform="translate(-1.589 -11.223)" fill="#dadada"/>
      <path id="패스_1940" data-name="패스 1940" d="M39.564,38.41h4.592V29.255l-4.592-2.926Z" transform="translate(-0.416 -10.831)" fill="#706f6f"/>
      <path id="패스_1941" data-name="패스 1941" d="M76.188,94.216c0-2.2-1.542-3.089-3.446-1.991a7.618,7.618,0,0,0-3.447,5.969c0,2.2,1.543,3.089,3.447,1.991A7.613,7.613,0,0,0,76.188,94.216Z" transform="translate(8.97 9.824)" fill="#fff"/>
      <path id="패스_1942" data-name="패스 1942" d="M90.319,99.275c-4.525-2.506-8.965-4.739-13.279-6.643a37.911,37.911,0,0,0-9.926-2.813c-3.969-.549-4.74.812-2.351,4.071a38.708,38.708,0,0,0,7.4,7.19q6.063,4.267,12.412,8.144c2.5,1.5,5.033,2.98,7.6,4.4l5.744-9.948C95.356,102.14,92.825,100.663,90.319,99.275Z" transform="translate(7.112 9.176)" fill="#1cc3ea"/>
      <path id="패스_1943" data-name="패스 1943" d="M86.773,99.729c.045-2.631-1.766-3.691-4.06-2.343a9.119,9.119,0,0,0-4.06,7.032c-.034,2.529,1.787,3.584,4.06,2.345A8.924,8.924,0,0,0,86.773,99.729Z" transform="translate(11.924 11.417)" fill="#ededed"/>
      <path id="패스_1944" data-name="패스 1944" d="M85.24,96.978,79.5,106.927c2.5,1.5,5.033,2.98,7.6,4.4l5.744-9.948C90.278,99.842,87.747,98.366,85.24,96.978Z" transform="translate(12.19 11.473)" fill="#ededed"/>
      <path id="패스_1945" data-name="패스 1945" d="M92.487,103.022c0-2.589-1.817-3.639-4.06-2.345a8.978,8.978,0,0,0-4.06,7.034c0,2.589,1.818,3.639,4.06,2.345A8.974,8.974,0,0,0,92.487,103.022Z" transform="translate(13.728 12.466)" fill="#ededed"/>
      <path id="패스_1946" data-name="패스 1946" d="M91.489,103.238c0-2.076-1.458-2.917-3.255-1.879A7.193,7.193,0,0,0,84.979,107c0,2.076,1.458,2.917,3.255,1.88A7.2,7.2,0,0,0,91.489,103.238Z" transform="translate(13.921 12.716)" fill="#706f6f"/>
      <path id="패스_1947" data-name="패스 1947" d="M77.563,97.308l8.61,4.971a.593.593,0,0,0,.841-.749l-3.771-8.709A.584.584,0,0,0,83,92.543l-8.61-4.971a.593.593,0,0,0-.841.749l3.771,8.709A.584.584,0,0,0,77.563,97.308Z" transform="translate(10.295 8.478)" fill="#b2b2b2"/>
      <path id="패스_1948" data-name="패스 1948" d="M48.462,95.2c0-2.2-1.543-3.088-3.447-1.989a7.618,7.618,0,0,0-3.446,5.969c0,2.2,1.543,3.089,3.446,1.991A7.62,7.62,0,0,0,48.462,95.2Z" transform="translate(0.217 10.137)" fill="#fff"/>
      <path id="패스_1949" data-name="패스 1949" d="M62.592,100.266c-4.523-2.506-8.964-4.739-13.279-6.644a37.947,37.947,0,0,0-9.926-2.813c-3.969-.547-4.74.813-2.35,4.072a38.7,38.7,0,0,0,7.4,7.19q6.065,4.267,12.414,8.143c2.5,1.5,5.031,2.98,7.6,4.4l5.743-9.948C67.631,103.13,65.1,101.654,62.592,100.266Z" transform="translate(-1.641 9.488)" fill="#1cc3ea"/>
      <path id="패스_1950" data-name="패스 1950" d="M59.047,100.719c.045-2.631-1.767-3.692-4.062-2.345a9.127,9.127,0,0,0-4.06,7.034c-.034,2.529,1.787,3.584,4.06,2.345A8.926,8.926,0,0,0,59.047,100.719Z" transform="translate(3.17 11.73)" fill="#ededed"/>
      <path id="패스_1951" data-name="패스 1951" d="M57.513,97.968l-5.743,9.948c2.5,1.5,5.031,2.98,7.6,4.4l5.743-9.948C62.552,100.832,60.021,99.356,57.513,97.968Z" transform="translate(3.437 11.786)" fill="#ededed"/>
      <path id="패스_1952" data-name="패스 1952" d="M64.762,104.012c0-2.589-1.818-3.639-4.06-2.345A8.974,8.974,0,0,0,56.64,108.7c0,2.589,1.818,3.638,4.062,2.343A8.976,8.976,0,0,0,64.762,104.012Z" transform="translate(4.975 12.779)" fill="#ededed"/>
      <path id="패스_1953" data-name="패스 1953" d="M63.762,104.226c0-2.075-1.456-2.916-3.254-1.879a7.192,7.192,0,0,0-3.255,5.638c0,2.076,1.456,2.917,3.255,1.879A7.194,7.194,0,0,0,63.762,104.226Z" transform="translate(5.168 13.028)" fill="#706f6f"/>
      <path id="패스_1954" data-name="패스 1954" d="M49.836,98.3l8.61,4.971a.593.593,0,0,0,.841-.75l-3.771-8.707a.593.593,0,0,0-.247-.279l-8.61-4.971a.593.593,0,0,0-.841.75l3.771,8.709A.6.6,0,0,0,49.836,98.3Z" transform="translate(1.542 8.79)" fill="#b2b2b2"/>
      <ellipse id="타원_87" data-name="타원 87" cx="12.331" cy="7.12" rx="12.331" ry="7.12" transform="matrix(0.5, -0.866, 0.866, 0.5, 63.651, 70.425)" fill="#ededed"/>
      <path id="패스_1955" data-name="패스 1955" d="M32.26,42.485C44.872,57.249,58.762,74.465,73,81.914l84.016,48.513s2.613,1.4,2.973,1.585c8.052,4.152,15.191,6.225,23.488,5.044,4.38-.617,5.554-5.825,2.845-9.422-1.535-2.031-2.77-3.822-3.852-5.433-.843-1.249-1.6-2.377-2.333-3.416-.391-.572-.783-1.129-1.189-1.656a24.893,24.893,0,0,0-8.081-7.163,2.955,2.955,0,0,0-.271-.182L85.324,60.559,36.249,36.044C31.719,33.832,28.935,39.009,32.26,42.485Z" transform="translate(-3.183 -7.932)" fill="#ededed"/>
      <path id="패스_1956" data-name="패스 1956" d="M9.81,43.983l8.143,4.7,35.562,1.279a.953.953,0,0,0,.51-1.776c-3.972-3.958-9.044-6.246-14.312-8.261l-2.859.391L14.265,43.382Z" transform="translate(-9.81 -6.54)" fill="#dadada"/>
      <path id="패스_1957" data-name="패스 1957" d="M31.749,14.549l.332,3.251,2.333,22.409.376,3.551C39.846,48,47.987,53.227,51.163,54.01A.762.762,0,0,0,52.052,53L39.891,19.245Z" transform="translate(-2.883 -14.55)" fill="#34cdf7"/>
      <path id="패스_1958" data-name="패스 1958" d="M78.561,76.9c0,2.6,15.875,14.32,28.156,21.41s16.319,6.864,16.319,4.267S119,96,106.717,88.908,78.561,74.306,78.561,76.9Z" transform="translate(11.895 4.97)" fill="#1cc3ea"/>
      <path id="패스_1959" data-name="패스 1959" d="M19.277,91.411,30.605,97.95l1.189.678,3.3,1.9,98.967-2.13a.2.2,0,0,0,.164-.314,19.492,19.492,0,0,0-6.027-5.63c-.33-.249-.678-.463-1.041-.695-6.06-3.847-14.779-7.728-23.2-11.658a.71.71,0,0,0-.512-.1l-7.761,1.057-11.758,1.6L64.261,85.317l-4,.546L46.871,87.678l-18.116,2.46Z" transform="translate(-6.821 6.109)" fill="#dadada"/>
      <path id="패스_1960" data-name="패스 1960" d="M50.668,55.143a4.3,4.3,0,0,0,1.943,3.366l105.61,61.007c1.074.62,1.943.117,1.943-1.122h0a4.294,4.294,0,0,0-1.943-3.366L52.611,54.021c-1.072-.62-1.943-.117-1.943,1.122Z" transform="translate(3.089 -2.172)" fill="#c6c6c6"/>
      <path id="패스_1961" data-name="패스 1961" d="M104.706,86.777a1.691,1.691,0,0,0,.764,1.325h0c.422.243.764.046.764-.442v-.92a1.691,1.691,0,0,0-.764-1.325h0c-.422-.243-.764-.046-.764.442Z" transform="translate(20.149 7.79)" fill="#575756"/>
      <path id="패스_1962" data-name="패스 1962" d="M101.776,85.084a1.689,1.689,0,0,0,.764,1.325h0c.422.243.764.046.764-.442v-.92a1.689,1.689,0,0,0-.764-1.324h0c-.422-.243-.764-.046-.764.441Z" transform="translate(19.224 7.256)" fill="#575756"/>
      <path id="패스_1963" data-name="패스 1963" d="M98.846,83.394a1.689,1.689,0,0,0,.764,1.324h0c.422.245.764.046.764-.441v-.92a1.691,1.691,0,0,0-.764-1.325h0c-.422-.243-.764-.046-.764.442Z" transform="translate(18.299 6.722)" fill="#575756"/>
      <path id="패스_1964" data-name="패스 1964" d="M95.916,81.7a1.691,1.691,0,0,0,.764,1.325h0c.422.243.764.046.764-.442v-.92a1.693,1.693,0,0,0-.764-1.325h0c-.422-.243-.764-.046-.764.442Z" transform="translate(17.374 6.188)" fill="#575756"/>
      <path id="패스_1965" data-name="패스 1965" d="M92.985,80.009a1.691,1.691,0,0,0,.766,1.325h0c.421.243.764.046.764-.442v-.918a1.693,1.693,0,0,0-.764-1.325h0c-.422-.243-.766-.046-.766.441Z" transform="translate(16.449 5.654)" fill="#575756"/>
      <path id="패스_1966" data-name="패스 1966" d="M90.055,78.319a1.689,1.689,0,0,0,.764,1.324h0c.422.245.766.046.766-.441v-.92a1.689,1.689,0,0,0-.766-1.325h0c-.422-.243-.764-.046-.764.442Z" transform="translate(15.524 5.12)" fill="#575756"/>
      <path id="패스_1967" data-name="패스 1967" d="M87.125,76.627a1.691,1.691,0,0,0,.764,1.325h0c.422.243.766.046.766-.442v-.92a1.69,1.69,0,0,0-.766-1.324h0c-.422-.245-.764-.046-.764.441Z" transform="translate(14.599 4.586)" fill="#575756"/>
      <path id="패스_1968" data-name="패스 1968" d="M84.2,74.934a1.689,1.689,0,0,0,.764,1.325h0c.422.243.766.046.766-.441V74.9a1.691,1.691,0,0,0-.766-1.325h0c-.422-.243-.764-.046-.764.442Z" transform="translate(13.674 4.052)" fill="#575756"/>
      <path id="패스_1969" data-name="패스 1969" d="M81.265,73.244a1.693,1.693,0,0,0,.764,1.325h0c.422.243.764.046.764-.442v-.92a1.691,1.691,0,0,0-.764-1.325h0c-.422-.243-.764-.046-.764.442Z" transform="translate(12.749 3.518)" fill="#575756"/>
      <path id="패스_1970" data-name="패스 1970" d="M78.335,71.552a1.689,1.689,0,0,0,.764,1.325h0c.422.243.764.046.764-.442v-.92a1.689,1.689,0,0,0-.764-1.324h0c-.422-.245-.764-.046-.764.441Z" transform="translate(11.824 2.984)" fill="#575756"/>
      <path id="패스_1971" data-name="패스 1971" d="M75.4,69.861a1.689,1.689,0,0,0,.764,1.324h0c.422.243.764.046.764-.441v-.92a1.689,1.689,0,0,0-.764-1.325h0c-.422-.243-.764-.046-.764.442Z" transform="translate(10.899 2.45)" fill="#575756"/>
      <path id="패스_1972" data-name="패스 1972" d="M72.475,68.169a1.691,1.691,0,0,0,.764,1.325h0c.422.243.764.046.764-.442v-.92a1.691,1.691,0,0,0-.764-1.325h0c-.422-.243-.764-.046-.764.442Z" transform="translate(9.974 1.915)" fill="#575756"/>
      <path id="패스_1973" data-name="패스 1973" d="M69.545,66.477a1.689,1.689,0,0,0,.764,1.325h0c.422.243.764.046.764-.442v-.92a1.689,1.689,0,0,0-.764-1.324h0c-.422-.245-.764-.046-.764.441Z" transform="translate(9.049 1.381)" fill="#575756"/>
      <path id="패스_1974" data-name="패스 1974" d="M66.615,64.786a1.689,1.689,0,0,0,.764,1.324h0c.422.245.764.046.764-.441v-.92a1.689,1.689,0,0,0-.764-1.325h0c-.422-.243-.764-.046-.764.442Z" transform="translate(8.124 0.847)" fill="#575756"/>
      <path id="패스_1975" data-name="패스 1975" d="M63.685,63.094a1.691,1.691,0,0,0,.764,1.325h0c.422.243.764.046.764-.442v-.92a1.687,1.687,0,0,0-.764-1.324h0c-.422-.245-.764-.047-.764.441Z" transform="translate(7.199 0.313)" fill="#575756"/>
      <path id="패스_1976" data-name="패스 1976" d="M60.755,61.4a1.689,1.689,0,0,0,.764,1.325h0c.422.243.764.046.764-.442v-.918a1.689,1.689,0,0,0-.764-1.325h0c-.422-.243-.764-.046-.764.441Z" transform="translate(6.274 -0.221)" fill="#575756"/>
      <path id="패스_1977" data-name="패스 1977" d="M57.824,59.711a1.69,1.69,0,0,0,.766,1.324h0c.421.245.764.046.764-.441v-.92a1.691,1.691,0,0,0-.764-1.325h0c-.422-.243-.766-.046-.766.442Z" transform="translate(5.348 -0.755)" fill="#575756"/>
      <path id="패스_1978" data-name="패스 1978" d="M54.894,58.019a1.689,1.689,0,0,0,.764,1.325h0c.424.243.766.046.766-.442v-.92a1.687,1.687,0,0,0-.766-1.324h0c-.422-.245-.764-.047-.764.441Z" transform="translate(4.423 -1.289)" fill="#575756"/>
      <path id="패스_1979" data-name="패스 1979" d="M51.964,56.326a1.689,1.689,0,0,0,.764,1.325h0c.422.243.766.046.766-.441v-.92a1.691,1.691,0,0,0-.766-1.325h0c-.422-.243-.764-.046-.764.441Z" transform="translate(3.498 -1.823)" fill="#575756"/>
      <path id="패스_1980" data-name="패스 1980" d="M119.356,95.185a1.689,1.689,0,0,0,.764,1.324h0c.422.245.764.046.764-.441v-.92a1.691,1.691,0,0,0-.764-1.325h0c-.422-.243-.764-.046-.764.442Z" transform="translate(24.774 10.444)" fill="#575756"/>
      <path id="패스_1981" data-name="패스 1981" d="M116.426,93.493a1.691,1.691,0,0,0,.764,1.325h0c.422.243.764.046.764-.442v-.92a1.689,1.689,0,0,0-.764-1.324h0c-.422-.245-.764-.046-.764.441Z" transform="translate(23.849 9.91)" fill="#575756"/>
      <path id="패스_1982" data-name="패스 1982" d="M113.5,91.8a1.689,1.689,0,0,0,.764,1.324h0c.422.243.764.046.764-.441v-.92a1.689,1.689,0,0,0-.764-1.325h0c-.422-.243-.764-.046-.764.442Z" transform="translate(22.924 9.376)" fill="#575756"/>
      <path id="패스_1983" data-name="패스 1983" d="M110.566,90.11a1.693,1.693,0,0,0,.764,1.325h0c.422.243.764.046.764-.442v-.92a1.691,1.691,0,0,0-.764-1.325h0c-.422-.243-.764-.046-.764.442Z" transform="translate(21.999 8.842)" fill="#575756"/>
      <path id="패스_1984" data-name="패스 1984" d="M107.636,88.418a1.689,1.689,0,0,0,.764,1.325h0c.422.243.764.046.764-.442v-.92a1.689,1.689,0,0,0-.764-1.324h0c-.422-.245-.764-.046-.764.441Z" transform="translate(21.074 8.308)" fill="#575756"/>
      <path id="패스_1985" data-name="패스 1985" d="M104.706,86.727a1.689,1.689,0,0,0,.764,1.324h0c.422.245.764.046.764-.441v-.92a1.689,1.689,0,0,0-.764-1.325h0c-.422-.243-.764-.046-.764.442Z" transform="translate(20.149 7.774)" fill="#575756"/>
      <path id="패스_1986" data-name="패스 1986" d="M121.605,101.595a2.258,2.258,0,0,1-1.109-.333,4.207,4.207,0,0,1-2.4-3.666,12.149,12.149,0,0,1,.289-4.969c.346-1.189.943-1.438,1.384-1.438a1.636,1.636,0,0,1,.858.276l.028.017c1.388.828,2.391,1.425,2.114,3.714a18.523,18.523,0,0,0,0,4.733,1.576,1.576,0,0,1-.267,1.287A1.146,1.146,0,0,1,121.605,101.595Zm-1.833-10.144c-.635,0-.966.678-1.13,1.246a11.854,11.854,0,0,0-.283,4.858,3.991,3.991,0,0,0,2.27,3.481,1.352,1.352,0,0,0,1.676.009,1.326,1.326,0,0,0,.205-1.079,18.875,18.875,0,0,1,0-4.8c.257-2.12-.637-2.651-1.987-3.458l-.03-.017A1.385,1.385,0,0,0,119.773,91.451Z" transform="translate(24.334 9.646)" fill="#706f6f"/>
      <path id="패스_1987" data-name="패스 1987" d="M77.784,76.538h0a2.252,2.252,0,0,1-1.11-.333,4.2,4.2,0,0,1-2.395-3.666,12.126,12.126,0,0,1,.288-4.969c.347-1.189.945-1.438,1.384-1.438a1.644,1.644,0,0,1,.858.276l.028.017c1.388.826,2.391,1.425,2.114,3.714a18.571,18.571,0,0,0,0,4.731,1.577,1.577,0,0,1-.267,1.289A1.147,1.147,0,0,1,77.784,76.538ZM75.951,66.4c-.634,0-.964.678-1.13,1.245a11.878,11.878,0,0,0-.283,4.858,3.991,3.991,0,0,0,2.268,3.481,2,2,0,0,0,.978.3h0a.884.884,0,0,0,.7-.287,1.325,1.325,0,0,0,.207-1.079,18.757,18.757,0,0,1,0-4.8c.255-2.12-.637-2.652-1.989-3.458l-.029-.017A1.394,1.394,0,0,0,75.951,66.4Z" transform="translate(10.5 1.735)" fill="#706f6f"/>
      <path id="패스_1988" data-name="패스 1988" d="M32,17.02l2.333,22.409,4.243,2.513a.6.6,0,0,0,.874-.632L35.974,19.458a.6.6,0,0,0-.317-.421Z" transform="translate(-2.804 -13.77)" fill="#706f6f"/>
      <path id="패스_1989" data-name="패스 1989" d="M13.2,43.287l3.792,2.242,24.169-2.453-5.373-2.859Z" transform="translate(-8.74 -6.446)" fill="#706f6f"/>
      <path id="패스_1990" data-name="패스 1990" d="M27.887,95.126l1.189.678,24.242-1.553,41.152-2.642,31.012-1.981c-.33-.249-.678-.463-1.041-.695l-29.658,1.9-1.271.083-39.98,2.559-1.172.083Z" transform="translate(-4.103 8.934)" fill="#ededed"/>
      <rect id="사각형_1017" data-name="사각형 1017" width="0.752" height="15.885" transform="matrix(0.542, -0.841, 0.841, 0.542, 77.02, 91.864)" fill="#ededed"/>
      <rect id="사각형_1018" data-name="사각형 1018" width="0.752" height="11.629" transform="matrix(0.594, -0.805, 0.805, 0.594, 39.852, 96.275)" fill="#ededed"/>
      <path id="패스_1991" data-name="패스 1991" d="M26.488,88.723l4.154,2.393L62.757,87.2l-4.771-2.754Z" transform="translate(-4.544 7.518)" fill="#34cdf7"/>
      <path id="패스_1992" data-name="패스 1992" d="M53.471,85.059l4.981,2.634,31.589-3.928L84.894,80.8Z" transform="translate(3.974 6.366)" fill="#34cdf7"/>
      <g id="그룹_290" data-name="그룹 290" transform="translate(37.831 24.029)">
        <g id="그룹_289" data-name="그룹 289" transform="translate(1.74)">
          <path id="패스_1993" data-name="패스 1993" d="M41.082,36.929l-.566-.079c-.026,0-.039.042-.025.082.137.366.311.376.613.108C41.133,37.015,41.116,36.934,41.082,36.929Z" transform="translate(-39.696 -31.538)" fill="#fff"/>
          <path id="패스_1994" data-name="패스 1994" d="M41.191,36.546a2.538,2.538,0,0,0-.076-.337V36.2c-.278-.955-.555-1.91-.847-2.913-.012-.041-.045-.047-.054-.012a1.412,1.412,0,0,0,.005.905C40.491,34.883,40.906,35.858,41.191,36.546Z" transform="translate(-39.805 -32.673)" fill="#fff"/>
          <path id="패스_1995" data-name="패스 1995" d="M41,36.617l-.824-.457c-.021-.012-.037.022-.026.058.146.47.451.633.857.485C41.028,36.695,41.023,36.632,41,36.617Z" transform="translate(-39.804 -31.757)" fill="#fff"/>
          <path id="패스_1996" data-name="패스 1996" d="M41.168,36.552a.688.688,0,0,0-.112-.163l0,0-1.126-1.1c-.024-.022-.047.005-.041.047a.921.921,0,0,0,.3.647C40.47,36.17,40.884,36.389,41.168,36.552Z" transform="translate(-39.885 -32.034)" fill="#fff"/>
          <path id="패스_1997" data-name="패스 1997" d="M40.1,35.153c.284.37.779.938,1.071,1.285,0-.026-.129-.23-.168-.3L39.978,34.3c-.018-.033-.049-.022-.05.02A1.292,1.292,0,0,0,40.1,35.153Z" transform="translate(-39.873 -32.35)" fill="#fff"/>
          <path id="패스_1998" data-name="패스 1998" d="M41.425,37.567c0-.033-.02-.066-.036-.049l-.234.23a.056.056,0,0,0,.008.07C41.326,37.939,41.387,37.88,41.425,37.567Z" transform="translate(-39.487 -31.329)" fill="#fff"/>
          <path id="패스_1999" data-name="패스 1999" d="M41.59,37.713c0-.032-.024-.053-.036-.033l-.172.291c-.011.018,0,.055.014.061C41.549,38.09,41.594,38.014,41.59,37.713Z" transform="translate(-39.414 -31.279)" fill="#fff"/>
          <path id="패스_2000" data-name="패스 2000" d="M42.315,38.786a7.081,7.081,0,0,1-.459-1.179,16.169,16.169,0,0,1-.959-4.755c0-.034-.028-.054-.038-.028a2.836,2.836,0,0,0-.159,1.456c.068.462.155.929.268,1.379a13.866,13.866,0,0,0,1.355,3.312l.033-.1Z" transform="translate(-39.638 -32.813)" fill="#fff"/>
          <path id="패스_2001" data-name="패스 2001" d="M41.2,37.272l-.38.091c-.022.005-.028.055-.007.083.158.229.236.214.417-.087C41.25,37.327,41.228,37.266,41.2,37.272Z" transform="translate(-39.596 -31.405)" fill="#fff"/>
          <path id="패스_2002" data-name="패스 2002" d="M43.626,34.16c0-.008-.018,0-.037,0a.812.812,0,0,0-.076.045l-.032.021c-.413.305-.5,1.109-.751,1.671l.355-2.1c.008-.047-.028-.1-.053-.075-.458.442-.474,1.384-.684,2.117l.166-2.235c0-.05-.033-.093-.055-.066-.483.576-.354,1.656-.493,2.53-.018-.587-.037-1.174-.057-1.785,0-.057-.045-.095-.066-.058a1.877,1.877,0,0,0-.192.976c.011.413.055,1.068.075,1.483-.013-.025-.039-.2-.049-.237-.062-.378-.138-.863-.2-1.263-.007-.043-.041-.055-.05-.018a3.5,3.5,0,0,0-.062.837,7.514,7.514,0,0,0,.275,1.372,7.081,7.081,0,0,0,.459,1.179l.041.086v0l1.488-4.472Z" transform="translate(-39.42 -32.585)" fill="#fff"/>
        </g>
        <path id="패스_2003" data-name="패스 2003" d="M38.774,37.651l.516.305a1.352,1.352,0,0,1-.114.437.739.739,0,0,1-.243.3.72.72,0,0,1-.368.124l.095.38a.9.9,0,0,0,.438-.176,1.023,1.023,0,0,0,.3-.4,2.1,2.1,0,0,0,.149-.62l.024-.237-.759-.447Z" transform="translate(-38.563 -31.391)" fill="#fff"/>
        <path id="패스_2004" data-name="패스 2004" d="M39.791,37.731l-.241-.142-.252,2.49.241.142.128-1.262.206.122.034-.334-.206-.122Z" transform="translate(-38.331 -31.305)" fill="#fff"/>
        <path id="패스_2005" data-name="패스 2005" d="M40.561,40.823l.241.142.251-2.488-.241-.142Z" transform="translate(-37.932 -31.069)" fill="#fff"/>
        <path id="패스_2006" data-name="패스 2006" d="M40.494,39.721c-.1-.045-.238-.117-.416-.218l.1-1.02.529.312.033-.334-.768-.454L39.8,39.7l.275.163a4.045,4.045,0,0,0,.4.212.805.805,0,0,0,.289.075l-.022-.357A.7.7,0,0,1,40.494,39.721Z" transform="translate(-38.172 -31.173)" fill="#fff"/>
        <path id="패스_2007" data-name="패스 2007" d="M41.666,40.237a.271.271,0,0,0,.179-.13.75.75,0,0,0,.095-.325,1.189,1.189,0,0,0-.022-.4.969.969,0,0,0-.134-.318.691.691,0,0,0-.211-.205.334.334,0,0,0-.225-.051.266.266,0,0,0-.18.134.727.727,0,0,0-.095.325,1.156,1.156,0,0,0,.022.389.957.957,0,0,0,.134.318.65.65,0,0,0,.211.205A.334.334,0,0,0,41.666,40.237Zm-.346-.645a.63.63,0,0,1-.007-.18.407.407,0,0,1,.041-.153.142.142,0,0,1,.079-.074.133.133,0,0,1,.105.02.264.264,0,0,1,.095.1.486.486,0,0,1,.058.154.639.639,0,0,1,.008.182.4.4,0,0,1-.042.151.133.133,0,0,1-.08.068.13.13,0,0,1-.1-.018.291.291,0,0,1-.1-.1A.474.474,0,0,1,41.32,39.592Z" transform="translate(-37.773 -30.92)" fill="#fff"/>
        <path id="패스_2008" data-name="패스 2008" d="M41.853,40.865l.241.142.183-1.813-.241-.142-.064.635-.184-.109-.034.334.184.109Z" transform="translate(-37.556 -30.843)" fill="#fff"/>
        <path id="패스_2009" data-name="패스 2009" d="M41.488,40.118l-.241-.142-.085.838,1.082.639.033-.329-.841-.5Z" transform="translate(-37.742 -30.551)" fill="#fff"/>
        <path id="패스_2010" data-name="패스 2010" d="M42.569,40.48a.522.522,0,0,1-.289-.012l.055.372a.622.622,0,0,0,.334-.007.487.487,0,0,0,.258-.208l.022-.037a1.244,1.244,0,0,0,.025.129,1.452,1.452,0,0,0,.179.449.721.721,0,0,0,.209.224.283.283,0,0,0,.22.047l-.03-.37a.148.148,0,0,1-.138-.024.427.427,0,0,1-.145-.153.952.952,0,0,1-.118-.317,1.137,1.137,0,0,1-.026-.334l.454.268.034-.334L42.471,39.5l-.034.334.443.263a.55.55,0,0,1-.095.234A.4.4,0,0,1,42.569,40.48Z" transform="translate(-37.39 -30.702)" fill="#fff"/>
        <path id="패스_2011" data-name="패스 2011" d="M42.2,40.707l-.034.34L43.6,41.9l.034-.34Z" transform="translate(-37.426 -30.321)" fill="#fff"/>
        <path id="패스_2012" data-name="패스 2012" d="M41.5,39.453v0l0,.008,0-.008Z" transform="translate(-37.638 -30.716)" fill="#fff"/>
      </g>
    </g>
  </g>
</svg>
