<svg xmlns="http://www.w3.org/2000/svg" width="153.689" height="120.423" viewBox="0 0 153.689 120.423">
  <g id="그룹_288" data-name="그룹 288" transform="translate(0 0)">
    <path id="패스_1882" data-name="패스 1882" d="M215.056,33.564l-8.61,23.777a6.771,6.771,0,0,1-2.465,3.254l-10,6.536L173.393,80.6,165.6,85.69v-11.2l7.789-4.418h0l20.59-11.682h0l6.8-3.859a8.922,8.922,0,0,0,3.395-3.862l8.337-17.46a2.426,2.426,0,0,1,1.9-1.555h.026C215.155,31.689,215.428,32.536,215.056,33.564Z" transform="translate(-82.744 -18.464)" fill="#ccc"/>
    <path id="패스_1883" data-name="패스 1883" d="M211.441,31.7l-9.46,24.131L162.3,85.666l5.543,3.144,39.225-29.494,9.818-24.527Z" transform="translate(-79.439 -18.44)" fill="#ccc"/>
    <path id="패스_1884" data-name="패스 1884" d="M161.915,76.584,197.1,56.624a8.919,8.919,0,0,0,3.393-3.862l8.339-17.46a2.429,2.429,0,0,1,1.9-1.555l.024,0c.712.036.985.883.611,1.911l-8.61,23.778a6.771,6.771,0,0,1-2.464,3.252l-10,6.536L169.7,82.69l-7.789,5.092Z" transform="translate(-73.513 -17.413)" fill="#ccc"/>
    <path id="패스_1885" data-name="패스 1885" d="M161.915,60.483l0,8.74,10-6.536a6.771,6.771,0,0,0,2.464-3.252l8.61-23.778c.374-1.027.1-1.875-.611-1.911l-.024,0a2.429,2.429,0,0,0-1.9,1.555l-8.339,17.46a8.919,8.919,0,0,1-3.393,3.862Z" transform="translate(-45.134 -17.413)" opacity="0.1"/>
    <path id="패스_1886" data-name="패스 1886" d="M189.761,63.741l7.789-4.419V69.846l-7.789,5.093Z" transform="translate(-101.359 -4.569)" opacity="0.1"/>
    <path id="패스_1887" data-name="패스 1887" d="M183.112,24.788q-.288-.994-.641-1.915L167.422,39.358h0l-.014-.017c-.015-.015-.029-.032-.044-.045l-.011-.011-.048-.044-.011-.008-.029-.024-.023-.017,0,0-.009,0-.023-.017-.03-.02-.011-.006-.054-.03-.014-.006-.051-.023-.018-.006-.047-.018-.024-.008-.041-.009-.033-.008-.033,0-.041-.006-.026,0-.051,0a.085.085,0,0,1-.02,0l-.057,0-.015,0c-.021,0-.042,0-.063.008l-.007,0-.042.008-.027.006H166.5l0,0-.03.008-.038.011-.012,0a.469.469,0,0,0-.065.023l-.015,0-.059.026-.021.011-.053.027-.027.014-.044.026-.035.023-.035.023-.045.03-.026.02-.051.041-.02.015-.057.048-.014.014-.062.056-.007.009-.039.038-.026.029-.008.006,0,0-.03.032-.033.038-.01.014c-.02.023-.039.045-.057.069l-.014.017-.051.066-.017.024v0l-13.045-9.793q-.509,1.127-.964,2.3l13.353,9.1v0l-.006.032c0,.03-.01.063-.015.093l0,.024c0,.033-.008.066-.012.1l0,.02-.008.059-.008.11,0,.057,0,.021c0,.032,0,.065,0,.1v.023c0,.03,0,.059,0,.09v.03c0,.026,0,.053,0,.078l0,.039,0,.065,0,.051,0,.053.009.062,0,.038.012.072.006.027c0,.029.011.054.017.08l0,.021.02.083,0,.017.014.047.012.035,0,.011,0,.008.012.035.015.045.006.015c.009.024.02.048.03.074l.006.018.032.063.01.021.029.056.015.027.026.044.023.033.021.033.029.039.018.023.036.044.014.017.044.044.008.008c.02.018.035.033.051.047l.011.009.029.024.023.015.006,0,.006,0,.023.017.032.018.011.006a.363.363,0,0,0,.053.03l.014.006c.017.008.035.017.051.023l.018.008h0L163.348,70.2c.261-.044.523-.1.789-.161s.527-.135.79-.215l1.762-26.27,0,0,.02-.017c.02-.015.038-.032.057-.048l.015-.012c.02-.02.041-.038.06-.059l.012-.011.035-.035.027-.029,0,0,.008-.009.027-.029.033-.038.011-.014c.02-.023.039-.045.057-.069l.014-.017.051-.066.017-.024.044-.062.023-.033.036-.054.029-.045.027-.044.033-.059.021-.036c.014-.023.026-.047.038-.071l.015-.027.042-.083.009-.02c.015-.03.029-.06.042-.09l.008-.018.024-.056.018-.042,0-.006,0-.012.018-.044.021-.056.006-.018c.012-.033.024-.065.035-.1l.007-.021.03-.092.009-.03.024-.081.012-.042.017-.069.014-.056.014-.056.015-.068.009-.044.015-.081,0-.033c.006-.032.01-.062.015-.092l0-.026c0-.033.009-.066.012-.1l0-.021.006-.057.008-.111,0-.057v-.02c0-.033,0-.066,0-.1v-.023c0-.03,0-.06,0-.09v-.03h0Z" transform="translate(-29.423 -22.873)" fill="#7adafc"/>
    <path id="패스_1888" data-name="패스 1888" d="M262.3,56.145l-34.35,19.488-11.466,6.5a15.043,15.043,0,0,0-2.156,1.5,21.791,21.791,0,0,0-5.542,7.23l-.245.538-.006.02-.488,1.074-3.87,8.537-.475,1.053c-.017.018-.035.041-.048.057-9.3,11.909-7.615,15.81,2.7,13.422a25.726,25.726,0,0,0,7.969-2.892c.179-.092.35-.188.526-.29l3.5-1.987,1.167-.659,5.705-3.236.267-.153,2.456-1.393,11.474-6.51a49.591,49.591,0,0,0,12.055-9.911,65.788,65.788,0,0,0,8.612-12.049l3.9-7a16.944,16.944,0,0,0,2.3-7.977V58.412C266.29,55.908,264.5,54.893,262.3,56.145Z" transform="translate(-181.807 -6.434)" fill="#efefef"/>
    <path id="패스_1889" data-name="패스 1889" d="M252.5,55.875,186.187,115.64l18,10.213,66.318-59.766Z" transform="translate(-168.946 -6.3)" fill="#efefef"/>
    <path id="패스_1890" data-name="패스 1890" d="M249.839,63.212,239.014,69.35l0,0L215.489,82.7l-11.466,6.5a15.041,15.041,0,0,0-2.156,1.5,21.77,21.77,0,0,0-5.542,7.23l-.245.538-.008.02-.487,1.076-3.87,8.535-.476,1.053a.638.638,0,0,1-.048.057c-9.3,11.909-7.613,15.812,2.7,13.424a25.783,25.783,0,0,0,7.969-2.893c.179-.092.35-.186.524-.29l13.1-7.428,11.474-6.509a49.846,49.846,0,0,0,12.055-9.913,65.779,65.779,0,0,0,8.607-12.051l3.906-7a16.96,16.96,0,0,0,2.3-7.974V65.479C253.833,62.975,252.044,61.96,249.839,63.212Z" transform="translate(-150.638 -2.885)" fill="#eaeaea"/>
    <path id="패스_1891" data-name="패스 1891" d="M201.035,81.849c0,1.655,1.182,2.327,2.641,1.5a5.72,5.72,0,0,0,2.642-4.495c0-1.655-1.184-2.327-2.642-1.5A5.719,5.719,0,0,0,201.035,81.849Z" transform="translate(-127.063 4.308)" fill="#86f5ff"/>
    <path id="패스_1892" data-name="패스 1892" d="M199.916,65.478v3.107a16.954,16.954,0,0,1-2.3,7.977l-3.9,6.994A65.835,65.835,0,0,1,185.1,95.606V69.352l10.823-6.141C198.128,61.96,199.916,62.974,199.916,65.478Z" transform="translate(-96.72 -2.885)" opacity="0.1"/>
    <path id="패스_1893" data-name="패스 1893" d="M224.247,76.006l-11.466,6.5a15.04,15.04,0,0,0-2.156,1.5v29.039c.179-.092.35-.186.524-.29l13.1-7.428V83.607l0-3.224Z" transform="translate(-159.397 3.809)" opacity="0.1"/>
    <path id="패스_1894" data-name="패스 1894" d="M206.68,101.378c0,2.252,1.609,3.164,3.592,2.038l4.67-2.65a7.773,7.773,0,0,0,3.592-6.114V80.238c0-2.252-1.607-3.164-3.592-2.038l-4.67,2.65a7.777,7.777,0,0,0-3.592,6.114Z" transform="translate(-147.759 4.669)" fill="#58d6f4"/>
    <path id="패스_1895" data-name="패스 1895" d="M208.867,86.292c0,1.655,1.184,2.327,2.642,1.5a5.719,5.719,0,0,0,2.641-4.5c0-1.654-1.182-2.325-2.641-1.5A5.72,5.72,0,0,0,208.867,86.292Z" transform="translate(-146.66 6.54)" fill="#86f5ff"/>
    <path id="패스_1896" data-name="패스 1896" d="M227.879,85.7l-.383.219L223.08,88.45l0,.015-.37.823-2.937,6.539-.361.805-.038.045,8.148-4.66.383-.218a5.382,5.382,0,0,0,2.277-4.328v-.059C230.173,85.744,229.144,84.983,227.879,85.7Z" transform="translate(-178.47 8.543)" fill="#86f5ff"/>
    <path id="패스_1897" data-name="패스 1897" d="M193.2,77.406c0,1.655,1.182,2.327,2.641,1.5a5.719,5.719,0,0,0,2.641-4.5c0-1.654-1.182-2.325-2.641-1.5A5.718,5.718,0,0,0,193.2,77.406Z" transform="translate(-107.467 2.077)" fill="#86f5ff"/>
    <path id="패스_1898" data-name="패스 1898" d="M246.405,90.958,227.7,80.338l-3.722,8.282,18.71,10.62c.937-1.743,1.791-3.461,2.509-5.14C245.649,93.036,246.06,91.987,246.405,90.958Z" transform="translate(-201.607 5.985)" fill="#63eaff"/>
    <path id="패스_1899" data-name="패스 1899" d="M242.958,79.555,224.246,68.939l-11.466,6.5a15.043,15.043,0,0,0-2.156,1.5l18.713,10.616a15.041,15.041,0,0,1,2.156-1.5Z" transform="translate(-178.108 0.26)" opacity="0.1"/>
    <path id="패스_1900" data-name="패스 1900" d="M221.5,63.223v5.5c0,1.256-.841,2.51-2.534,3.473a13.758,13.758,0,0,1-12.241,0c-1.691-.963-2.539-2.217-2.539-3.473v-5.5Z" transform="translate(-146.971 -2.61)" fill="#5cc9ea"/>
    <path id="패스_1901" data-name="패스 1901" d="M206.717,68.337a13.742,13.742,0,0,0,12.243,0c3.381-1.917,3.381-5.028,0-6.946a13.742,13.742,0,0,0-12.243,0C203.337,63.309,203.337,66.42,206.717,68.337Z" transform="translate(-146.968 -4.253)" fill="#44aee2"/>
    <path id="패스_1902" data-name="패스 1902" d="M157.773,39.824q-2.686,1.541-5.115,3.209L211.71,73.347l0,0a.528.528,0,0,1-.036.051c-.032.05-.068.1-.1.153-.011.012-.015.026-.024.038-.033.056-.063.111-.093.168-.006.011-.011.021-.017.033-.017.033-.035.066-.048.1s-.02.053-.032.078l-.009.018-.006.018a.7.7,0,0,0-.03.078c-.012.032-.021.066-.033.1a.128.128,0,0,1-.012.036c-.017.057-.032.116-.045.173a.354.354,0,0,0-.009.042c-.012.054-.021.107-.03.161,0,.018,0,.036-.006.054-.006.048-.012.1-.014.144,0,.026,0,.05,0,.074,0,.041,0,.081,0,.122s0,.065,0,.1.006.066.008.1.009.081.015.122c0,.024.01.048.013.072.011.048.021.095.03.144a.561.561,0,0,1,.015.054l.048.161a.15.15,0,0,1,.015.041c.023.057.044.114.068.171a.169.169,0,0,1,.015.033c.015.033.029.066.047.1s.027.05.041.074l.006.018.014.02c.013.024.024.05.041.074s.038.065.059.1a.378.378,0,0,1,.021.032c.035.056.074.11.113.164a.29.29,0,0,1,.027.038l.117.149a.434.434,0,0,1,.044.05l.116.129c.023.021.041.042.062.065s.072.069.107.105l.089.083c.032.027.062.054.095.08s.077.068.117.1.051.039.077.06c.05.038.1.078.155.116l.057.042c.062.042.122.084.185.125l.048.032c.068.044.138.087.209.128l.044.026.125.074c.033.018.068.036.1.053l.024.015.024.011c.036.018.068.038.1.054s.09.044.137.066l.047.023c.081.038.161.074.243.11.02.008.038.018.057.026.075.033.155.063.231.095l.081.032.006,0-19.013,43.876q3.653.606,7.4,1.033l16.77-44.233,0,0c.038,0,.066-.006.1-.008.093-.009.189-.018.281-.029.024,0,.048-.006.072-.009.1-.009.2-.023.3-.038l.06-.009.174-.024.329-.057.167-.035.06-.012c.1-.021.194-.041.288-.065.021-.006.045-.009.068-.015.086-.021.171-.045.26-.068l.089-.024c.074-.02.15-.042.224-.066.038-.009.075-.021.114-.033.065-.021.126-.041.185-.062s.1-.033.146-.051l.146-.051.174-.069c.038-.012.074-.029.107-.042.071-.029.137-.057.2-.086l.077-.035c.077-.035.149-.069.219-.105.02-.009.038-.017.057-.027.077-.039.15-.08.227-.119l.044-.024c.044-.024.086-.047.128-.072s.063-.038.093-.057a.116.116,0,0,0,.024-.014l.024-.015c.032-.018.062-.038.092-.057l.12-.078.039-.027c.065-.044.128-.09.191-.137l.047-.032c.056-.044.111-.087.165-.132.02-.017.038-.03.054-.045.048-.041.093-.081.137-.122.024-.02.047-.042.071-.063s.074-.069.108-.105.054-.056.08-.084.054-.057.08-.087l.093-.107c.02-.024.036-.047.056-.069.033-.044.066-.087.1-.132l.039-.051.1-.153c.008-.012.014-.026.023-.038.033-.056.063-.111.093-.168a.137.137,0,0,1,.017-.033c.014-.033.032-.066.048-.1s.02-.051.032-.077l.009-.018.006-.018c.008-.026.02-.051.03-.078s.021-.066.032-.1l.011-.033c.02-.057.035-.116.048-.173a.211.211,0,0,1,.009-.042c.009-.054.021-.107.027-.161l.009-.054v-.006l78.565-12.938q-.478-1.052-1.044-2.1t-1.206-2.07L224.468,72.345l0,0L224.4,72.3c-.059-.042-.122-.083-.182-.123l-.048-.032c-.068-.044-.138-.087-.212-.128l-.042-.027-.125-.072c-.035-.018-.069-.036-.1-.054l-.024-.014-.026-.012c-.035-.017-.066-.036-.1-.054s-.093-.042-.137-.065l-.048-.023c-.08-.039-.159-.075-.242-.111-.02-.006-.038-.017-.057-.024l-.231-.1c-.029-.009-.056-.021-.083-.03-.069-.027-.14-.053-.21-.078l-.113-.039-.183-.06c-.051-.017-.1-.033-.152-.047l-.15-.044c-.065-.02-.131-.038-.194-.053-.041-.012-.081-.023-.12-.032-.078-.021-.155-.039-.233-.057L221.3,71c-.089-.02-.179-.039-.27-.057-.021,0-.042-.009-.066-.012-.1-.018-.2-.038-.294-.053l-.059-.009c-.059-.009-.117-.02-.176-.027-.044-.006-.089-.014-.135-.018l-.032,0-.03,0L220.1,70.8l-.177-.018-.06-.006c-.1-.009-.2-.018-.306-.026l-.071-.006c-.095-.008-.192-.012-.287-.017l-.1,0c-.084,0-.168,0-.254-.006-.042,0-.086,0-.131,0h-.212l-.171,0c-.057,0-.114,0-.173,0s-.138,0-.21.008l-.131.008c-.086.006-.168.011-.249.018-.035,0-.066.006-.1.008q-.14.011-.279.027c-.023,0-.048,0-.074.009-.1.011-.2.024-.3.038l-.062.009-.173.026-.329.057-.168.035-.059.012c-.1.021-.194.041-.288.065a.543.543,0,0,0-.068.015c-.086.02-.176.044-.26.066-.027.009-.059.017-.089.026h-.006Z" transform="translate(-152.658 -14.361)" fill="#7adafc"/>
    <path id="패스_1903" data-name="패스 1903" d="M215.333,60.9v2.689a2.068,2.068,0,0,1-1.239,1.7,6.729,6.729,0,0,1-5.985,0,2.07,2.07,0,0,1-1.241-1.7V60.9Z" transform="translate(-144.84 -3.776)" fill="#5cc9ea"/>
    <path id="패스_1904" data-name="패스 1904" d="M208.107,63.4a6.713,6.713,0,0,0,5.986,0c1.652-.937,1.652-2.458,0-3.4a6.723,6.723,0,0,0-5.986,0C206.454,60.945,206.454,62.465,208.107,63.4Z" transform="translate(-144.839 -4.579)" fill="#2dbae0"/>
    <g id="그룹_287" data-name="그룹 287" transform="translate(62.561 96.652)">
      <g id="그룹_286" data-name="그룹 286" transform="translate(0.065)">
        <path id="패스_1905" data-name="패스 1905" d="M210.236,90.157l.458-.077c.021,0,.033.033.021.066-.1.3-.243.312-.5.1C210.2,90.227,210.208,90.161,210.236,90.157Z" transform="translate(-207.869 -85.775)" fill="#fff"/>
        <path id="패스_1906" data-name="패스 1906" d="M210.021,90.21a1.975,1.975,0,0,1,.056-.275v-.006c.207-.781.413-1.562.629-2.382.009-.033.035-.039.044-.011a1.155,1.155,0,0,1,.014.736C210.556,88.845,210.239,89.645,210.021,90.21Z" transform="translate(-207.685 -87.062)" fill="#fff"/>
        <path id="패스_1907" data-name="패스 1907" d="M209.993,89.972l.659-.388c.018-.011.032.017.023.045-.108.386-.353.524-.685.412C209.969,90.035,209.972,89.984,209.993,89.972Z" transform="translate(-207.48 -86.025)" fill="#fff"/>
        <path id="패스_1908" data-name="패스 1908" d="M209.809,90.012a.533.533,0,0,1,.087-.135l0,0,.892-.913c.018-.02.038,0,.033.038a.748.748,0,0,1-.233.532C210.367,89.687,210.037,89.874,209.809,90.012Z" transform="translate(-207.375 -86.341)" fill="#fff"/>
        <path id="패스_1909" data-name="패스 1909" d="M210.7,88.954c-.222.306-.613.778-.843,1.065a2.485,2.485,0,0,1,.131-.248l.79-1.513c.015-.029.039-.02.042.014A1.049,1.049,0,0,1,210.7,88.954Z" transform="translate(-207.437 -86.699)" fill="#fff"/>
        <path id="패스_1910" data-name="패스 1910" d="M210.662,90.611c0-.027.015-.053.029-.041l.2.183a.046.046,0,0,1-.006.057C210.751,90.913,210.7,90.864,210.662,90.611Z" transform="translate(-208.726 -85.531)" fill="#fff"/>
        <path id="패스_1911" data-name="패스 1911" d="M210.823,90.717c0-.026.018-.044.029-.027l.146.231a.042.042,0,0,1-.01.051C210.864,91.022,210.826,90.962,210.823,90.717Z" transform="translate(-209.076 -85.472)" fill="#fff"/>
        <path id="패스_1912" data-name="패스 1912" d="M210.427,92.1a5.745,5.745,0,0,0,.349-.967,13.18,13.18,0,0,0,.682-3.882c0-.029.021-.044.03-.023a2.3,2.3,0,0,1,.159,1.179c-.047.377-.108.757-.191,1.125a11.217,11.217,0,0,1-1.032,2.717l-.029-.081Z" transform="translate(-209.096 -87.214)" fill="#fff"/>
        <path id="패스_1913" data-name="패스 1913" d="M210.452,90.391l.311.066c.018,0,.023.045.008.068-.125.189-.188.179-.343-.062C210.413,90.438,210.429,90.387,210.452,90.391Z" transform="translate(-208.251 -85.619)" fill="#fff"/>
        <path id="패스_1914" data-name="패스 1914" d="M210.857,88.285c0-.008.014,0,.03,0a.367.367,0,0,1,.062.035l.026.017c.342.239.428.889.644,1.341l-.33-1.7c-.008-.039.02-.081.041-.062.382.349.413,1.113.6,1.7l-.18-1.812c0-.041.024-.077.044-.056.4.458.321,1.338.452,2.044,0-.476.006-.954.009-1.451,0-.047.035-.078.053-.048a1.517,1.517,0,0,1,.176.789c0,.336-.023.868-.03,1.206.009-.021.029-.161.035-.194.042-.308.095-.7.138-1.029,0-.036.033-.047.041-.017a2.859,2.859,0,0,1,.068.679,6.183,6.183,0,0,1-.2,1.119,5.745,5.745,0,0,1-.349.967l-.032.069v0l-1.3-3.6Z" transform="translate(-210.857 -86.944)" fill="#fff"/>
      </g>
      <path id="패스_1915" data-name="패스 1915" d="M209.452,90.651l-.413.258a1.121,1.121,0,0,0,.1.353.593.593,0,0,0,.2.236.565.565,0,0,0,.3.093l-.069.311a.729.729,0,0,1-.361-.135.821.821,0,0,1-.249-.315,1.726,1.726,0,0,1-.134-.5l-.024-.191.607-.38Z" transform="translate(-204.635 -85.624)" fill="#fff"/>
      <path id="패스_1916" data-name="패스 1916" d="M209.39,90.708l.193-.12.256,2.017-.193.12-.129-1.022-.165.1-.034-.271.165-.1Z" transform="translate(-205.584 -85.52)" fill="#fff"/>
      <path id="패스_1917" data-name="패스 1917" d="M210.649,93.157l-.193.12-.255-2.015.193-.12Z" transform="translate(-207.723 -85.242)" fill="#fff"/>
      <path id="패스_1918" data-name="패스 1918" d="M209.907,92.3a3.793,3.793,0,0,0,.333-.186l-.1-.825-.424.263-.035-.27.616-.385.173,1.367-.219.138a3.147,3.147,0,0,1-.323.18.64.64,0,0,1-.233.068l.011-.29A.563.563,0,0,0,209.907,92.3Z" transform="translate(-206.759 -85.367)" fill="#fff"/>
      <path id="패스_1919" data-name="패스 1919" d="M210.817,92.654a.223.223,0,0,1-.149-.1.6.6,0,0,1-.083-.263.953.953,0,0,1,.009-.321.78.78,0,0,1,.1-.261.526.526,0,0,1,.165-.17.269.269,0,0,1,.182-.048.222.222,0,0,1,.15.105.623.623,0,0,1,.083.263.928.928,0,0,1-.009.317.78.78,0,0,1-.1.261.535.535,0,0,1-.167.171A.278.278,0,0,1,210.817,92.654Zm.267-.532a.472.472,0,0,0,0-.146.323.323,0,0,0-.036-.123.108.108,0,0,0-.066-.057.105.105,0,0,0-.084.017.223.223,0,0,0-.075.083.358.358,0,0,0-.044.126.482.482,0,0,0,0,.147.284.284,0,0,0,.038.122.112.112,0,0,0,.066.056.108.108,0,0,0,.083-.018.24.24,0,0,0,.077-.083A.374.374,0,0,0,211.085,92.123Z" transform="translate(-208.928 -85.069)" fill="#fff"/>
      <path id="패스_1920" data-name="패스 1920" d="M211.438,93.142l-.193.12-.186-1.469.193-.12.065.514.147-.092.034.271-.147.092Z" transform="translate(-209.862 -84.976)" fill="#fff"/>
      <path id="패스_1921" data-name="패스 1921" d="M211.242,92.437l.193-.12.086.679-.866.541-.034-.266.673-.421Z" transform="translate(-209.228 -84.652)" fill="#fff"/>
      <path id="패스_1922" data-name="패스 1922" d="M212.276,92.8a.415.415,0,0,0,.236-.015l-.038.3a.522.522,0,0,1-.272,0,.4.4,0,0,1-.213-.164l-.02-.03c0,.036-.011.072-.017.107a1.188,1.188,0,0,1-.137.367.6.6,0,0,1-.165.186.224.224,0,0,1-.177.042l.017-.3a.121.121,0,0,0,.111-.023.364.364,0,0,0,.116-.126.818.818,0,0,0,.089-.261.89.89,0,0,0,.015-.272l-.364.227-.035-.27.913-.571.035.27-.355.222a.438.438,0,0,0,.083.188A.315.315,0,0,0,212.276,92.8Z" transform="translate(-211.423 -84.811)" fill="#fff"/>
      <path id="패스_1923" data-name="패스 1923" d="M212.48,92.854l.035.275-1.151.719-.035-.275Z" transform="translate(-211.285 -84.382)" fill="#fff"/>
      <path id="패스_1924" data-name="패스 1924" d="M210.881,91.95v0l0,.006V91.95Z" transform="translate(-208.975 -84.836)" fill="#fff"/>
    </g>
  </g>
</svg>
