<svg xmlns="http://www.w3.org/2000/svg" width="16.312" height="12.064" viewBox="0 0 16.312 12.064">
  <path id="패스_2407" data-name="패스 2407" d="M87.172,320.478v-.762a8.259,8.259,0,0,1-4.212-4.98,2.957,2.957,0,0,0,1.575.564,2.527,2.527,0,0,0,1.995-.954,3.477,3.477,0,0,0,.814-2.335,3.423,3.423,0,0,0-1.07-2.562,3.641,3.641,0,0,0-2.631-1.036,3.215,3.215,0,0,0-2.612,1.318,5.094,5.094,0,0,0-1.05,3.279,6.949,6.949,0,0,0,2.113,4.952A8.106,8.106,0,0,0,87.172,320.478Zm8.951,0v-.762a8.252,8.252,0,0,1-4.212-4.98,2.97,2.97,0,0,0,1.587.564,2.514,2.514,0,0,0,1.982-.954,3.471,3.471,0,0,0,.813-2.335,3.431,3.431,0,0,0-1.063-2.562,3.615,3.615,0,0,0-2.624-1.036,3.209,3.209,0,0,0-2.618,1.318,5.119,5.119,0,0,0-1.044,3.279,6.962,6.962,0,0,0,2.107,4.952A8.076,8.076,0,0,0,96.123,320.478Z" transform="translate(-79.981 -308.414)" fill="#21a3f3"/>
</svg>
